<?xml version="1.0" standalone="no"?>
<!DOCTYPE svg PUBLIC "-//W3C//DTD SVG 20010904//EN"
 "http://www.w3.org/TR/2001/REC-SVG-20010904/DTD/svg10.dtd">
<svg version="1.0" xmlns="http://www.w3.org/2000/svg"
 width="1088.000000pt" height="688.000000pt" viewBox="0 0 1088.000000 688.000000"
 preserveAspectRatio="xMidYMid meet">

<g transform="translate(0.000000,688.000000) scale(0.100000,-0.100000)"
fill="#000000" stroke="none">
<path d="M3842 5254 c-73 -51 -30 -164 63 -164 l25 0 0 -234 0 -234 -47 -4
c-27 -2 -51 0 -54 5 -3 4 -36 117 -74 250 -37 133 -76 259 -87 280 -22 44 -81
76 -137 77 -48 0 -113 -34 -134 -70 -30 -50 -188 -611 -182 -642 10 -43 52
-78 95 -78 55 0 86 30 109 103 l19 62 93 0 93 0 12 -50 c7 -27 18 -59 25 -71
22 -41 90 -56 139 -31 20 10 30 11 50 0 38 -19 322 -18 360 2 85 44 56 165
-40 165 l-40 0 0 298 c-1 312 -1 316 -47 340 -34 19 -214 16 -241 -4z m240
-31 c17 -15 18 -38 18 -325 l0 -308 49 0 c73 0 104 -44 67 -96 -13 -17 -29
-19 -152 -22 -192 -5 -234 6 -234 63 0 38 26 55 81 55 l49 0 0 265 0 265 -40
0 c-30 0 -47 7 -65 25 -29 28 -31 42 -9 73 14 20 23 22 116 22 80 0 105 -3
120 -17z m-487 -39 c18 -8 40 -29 49 -47 9 -18 52 -159 96 -315 72 -254 79
-286 68 -310 -18 -37 -61 -51 -96 -31 -22 12 -31 29 -46 87 l-19 72 -117 0
-117 0 -18 -67 c-19 -75 -43 -103 -85 -103 -28 0 -70 39 -70 65 0 6 38 144 86
306 86 296 100 329 149 349 32 14 84 11 120 -6z"/>
<path d="M3526 5060 c-9 -25 -76 -277 -76 -289 0 -7 28 -11 80 -11 57 0 80 4
80 13 -1 32 -79 300 -84 287z m27 -184 c9 -35 17 -69 17 -75 0 -6 -18 -11 -40
-11 -22 0 -40 5 -40 11 0 20 34 139 40 139 3 0 14 -29 23 -64z"/>
<path d="M9214 5240 c-37 -15 -64 -59 -64 -104 0 -49 21 -83 64 -102 l31 -13
-51 -1 c-74 0 -110 -16 -128 -55 -30 -62 11 -125 80 -125 l34 0 0 -109 0 -108
-40 -7 c-69 -11 -104 -67 -79 -127 20 -49 58 -59 217 -59 156 0 196 9 217 51
34 64 1 123 -74 135 l-41 7 0 169 0 170 -29 29 c-16 16 -40 29 -53 29 -21 0
-20 2 9 16 33 16 63 66 63 104 0 74 -85 129 -156 100z m95 -37 c33 -27 38 -82
11 -116 -27 -34 -89 -38 -120 -7 -31 31 -27 93 6 119 33 26 75 27 103 4z m19
-229 c21 -15 22 -20 22 -198 l0 -183 52 -5 c72 -7 102 -55 61 -100 -14 -16
-34 -18 -184 -18 l-169 0 -16 25 c-34 52 3 95 82 95 l34 0 0 140 0 140 -49 0
c-40 0 -53 4 -65 22 -22 31 -20 45 9 73 22 23 32 25 112 25 64 0 95 -4 111
-16z"/>
<path d="M2171 5212 c-19 -9 -43 -29 -53 -43 -21 -28 -188 -588 -188 -629 0
-43 35 -88 75 -96 72 -13 111 22 136 119 l11 47 93 0 92 0 12 -42 c22 -78 33
-99 62 -113 45 -24 87 -19 119 14 l29 28 48 -23 c98 -48 237 -51 329 -8 120
57 135 225 27 299 -21 13 -72 36 -115 51 -43 14 -81 30 -84 36 -8 13 75 6 138
-12 44 -13 50 -13 75 6 16 12 32 33 37 48 24 65 -36 116 -159 137 -164 28
-299 -57 -297 -187 1 -89 53 -143 179 -185 127 -42 105 -69 -27 -34 -77 21
-98 19 -129 -12 l-27 -28 -73 260 c-88 314 -100 341 -155 366 -52 23 -111 24
-155 1z m138 -25 c13 -6 32 -23 43 -37 19 -27 178 -569 178 -609 0 -31 -37
-71 -66 -71 -37 0 -63 32 -83 100 l-18 65 -118 0 -118 0 -18 -65 c-18 -65 -45
-100 -79 -100 -29 0 -70 39 -70 66 0 32 154 563 174 603 9 17 29 37 44 45 33
19 99 20 131 3z m613 -202 c24 -9 49 -23 56 -32 19 -26 14 -61 -11 -77 -20
-13 -30 -13 -97 5 -90 23 -140 14 -140 -27 0 -27 22 -40 124 -74 120 -39 174
-111 146 -195 -14 -41 -65 -89 -115 -105 -50 -17 -198 -8 -253 15 -60 25 -70
77 -19 109 11 7 36 5 84 -8 82 -21 141 -18 157 7 18 29 -5 50 -95 83 -131 47
-155 65 -169 129 -33 145 144 235 332 170z"/>
<path d="M2240 5068 c0 -10 -70 -277 -77 -295 -4 -10 14 -13 81 -13 47 0 86 2
86 5 0 32 -89 330 -90 303z m46 -250 c5 -27 5 -28 -41 -28 -33 0 -45 4 -42 13
3 6 13 45 23 86 l18 74 18 -59 c10 -32 20 -71 24 -86z"/>
<path d="M6712 5205 c-91 -40 -62 -175 38 -175 l30 0 0 -200 0 -200 -30 0
c-19 0 -42 -11 -62 -29 -45 -40 -45 -92 0 -132 l32 -29 166 0 166 0 29 29 c56
57 27 145 -52 157 l-39 7 0 198 0 199 33 0 c98 1 124 137 33 175 -49 21 -297
20 -344 0z m354 -37 c22 -21 21 -64 -1 -88 -13 -14 -31 -20 -62 -20 l-43 0 0
-230 0 -230 38 0 c53 0 82 -23 82 -65 0 -58 -22 -65 -198 -65 -149 0 -154 1
-177 25 -14 13 -25 31 -25 40 0 31 46 65 90 65 l40 0 0 229 0 230 -46 3 c-60
4 -91 38 -75 81 6 15 21 32 33 37 13 5 91 8 175 7 127 -2 155 -5 169 -19z"/>
<path d="M4252 5005 c-16 -14 -32 -37 -35 -52 -7 -36 70 -420 91 -453 33 -52
93 -76 153 -60 54 15 78 39 98 98 l18 53 7 -42 c17 -108 162 -152 238 -72 31
33 36 50 82 282 32 157 34 177 21 206 -19 47 -56 69 -103 62 -54 -9 -78 -42
-92 -129 -6 -40 -15 -82 -19 -93 -7 -16 -9 -13 -15 20 -14 73 -35 98 -100 119
-10 3 -36 1 -58 -4 -44 -12 -75 -52 -84 -112 -7 -39 -24 -43 -24 -6 0 12 -5
51 -11 87 -9 49 -19 72 -40 93 -36 37 -86 38 -127 3z m107 -22 c17 -15 25 -46
46 -178 14 -88 25 -166 25 -174 0 -32 10 1 34 112 14 65 30 127 36 137 16 31
72 44 114 26 39 -16 42 -24 72 -181 9 -49 20 -93 23 -97 4 -5 19 70 34 165 22
143 30 175 48 190 47 38 114 6 112 -55 0 -19 -18 -117 -39 -219 -33 -159 -42
-188 -65 -211 -22 -23 -37 -28 -73 -28 -36 0 -52 6 -76 28 -25 23 -33 43 -52
129 -12 57 -23 102 -24 100 -2 -1 -12 -48 -24 -102 -18 -83 -26 -105 -51 -127
-49 -47 -139 -35 -169 23 -17 31 -90 407 -83 427 11 32 36 52 63 52 15 0 37
-8 49 -17z"/>
<path d="M5048 5014 c-83 -25 -112 -95 -64 -151 21 -24 30 -28 68 -25 171 13
230 -5 82 -25 -62 -9 -98 -19 -126 -38 -161 -107 -79 -345 119 -345 18 0 55 9
83 19 49 19 50 19 89 -1 34 -16 46 -18 74 -9 60 20 65 42 58 251 -8 205 -16
236 -77 289 -18 17 -50 35 -71 40 -53 15 -179 12 -235 -5z m239 -29 c93 -39
105 -69 114 -290 8 -207 3 -225 -56 -225 -24 0 -39 7 -54 26 l-20 26 -28 -20
c-39 -28 -109 -45 -152 -37 -128 24 -183 169 -98 259 39 41 88 56 185 56 l72
0 0 34 c0 64 -48 85 -145 62 -76 -18 -108 -7 -113 40 -3 35 11 50 65 70 53 18
185 18 230 -1z"/>
<path d="M5106 4664 c-21 -21 -20 -40 4 -64 24 -24 60 -26 106 -4 29 14 34 21
34 50 l0 34 -64 0 c-45 0 -69 -5 -80 -16z m114 -23 c0 -13 -57 -34 -75 -27 -8
3 -15 12 -15 21 0 11 11 15 45 15 25 0 45 -4 45 -9z"/>
<path d="M5474 4996 c-20 -20 -34 -44 -34 -58 0 -28 35 -132 114 -342 62 -166
62 -164 -10 -184 -22 -7 -49 -21 -59 -32 -41 -45 -11 -135 51 -152 39 -11 120
7 165 37 58 38 92 103 181 341 l83 224 21 -48 c28 -65 68 -95 166 -127 142
-47 129 -52 -74 -29 -52 6 -59 4 -82 -19 -35 -35 -35 -85 -1 -119 31 -32 82
-48 175 -55 169 -13 282 63 282 187 0 90 -49 143 -170 184 -39 14 -79 29 -89
35 -33 18 14 26 66 11 83 -24 127 -24 150 -1 79 79 -4 167 -167 178 -97 7
-168 -14 -216 -62 l-33 -33 -11 32 c-24 66 -112 84 -161 32 -13 -14 -40 -79
-64 -157 l-43 -133 -28 94 c-51 167 -65 199 -96 215 -46 24 -78 19 -116 -19z
m109 -18 c18 -17 38 -67 72 -178 27 -85 51 -161 55 -168 3 -7 30 63 59 155 55
171 79 213 120 213 29 0 71 -39 71 -66 0 -23 -168 -491 -195 -544 -45 -86
-117 -133 -198 -128 -46 3 -53 6 -66 32 -20 43 1 78 57 91 45 11 82 37 82 57
0 7 -38 116 -85 242 -47 126 -85 239 -85 252 0 25 43 64 71 64 10 0 29 -10 42
-22z m762 1 c46 -16 76 -59 59 -86 -21 -33 -41 -38 -91 -24 -110 32 -163 24
-163 -24 0 -26 24 -39 132 -75 79 -25 122 -61 136 -113 33 -118 -84 -209 -248
-193 -117 10 -170 38 -170 86 0 54 33 60 171 29 51 -11 60 -11 84 5 18 12 25
24 23 39 -2 18 -21 28 -102 56 -114 39 -160 77 -171 138 -11 68 26 129 100
165 32 15 56 18 120 15 44 -3 98 -11 120 -18z"/>
<path d="M7185 5021 c-34 -15 -59 -50 -58 -84 1 -17 3 -122 5 -232 3 -173 5
-205 21 -228 39 -60 123 -59 164 2 22 32 23 44 23 192 0 149 1 159 21 169 11
6 30 10 42 8 21 -3 22 -7 27 -175 4 -154 7 -174 26 -200 27 -36 80 -51 120
-32 53 25 64 66 64 234 0 104 4 155 12 163 16 16 53 15 66 -1 6 -7 12 -82 14
-181 l3 -168 34 -30 c29 -26 39 -30 75 -25 27 4 49 15 63 32 22 25 23 33 23
218 0 165 -3 198 -19 232 -48 106 -184 145 -300 86 l-40 -21 -43 22 c-54 29
-137 31 -191 4 -34 -17 -39 -17 -55 -3 -22 19 -71 28 -97 18z m82 -43 c7 -6
13 -17 13 -24 0 -19 3 -18 46 11 67 45 137 45 207 -1 38 -25 38 -25 65 -6 67
47 145 54 212 20 81 -42 85 -53 88 -265 2 -103 1 -196 -2 -208 -5 -21 -43 -45
-72 -45 -8 0 -26 11 -39 25 -25 24 -25 27 -25 187 0 189 -6 208 -67 208 -19 0
-47 -7 -61 -16 l-27 -15 4 -158 c3 -174 -6 -213 -53 -225 -35 -9 -75 9 -86 39
-6 15 -10 97 -10 182 0 132 -3 159 -17 175 -20 22 -64 23 -103 3 l-30 -16 0
-159 c0 -87 -4 -170 -10 -185 -22 -59 -109 -52 -130 10 -7 20 -10 96 -8 192 1
87 -1 177 -6 200 -7 38 -5 45 19 69 20 20 32 24 53 19 15 -4 33 -11 39 -17z"/>
<path d="M8135 5023 c-72 -16 -95 -26 -119 -48 -30 -27 -33 -62 -11 -105 20
-39 52 -46 137 -30 48 9 75 10 86 4 35 -22 22 -31 -51 -36 -130 -8 -207 -65
-223 -164 -13 -83 36 -171 110 -199 53 -20 144 -17 191 6 28 14 33 14 60 -3
54 -33 113 -20 139 30 11 22 12 63 7 208 -8 201 -23 252 -83 295 -56 40 -167
59 -243 42z m205 -54 c72 -40 83 -73 90 -279 4 -96 3 -185 -1 -197 -16 -43
-104 -38 -116 6 -4 18 -8 17 -60 -10 -114 -60 -236 -21 -264 85 -33 121 61
206 228 206 l63 0 0 34 c0 62 -47 78 -161 54 -53 -11 -60 -10 -79 7 -40 36
-20 84 42 104 61 18 73 20 144 17 53 -2 82 -9 114 -27z"/>
<path d="M8142 4664 c-44 -31 -17 -84 44 -84 19 0 48 7 64 15 25 13 30 22 30
50 l0 35 -58 0 c-36 0 -66 -6 -80 -16z m108 -24 c0 -14 -35 -30 -64 -30 -29 0
-44 19 -25 31 19 12 89 11 89 -1z"/>
<path d="M8745 5015 c-22 -9 -44 -20 -49 -25 -5 -5 -19 -2 -34 10 -35 28 -96
26 -126 -3 l-24 -24 5 -239 c4 -207 7 -242 22 -264 24 -33 79 -47 121 -30 52
22 60 50 60 228 l0 159 25 11 c38 17 63 15 75 -7 5 -11 10 -86 10 -173 0 -133
3 -157 19 -185 22 -35 62 -49 112 -38 19 4 38 19 50 38 17 28 19 52 19 208 0
180 -6 220 -42 272 -43 61 -164 92 -243 62z m181 -46 c64 -39 74 -77 74 -286
l0 -182 -26 -20 c-34 -26 -54 -26 -88 0 l-26 20 0 170 c0 156 -2 171 -20 189
-26 26 -75 26 -117 0 l-33 -20 0 -165 c0 -163 0 -166 -25 -190 -29 -30 -54
-32 -87 -5 l-25 19 -5 233 c-4 150 -2 237 4 246 6 6 28 12 49 12 29 0 42 -6
54 -23 l15 -24 58 29 c48 25 65 29 110 25 29 -3 69 -16 88 -28z"/>
<path d="M6893 4150 c-27 -11 -38 -47 -29 -95 6 -31 3 -39 -29 -71 -29 -29
-36 -43 -34 -69 2 -18 -4 -44 -15 -60 -40 -61 -26 -152 28 -177 18 -8 25 -21
30 -58 11 -85 69 -127 111 -80 15 16 17 31 13 85 -3 36 -2 65 2 65 14 0 79 73
91 102 10 24 9 32 -6 48 -24 26 -45 25 -88 -4 -20 -14 -47 -30 -59 -36 -22
-10 -21 -10 2 10 14 12 37 32 53 45 15 13 27 33 27 45 0 11 7 34 15 50 14 26
14 34 1 58 -7 15 -17 46 -21 69 -10 66 -44 92 -92 73z m45 -28 c7 -5 15 -32
19 -60 3 -29 9 -52 13 -52 12 0 20 -28 13 -46 -3 -9 -13 -14 -24 -11 -10 3
-26 -1 -36 -9 -17 -13 -17 -13 5 -14 36 0 40 -30 6 -57 -66 -55 -85 -76 -82
-92 6 -29 48 -24 110 14 37 23 63 34 69 28 13 -13 -29 -73 -69 -98 l-32 -20 7
-72 c5 -63 3 -73 -11 -79 -28 -11 -45 17 -52 84 -6 50 -10 62 -25 62 -24 0
-59 47 -59 79 0 27 21 67 47 88 12 9 12 15 2 31 -17 26 -1 59 42 87 19 13 27
25 23 35 -15 37 -17 92 -3 101 17 11 21 11 37 1z"/>
<path d="M5141 4101 c-19 -19 -23 -38 -38 -176 -6 -59 -8 -64 -12 -35 -8 46
-40 63 -108 55 -43 -4 -53 -2 -53 10 0 8 -11 22 -24 30 -29 19 -69 7 -87 -27
-6 -13 -25 -40 -42 -61 l-30 -38 -18 30 c-20 33 -64 50 -82 32 -8 -8 -16 -6
-30 7 -26 23 -110 22 -158 -1 -36 -18 -37 -18 -74 7 -20 14 -53 28 -71 32 -56
10 -141 -1 -164 -21 -22 -20 -27 -67 -7 -87 7 -8 13 -46 14 -98 1 -74 4 -86
23 -102 30 -24 63 -23 97 5 15 12 43 33 62 46 l34 23 23 -30 c47 -60 125 -63
206 -7 42 29 58 31 58 10 0 -22 37 -55 61 -55 21 0 62 36 90 79 l15 24 22 -37
c41 -69 112 -80 198 -30 l41 23 10 -32 c15 -54 94 -73 108 -26 5 15 12 18 28
12 33 -11 86 -6 113 12 l24 15 1 -87 c1 -49 3 -95 4 -103 1 -8 3 -23 4 -32 2
-26 30 -48 60 -48 45 0 55 21 55 127 1 93 2 95 30 118 l30 24 22 -25 c26 -27
47 -30 84 -11 22 11 28 11 38 0 14 -14 50 -17 69 -5 7 4 19 23 27 42 8 19 15
27 16 18 0 -10 11 -25 25 -34 21 -13 30 -14 53 -5 22 9 35 9 66 -4 45 -19 83
-13 142 21 l42 24 6 -26 c12 -46 96 -52 113 -8 5 12 9 9 19 -15 11 -26 18 -31
48 -31 27 0 40 6 52 25 l16 25 25 -20 c32 -25 48 -25 73 0 15 15 20 33 20 73
0 28 3 69 6 90 6 34 9 37 40 37 38 0 74 29 74 60 0 28 -35 60 -65 60 -22 0
-25 5 -25 33 0 72 -58 120 -100 82 -11 -10 -20 -30 -20 -45 0 -85 -32 -122
-85 -98 -18 8 -31 8 -54 -1 -22 -10 -34 -10 -50 -1 -28 15 -60 4 -73 -24 l-10
-23 -24 23 c-30 31 -83 31 -150 0 l-52 -24 -21 29 c-29 39 -65 47 -100 22 -26
-20 -27 -20 -50 -2 -30 24 -52 24 -84 -1 -14 -11 -34 -20 -46 -20 -11 0 -26
-6 -33 -14 -11 -12 -16 -11 -35 6 -29 27 -105 36 -137 15 -20 -14 -26 -14 -42
-2 -25 19 -85 19 -110 0 -31 -24 -36 -18 -28 41 10 83 8 103 -11 124 -23 25
-59 26 -84 1z m67 -26 c4 -9 3 -53 -4 -103 -7 -48 -13 -131 -13 -184 -1 -114
-5 -128 -37 -128 -24 0 -24 0 -24 113 1 119 14 289 25 307 9 15 43 12 53 -5z
m1293 -16 c7 -13 9 -40 5 -65 l-6 -44 34 0 c47 0 66 -9 66 -30 0 -22 -19 -30
-70 -30 -36 0 -38 -2 -44 -37 -3 -21 -6 -68 -6 -104 0 -71 -12 -89 -45 -65
-14 10 -17 26 -14 98 l4 86 -25 -13 c-14 -7 -31 -10 -39 -7 -11 4 -13 -13 -10
-89 4 -91 3 -94 -18 -97 -30 -4 -43 30 -43 110 0 34 -3 58 -7 54 -5 -4 -19
-38 -33 -74 -22 -58 -29 -67 -50 -67 -22 0 -26 5 -30 43 l-5 43 -50 -36 c-59
-42 -107 -57 -140 -45 -65 25 -87 123 -40 174 46 50 131 71 169 43 15 -11 16
-17 7 -35 -14 -27 -57 -56 -103 -71 -21 -7 -38 -16 -38 -21 0 -10 29 -40 39
-40 12 0 95 55 110 74 8 9 21 14 31 11 15 -5 19 3 25 45 4 27 11 53 16 56 18
11 49 -7 49 -29 0 -20 1 -20 28 6 33 32 48 34 63 9 11 -17 14 -17 59 6 48 24
48 24 55 85 4 34 9 65 12 70 8 14 32 7 44 -14z m-1603 -106 c12 -24 6 -38 -39
-95 -21 -26 -54 -74 -73 -107 -57 -92 -83 -90 -109 9 -9 30 -16 46 -16 34 -1
-13 -20 -34 -55 -58 -63 -43 -108 -58 -140 -46 -32 12 -66 58 -66 88 l0 26
-32 -30 c-63 -58 -138 -105 -159 -99 -22 7 -21 4 -21 107 0 54 -5 81 -14 89
-23 19 -17 49 12 59 39 15 122 12 161 -7 20 -9 43 -29 53 -45 13 -21 19 -25
23 -15 8 20 87 57 123 57 17 0 38 -6 48 -13 15 -11 16 -17 7 -35 -14 -27 -57
-56 -103 -71 -21 -7 -38 -16 -38 -21 0 -10 29 -40 39 -40 12 0 95 55 110 74 8
9 21 14 32 11 16 -5 17 -1 12 29 -4 28 -2 37 11 42 24 9 44 -13 59 -65 l12
-43 59 83 c75 106 87 115 104 82z m833 -23 c11 -6 19 -21 19 -35 0 -39 16 -37
44 5 53 81 92 42 98 -98 4 -78 2 -95 -12 -102 -33 -18 -45 5 -45 89 0 43 -3
78 -6 76 -3 -2 -18 -37 -33 -77 -43 -115 -45 -118 -60 -118 -24 0 -36 34 -37
107 l-1 68 -19 -40 c-10 -22 -19 -57 -19 -77 0 -45 -32 -70 -57 -45 -12 12
-14 31 -6 113 8 97 9 99 34 102 15 2 35 12 45 23 20 22 28 23 55 9z m-687 -16
c25 -9 19 -50 -10 -73 -14 -11 -45 -27 -70 -37 -24 -9 -44 -20 -44 -25 0 -9
29 -39 38 -39 13 0 77 42 105 68 25 24 29 25 44 10 22 -23 12 -41 -44 -82 -61
-45 -108 -60 -141 -43 -59 29 -82 109 -47 163 29 44 122 76 169 58z m312 -2
c86 -60 32 -221 -75 -224 -38 -1 -58 15 -70 58 -20 72 41 174 103 174 17 0 36
-4 42 -8z m190 -26 c56 -56 43 -121 -38 -190 l-43 -37 -2 -97 c-1 -53 -2 -100
-3 -104 0 -13 -38 -9 -46 4 -14 22 -15 174 -2 286 8 62 11 118 7 124 -15 25
10 48 52 48 33 0 47 -6 75 -34z m841 -108 c-3 -7 -5 -2 -5 12 0 14 2 19 5 13
2 -7 2 -19 0 -25z m0 -50 c-3 -8 -6 -5 -6 6 -1 11 2 17 5 13 3 -3 4 -12 1 -19z"/>
<path d="M6010 3860 c-8 -5 -10 -10 -5 -10 6 0 17 5 25 10 8 5 11 10 5 10 -5
0 -17 -5 -25 -10z"/>
<path d="M4256 3858 c-8 -30 -8 -88 0 -88 14 0 84 63 84 76 0 14 -38 34 -64
34 -8 0 -16 -10 -20 -22z m44 -12 c0 -3 -4 -8 -10 -11 -5 -3 -10 -1 -10 4 0 6
5 11 10 11 6 0 10 -2 10 -4z"/>
<path d="M4500 3860 c-8 -5 -10 -10 -5 -10 6 0 17 5 25 10 8 5 11 10 5 10 -5
0 -17 -5 -25 -10z"/>
<path d="M4960 3860 c-8 -5 -10 -10 -5 -10 6 0 17 5 25 10 8 5 11 10 5 10 -5
0 -17 -5 -25 -10z"/>
<path d="M5291 3834 c-27 -35 -29 -84 -2 -84 25 0 53 44 49 77 -4 36 -22 39
-47 7z"/>
<path d="M5486 3819 c-3 -17 -6 -41 -6 -53 0 -20 1 -20 20 4 21 26 23 71 4 77
-6 2 -14 -10 -18 -28z"/>
<path d="M7935 4104 c-8 -9 -21 -36 -27 -60 -10 -37 -16 -44 -38 -44 -36 0
-85 -33 -119 -80 -28 -39 -29 -39 -35 -16 -12 49 -113 59 -181 18 -28 -17 -29
-17 -53 5 -54 50 -199 58 -247 13 -29 -27 -31 -48 -10 -76 10 -13 14 -44 15
-97 0 -92 9 -113 50 -122 25 -6 42 1 100 40 l71 46 25 -30 c53 -63 122 -61
215 4 50 36 81 34 58 -2 -17 -28 -4 -71 26 -85 29 -13 61 -6 106 25 19 13 39
22 44 21 6 -1 27 -5 48 -9 l38 -6 -30 -31 c-38 -39 -61 -87 -61 -127 0 -100
108 -168 207 -130 65 24 133 120 148 207 7 45 10 47 50 32 19 -7 35 -6 60 5
34 13 39 24 36 70 -1 13 4 8 13 -12 13 -28 20 -33 50 -33 57 0 66 24 56 155
-4 61 -13 122 -20 138 -16 32 -49 44 -80 27 -17 -9 -29 -9 -50 0 -36 15 -67 0
-76 -36 -6 -24 -7 -24 -25 -8 -20 18 -28 18 -151 13 -85 -3 -89 -4 -106 -34
-11 -19 -11 -18 -12 8 0 15 -9 36 -19 46 -11 11 -17 22 -13 25 10 11 32 80 32
103 0 46 -61 71 -95 37z m60 -25 c10 -15 -14 -97 -30 -102 -25 -10 -38 10 -32
48 9 55 43 85 62 54z m-85 -129 c14 -26 5 -40 -24 -40 -23 0 -55 -28 -75 -67
-16 -31 -16 -31 43 -57 68 -30 79 -56 41 -96 -38 -39 -80 -56 -100 -40 -24 20
-17 38 22 58 l36 19 -33 12 c-19 6 -42 18 -51 27 -17 15 -21 14 -58 -15 -22
-17 -60 -41 -86 -52 -45 -20 -47 -20 -83 -2 -28 13 -41 28 -51 58 l-14 40 -27
-25 c-15 -14 -52 -42 -83 -63 -47 -32 -59 -37 -76 -27 -19 10 -21 20 -21 96 0
63 -4 89 -15 100 -21 21 -19 31 10 50 19 12 41 15 90 12 69 -4 110 -25 131
-67 10 -20 12 -20 25 -5 31 38 121 64 163 48 43 -16 -5 -81 -81 -110 -45 -18
-53 -33 -28 -54 20 -17 63 1 110 47 20 19 42 32 50 29 9 -3 16 5 20 25 4 17
26 51 49 75 49 50 97 60 116 24z m85 -125 c0 -111 -6 -135 -35 -135 -27 0 -33
33 -28 133 5 94 11 109 41 105 21 -3 22 -8 22 -103z m399 99 c9 -3 16 -16 16
-27 0 -19 2 -19 30 8 24 23 34 27 47 19 23 -15 30 -46 34 -160 4 -96 3 -99
-18 -102 -30 -4 -43 30 -43 111 0 35 -4 57 -9 52 -15 -17 -53 -129 -55 -160
l-1 -30 -66 3 -66 3 -7 -52 c-20 -152 -135 -246 -236 -194 -58 30 -77 94 -45
154 21 41 92 99 137 113 21 6 38 16 38 21 0 10 -72 5 -100 -7 -9 -4 -23 -1
-32 6 -16 12 -16 16 -1 63 9 28 25 60 36 72 11 12 17 29 14 37 -9 22 10 30 73
33 30 1 69 5 85 8 37 6 71 -15 62 -39 -4 -11 -18 -16 -43 -16 -33 0 -36 -2
-30 -23 3 -12 -1 -36 -10 -51 -13 -27 -13 -31 5 -50 16 -17 29 -20 74 -18 l54
4 5 102 c6 124 11 136 52 120z m-494 -84 c0 -39 0 -40 -27 -28 -16 7 -30 13
-32 15 -9 6 31 53 44 53 11 0 15 -11 15 -40z m410 -60 c0 -50 0 -50 -33 -50
-43 0 -47 4 -35 44 7 21 20 37 37 43 14 6 27 11 29 12 1 1 2 -21 2 -49z"/>
<path d="M7340 3826 c0 -51 2 -56 18 -47 9 5 30 23 46 40 34 36 28 49 -27 58
l-37 6 0 -57z m50 20 c0 -3 -4 -8 -10 -11 -5 -3 -10 -1 -10 4 0 6 5 11 10 11
6 0 10 -2 10 -4z"/>
<path d="M7590 3860 c-9 -6 -10 -10 -3 -10 6 0 15 5 18 10 8 12 4 12 -15 0z"/>
<path d="M8111 3794 c-29 -37 -26 -47 9 -29 18 9 30 23 30 35 0 27 -15 25 -39
-6z"/>
<path d="M8123 3599 c-46 -23 -103 -81 -103 -104 0 -21 37 -55 59 -55 47 0
111 86 111 149 0 37 -10 38 -67 10z m18 -68 c-25 -48 -55 -68 -77 -50 -13 10
-12 15 8 37 25 26 80 64 86 58 2 -2 -6 -22 -17 -45z"/>
<path d="M3457 3950 c-14 -11 -34 -20 -44 -20 -10 0 -24 -5 -30 -11 -9 -9 -18
-6 -38 9 -14 11 -39 23 -55 27 -36 8 -97 -19 -106 -47 -6 -19 -7 -19 -25 -2
-20 18 -31 19 -157 13 -64 -2 -76 -6 -93 -27 -10 -13 -16 -28 -13 -33 3 -5 -4
-21 -15 -36 -11 -16 -27 -50 -36 -76 -15 -44 -15 -51 0 -73 8 -13 20 -24 26
-24 6 0 -5 -18 -25 -41 -42 -45 -56 -77 -56 -121 0 -102 112 -167 213 -124 65
28 125 116 142 209 8 40 11 42 49 27 34 -13 85 6 96 36 11 27 53 35 90 17 32
-16 52 -16 75 1 16 11 22 11 46 -3 37 -21 75 -4 87 41 8 31 9 32 16 10 10 -30
47 -44 84 -31 21 7 36 6 58 -6 16 -8 38 -15 49 -15 51 1 187 88 197 128 8 28
-9 61 -36 74 -14 6 -23 15 -20 20 3 5 3 20 0 32 -13 52 -120 58 -189 12 l-33
-23 -12 27 c-12 26 -48 50 -76 50 -7 0 -22 -9 -34 -21 l-22 -20 -27 20 c-32
26 -53 26 -86 1z m72 -23 c6 -8 14 -28 17 -45 l6 -32 30 41 c37 51 54 57 81
30 19 -19 22 -32 22 -119 0 -97 0 -97 -25 -97 -24 0 -25 2 -30 85 l-5 85 -32
-77 c-18 -42 -33 -83 -33 -91 0 -20 -25 -38 -43 -31 -20 7 -27 35 -27 109 l-1
60 -19 -45 c-10 -25 -19 -59 -19 -76 -1 -36 -21 -57 -44 -48 -23 8 -25 20 -18
124 l6 95 30 3 c17 2 38 12 48 23 21 22 40 24 56 6z m-225 -7 c54 -20 75 -107
46 -194 -10 -31 -16 -36 -43 -36 -39 0 -52 -9 -52 -35 0 -18 -6 -20 -66 -17
l-66 3 -7 -48 c-23 -176 -170 -271 -267 -173 -37 36 -39 92 -6 141 29 42 102
98 138 106 46 9 34 26 -13 20 -24 -2 -50 -8 -58 -11 -9 -4 -24 0 -35 8 -17 13
-18 18 -7 35 6 12 12 29 12 40 0 11 12 33 26 50 14 17 24 38 20 46 -7 20 11
30 60 31 23 1 62 4 86 8 30 5 49 2 62 -7 29 -21 14 -47 -28 -47 -34 0 -35 -1
-34 -35 1 -19 -5 -41 -12 -50 -11 -13 -10 -19 8 -38 17 -18 29 -21 74 -19 l54
4 -4 32 c-5 45 33 89 76 89 33 0 39 11 22 37 -7 12 -12 12 -35 0 -22 -12 -28
-12 -41 1 -18 19 -10 43 19 57 28 14 40 14 71 2z m596 -15 c24 -29 -29 -79
-118 -112 l-24 -9 20 -24 c17 -21 23 -23 45 -13 14 7 44 28 65 48 45 40 57 43
72 15 9 -18 6 -25 -20 -50 -17 -16 -55 -41 -85 -56 -65 -31 -98 -25 -132 26
-33 47 -30 92 8 135 44 50 142 73 169 40z m-720 -105 c-11 -16 -20 -38 -20
-49 0 -16 -6 -21 -28 -21 -38 0 -42 5 -29 45 7 22 18 36 34 40 13 3 26 12 30
21 4 11 9 12 19 3 12 -9 10 -16 -6 -39z"/>
<path d="M2971 3794 c-29 -37 -26 -47 9 -29 18 9 30 23 30 35 0 27 -15 25 -39
-6z"/>
<path d="M3255 3759 c-10 -15 3 -25 16 -12 7 7 7 13 1 17 -6 3 -14 1 -17 -5z"/>
<path d="M2983 3599 c-50 -24 -103 -81 -103 -109 0 -27 43 -53 72 -45 49 15
98 87 98 145 0 36 -10 37 -67 9z m37 -25 c0 -4 -10 -23 -21 -44 -25 -43 -62
-66 -77 -47 -13 15 -1 32 48 70 34 26 50 33 50 21z"/>
<path d="M3648 3341 c-32 -25 -52 -90 -38 -125 9 -24 7 -26 -18 -26 -15 0 -40
-9 -56 -19 -29 -19 -30 -19 -54 0 -29 22 -51 24 -77 5 -16 -11 -24 -11 -53 1
-68 28 -146 -30 -173 -130 -13 -48 9 -117 44 -142 30 -21 86 -19 124 5 32 19
33 19 43 0 31 -58 120 -22 120 48 0 19 76 112 92 112 7 0 9 -17 5 -46 -10 -90
11 -122 86 -139 l28 -6 -34 -39 c-64 -75 -68 -157 -10 -214 55 -55 139 -58
211 -7 46 34 102 136 102 188 l0 33 54 -6 c50 -6 57 -4 81 20 14 14 37 26 50
26 13 0 33 10 45 22 15 16 20 18 20 6 0 -39 74 -64 99 -34 7 8 19 12 29 9 9
-2 44 0 76 5 51 8 61 7 77 -9 11 -11 33 -19 50 -19 43 0 59 43 60 162 0 51 6
132 13 179 13 97 7 131 -28 147 -54 24 -94 -33 -95 -134 -1 -59 -8 -70 -31
-49 -36 33 -150 26 -150 -8 0 -6 -7 -1 -16 11 -17 24 -62 30 -82 10 -9 -9 -15
-9 -24 0 -14 14 -60 16 -74 2 -5 -5 -15 -6 -22 -1 -9 6 -8 19 7 62 20 60 15
91 -18 108 -32 18 -66 -2 -85 -48 -20 -52 -20 -80 -1 -101 13 -14 14 -22 4
-43 -11 -24 -13 -25 -34 -11 -17 11 -43 13 -124 8 -87 -6 -104 -10 -117 -28
l-14 -20 0 21 c0 11 -8 31 -18 44 -18 22 -18 24 0 71 23 61 23 64 -7 93 -29
30 -35 31 -67 6z m51 -25 c18 -22 -10 -100 -37 -104 -28 -4 -36 27 -18 69 22
52 34 60 55 35z m409 -3 c20 -39 -32 -123 -59 -96 -23 23 10 113 41 113 5 0
13 -8 18 -17z m506 -109 c-7 -49 -13 -132 -13 -185 -1 -101 -14 -138 -45 -126
-13 5 -16 24 -16 119 0 168 15 290 37 306 15 11 20 10 34 -6 14 -17 14 -30 3
-108z m-1241 -76 c69 -82 -15 -230 -117 -204 -31 8 -60 68 -51 104 28 113 114
164 168 100z m102 -4 l10 -32 39 34 c40 35 97 46 112 23 4 -8 9 -8 17 0 15 15
44 14 50 -2 2 -6 2 -56 -1 -109 -5 -100 -15 -124 -46 -112 -18 7 -20 20 -16
117 2 53 -1 66 -11 63 -8 -2 -26 -7 -40 -10 -34 -7 -109 -103 -109 -139 0 -16
-8 -30 -21 -37 -38 -21 -45 0 -43 122 1 62 3 114 3 116 1 2 11 2 24 0 15 -2
25 -13 32 -34z m630 -74 c0 -58 -4 -111 -9 -118 -7 -9 -5 -16 5 -22 11 -7 11
-13 3 -27 -10 -15 -23 -17 -78 -15 l-66 4 0 -44 c0 -90 -79 -199 -154 -214
-50 -9 -106 21 -129 68 -16 32 -17 43 -7 74 16 48 80 110 144 140 l51 25 -73
-6 c-60 -4 -74 -3 -79 11 -3 8 -1 20 6 27 6 6 11 23 11 38 0 15 11 40 24 56
14 16 24 38 23 49 -2 17 7 20 97 27 85 7 101 6 115 -8 15 -15 14 -17 -3 -31
-11 -8 -32 -14 -46 -14 -24 0 -26 -3 -22 -33 2 -22 -2 -38 -12 -47 -15 -12
-15 -15 5 -37 18 -19 33 -23 78 -23 l56 0 2 100 c1 119 5 132 35 128 22 -3 23
-7 23 -108z m105 82 l5 -24 24 26 c55 58 78 21 83 -133 3 -80 0 -95 -14 -105
-29 -18 -42 8 -48 97 l-5 82 -30 -80 c-27 -70 -34 -80 -55 -80 l-25 0 0 105
c1 58 4 113 8 123 10 26 50 18 57 -11z m251 18 c45 -24 62 -114 36 -190 -9
-27 -18 -35 -37 -36 -14 0 -37 -4 -52 -8 -56 -16 -92 37 -63 94 19 37 49 54
82 45 22 -5 24 -3 17 17 -9 32 -26 40 -45 22 -20 -18 -49 -8 -49 17 0 38 67
62 111 39z m-451 -140 c0 -49 -1 -50 -29 -50 -36 0 -43 9 -35 49 6 27 17 36
62 50 1 1 2 -21 2 -49z"/>
<path d="M3286 3066 c-20 -32 -22 -86 -2 -86 23 0 57 51 54 79 -4 34 -31 38
-52 7z"/>
<path d="M3810 3020 c-15 -21 -17 -30 -8 -30 21 0 58 29 58 46 0 24 -28 16
-50 -16z"/>
<path d="M3832 2834 c-109 -54 -139 -154 -47 -154 34 0 71 33 99 87 17 33 22
93 8 93 -4 0 -32 -12 -60 -26z m23 -51 c-9 -21 -23 -45 -32 -55 -30 -33 -79
-15 -51 19 12 16 87 73 95 73 2 0 -4 -17 -12 -37z"/>
<path d="M4396 2984 c-4 -10 -1 -14 6 -12 15 5 23 28 10 28 -5 0 -13 -7 -16
-16z"/>
<path d="M5975 3335 c-14 -13 -25 -32 -25 -42 0 -12 -6 -8 -20 15 -15 24 -27
32 -49 32 -41 0 -61 -32 -61 -95 0 -48 -1 -51 -38 -65 -31 -13 -41 -14 -62 -3
-40 20 -85 16 -119 -12 l-30 -26 -21 21 c-22 22 -89 27 -136 10 -21 -8 -31 -7
-44 5 -23 21 -79 19 -114 -4 -29 -19 -30 -19 -54 0 -32 25 -57 24 -83 -2 -16
-16 -19 -29 -15 -52 5 -31 4 -33 -70 -67 -100 -46 -98 -46 -85 -21 7 11 21 21
32 21 28 0 69 44 69 74 0 35 -40 60 -82 52 -72 -14 -158 -117 -158 -189 0 -30
7 -46 31 -69 28 -29 34 -30 88 -25 33 3 79 16 111 32 53 27 69 24 70 -13 0
-19 45 -35 75 -28 25 6 38 26 49 76 3 14 19 41 36 60 l29 35 1 -33 c0 -41 22
-84 56 -111 37 -29 97 -27 156 4 37 20 47 22 51 10 13 -33 53 -46 115 -39 74
8 80 12 97 60 14 39 14 39 15 8 1 -66 82 -101 115 -50 9 13 15 39 14 58 -5 63
1 128 11 128 6 0 10 -33 10 -80 0 -67 3 -83 20 -100 25 -25 50 -25 83 0 21 17
26 18 31 5 3 -9 17 -20 31 -25 37 -14 70 5 101 58 l27 45 12 -30 c27 -64 99
-90 172 -62 42 16 119 78 132 107 9 20 8 29 -5 49 -9 14 -24 27 -33 30 -13 3
-16 12 -13 33 6 42 -32 64 -101 58 -50 -4 -55 -3 -70 24 -11 19 -24 28 -42 28
-29 0 -47 -16 -95 -88 l-35 -51 -18 29 c-11 17 -31 33 -46 36 -34 9 -62 34
-53 48 11 18 32 80 32 98 0 16 -44 58 -62 58 -5 0 -20 -11 -33 -25z m55 -20
c18 -22 -10 -99 -37 -103 -27 -4 -35 19 -21 60 19 57 36 70 58 43z m-124 -30
c3 -14 4 -43 2 -65 l-4 -40 37 0 c20 0 51 -7 69 -16 32 -16 32 -18 26 -68 -3
-28 -6 -76 -6 -107 0 -43 -4 -58 -16 -63 -34 -13 -44 12 -44 111 l0 95 -37 -7
c-21 -4 -39 -8 -40 -9 -2 -2 -4 -47 -6 -102 -2 -85 -5 -99 -20 -102 -10 -2
-25 2 -34 9 -13 11 -15 28 -9 96 6 76 -1 102 -19 73 -3 -5 -15 -10 -26 -10
-16 0 -19 -7 -20 -42 0 -24 -5 -59 -12 -78 -10 -29 -17 -35 -42 -37 -16 -1
-41 -4 -55 -8 -35 -9 -63 15 -63 54 0 17 -2 31 -4 31 -1 0 -25 -16 -52 -35
-81 -58 -146 -59 -181 -2 -54 88 16 187 134 187 49 0 61 -9 51 -41 -8 -26 -91
-79 -122 -79 -26 0 -27 -3 -13 -31 16 -28 51 -23 100 14 73 55 70 54 85 34 13
-18 15 -18 39 -2 15 10 37 15 51 13 28 -6 32 8 11 37 -14 19 -15 19 -35 1 -17
-15 -23 -16 -36 -6 -21 18 -19 36 7 54 31 22 70 20 101 -4 21 -17 27 -18 37
-5 6 7 25 17 41 20 37 8 49 31 49 93 0 53 4 62 31 62 11 0 21 -10 25 -25z
m402 -113 c2 -14 -9 -38 -31 -64 -19 -24 -56 -76 -81 -115 -67 -104 -90 -100
-121 22 -25 101 -25 110 5 110 21 0 27 -8 40 -47 8 -27 18 -48 21 -48 3 0 28
32 55 71 27 39 55 77 63 85 19 21 45 13 49 -14z m-1120 -24 c7 -7 12 -25 12
-41 l0 -30 45 42 c50 46 97 55 114 23 12 -23 -3 -42 -35 -42 -27 0 -112 -91
-120 -129 -10 -45 -13 -51 -30 -58 -25 -9 -45 24 -38 64 3 18 3 33 0 33 -4 0
-24 -11 -46 -25 -96 -60 -185 -79 -229 -49 -64 45 36 214 127 214 49 0 38 -61
-14 -70 -28 -5 -74 -58 -74 -86 0 -26 59 -15 141 26 44 23 85 38 91 34 8 -5 9
7 5 43 -3 28 -3 54 0 57 10 10 38 7 51 -6z m1278 -13 c13 -33 -70 -105 -121
-105 -11 0 -15 -7 -13 -22 5 -36 46 -35 97 4 24 18 50 37 57 43 17 12 47 -15
39 -36 -11 -28 -116 -92 -159 -96 -35 -4 -45 -1 -68 22 -57 57 -45 138 26 180
48 29 133 35 142 10z"/>
<path d="M5646 2984 c-4 -10 -1 -14 6 -12 15 5 23 28 10 28 -5 0 -13 -7 -16
-16z"/>
<path d="M7383 3348 c-31 -15 -59 -94 -45 -130 10 -26 9 -28 -16 -28 -15 0
-42 -9 -60 -20 -32 -19 -33 -19 -51 -1 -14 14 -34 19 -75 20 -49 0 -58 -3 -73
-25 -10 -14 -31 -41 -47 -61 l-30 -35 -12 43 c-7 23 -19 46 -26 50 -24 16 -74
10 -93 -11 -16 -17 -20 -18 -34 -6 -29 25 -57 28 -82 7 -22 -18 -23 -24 -21
-112 2 -52 9 -105 15 -118 25 -51 84 -43 122 16 11 18 22 32 25 33 4 0 12 -15
18 -34 9 -24 22 -38 44 -45 40 -14 64 0 121 75 l42 54 5 -56 c5 -57 25 -84 60
-84 29 0 59 30 66 65 6 32 76 125 94 125 4 0 6 -18 3 -39 -12 -87 25 -152 76
-136 40 12 51 34 51 96 0 35 4 59 11 59 6 0 10 -12 9 -27 -7 -99 13 -143 64
-143 41 0 52 22 59 116 8 115 22 126 22 18 0 -79 2 -87 25 -106 16 -13 33 -18
52 -14 15 3 30 1 33 -4 10 -16 71 -12 85 5 17 20 27 19 35 -5 4 -12 18 -23 36
-27 l29 -5 -25 -30 c-72 -86 -39 -208 65 -239 85 -26 169 22 219 122 17 34 31
77 31 96 l0 33 53 -6 c44 -5 55 -3 75 15 58 56 1 111 -114 111 -60 0 -66 6
-58 48 4 22 14 34 34 41 41 14 56 46 36 77 -22 32 -44 36 -156 27 l-95 -8 -17
-35 c-18 -34 -18 -34 -18 -8 0 65 -44 103 -94 80 -15 -6 -28 -7 -40 0 -10 5
-32 7 -50 4 -18 -4 -35 -4 -38 -1 -3 3 3 29 12 58 20 60 16 82 -15 103 -31 20
-70 2 -85 -40 l-12 -31 -9 25 c-12 29 -26 40 -56 40 -32 0 -53 -27 -53 -68 0
-55 -9 -78 -35 -90 -36 -17 -44 2 -25 61 19 59 16 81 -13 102 -25 17 -25 17
-54 3z m45 -35 c7 -11 5 -31 -5 -60 -12 -36 -19 -44 -37 -41 -17 2 -21 9 -20
36 2 34 27 82 44 82 5 0 13 -7 18 -17z m290 0 c7 -11 5 -31 -5 -60 -12 -36
-19 -44 -37 -41 -17 2 -21 9 -20 36 2 34 27 82 44 82 5 0 13 -7 18 -17z m-127
-24 c7 -13 9 -40 5 -65 l-6 -44 43 0 c29 0 50 -7 69 -23 27 -22 27 -23 19 -95
-5 -40 -7 -82 -4 -93 5 -19 -12 -49 -28 -49 -4 0 -15 7 -24 17 -14 14 -16 29
-10 106 l7 90 -37 -6 c-21 -3 -40 -8 -42 -11 -2 -2 -7 -48 -10 -101 -6 -101
-17 -121 -49 -94 -13 10 -15 30 -12 96 3 78 -2 98 -18 72 -3 -6 -19 -9 -35 -7
-28 4 -29 3 -31 -36 -1 -23 -1 -54 0 -70 2 -28 -12 -56 -29 -56 -4 0 -15 8
-24 17 -15 14 -16 29 -10 95 l6 78 -33 -6 c-44 -8 -115 -85 -129 -141 -7 -26
-18 -45 -30 -48 -34 -11 -40 4 -37 88 2 48 -1 84 -7 87 -5 2 -40 -34 -78 -80
-55 -70 -72 -85 -95 -85 -24 0 -29 6 -47 63 -10 34 -22 62 -25 62 -4 0 -22
-28 -41 -62 -27 -50 -40 -64 -61 -66 -32 -4 -35 4 -41 115 -5 86 7 112 41 94
15 -8 22 -21 22 -44 l1 -32 37 43 c61 69 86 58 113 -48 l11 -44 44 49 c24 28
51 62 59 77 13 24 20 26 67 25 50 -2 53 -4 62 -34 l9 -33 38 35 c41 37 84 46
108 23 11 -10 14 -10 18 0 6 17 40 15 50 -2 7 -13 15 -12 55 7 46 21 47 23 53
77 4 30 8 61 10 68 7 19 33 14 46 -9z m229 -158 l6 -24 17 26 c20 31 61 36 72
10 3 -10 9 -57 12 -105 3 -48 10 -85 14 -82 5 3 9 18 9 34 0 16 11 41 24 57
14 16 24 38 23 49 -2 17 7 20 97 27 85 7 101 6 115 -8 15 -15 14 -17 -3 -31
-11 -8 -32 -14 -46 -14 -24 0 -26 -3 -22 -33 2 -22 -2 -38 -12 -47 -15 -12
-15 -15 5 -37 19 -19 32 -23 85 -23 92 0 139 -27 100 -59 -8 -7 -35 -9 -75 -5
l-61 7 0 -44 c0 -91 -79 -200 -154 -215 -50 -9 -106 21 -129 68 -16 32 -17 43
-7 74 16 48 80 110 144 140 l51 25 -73 -6 c-40 -3 -82 -11 -93 -18 -30 -18
-45 9 -54 96 l-7 72 -30 -78 c-26 -67 -33 -78 -51 -75 -21 3 -22 9 -25 99 -3
112 8 152 40 147 14 -2 24 -12 28 -27z"/>
<path d="M8030 3020 c-15 -21 -17 -30 -8 -30 21 0 58 29 58 46 0 24 -28 16
-50 -16z"/>
<path d="M8052 2834 c-109 -54 -139 -154 -47 -154 34 0 71 33 99 87 17 33 22
93 8 93 -4 0 -32 -12 -60 -26z m23 -51 c-9 -21 -23 -45 -32 -55 -30 -33 -79
-15 -51 19 12 16 87 73 95 73 2 0 -4 -17 -12 -37z"/>
<path d="M5359 2554 c-8 -9 -16 -48 -19 -88 l-5 -70 -39 -3 c-23 -1 -54 -13
-75 -28 l-36 -25 -8 30 c-10 41 -48 65 -77 50 -13 -7 -34 -8 -53 -4 -18 4 -39
7 -47 5 -21 -3 -40 -31 -40 -58 0 -37 -15 -26 -27 20 -8 29 -20 47 -35 54 -41
18 -65 -1 -107 -86 -22 -44 -45 -82 -51 -86 -11 -7 -13 -94 -2 -111 26 -40 94
-35 112 8 l9 23 0 -22 c1 -38 38 -66 74 -59 18 4 49 7 70 9 26 1 45 9 57 25
l19 22 3 -22 c2 -12 14 -29 28 -37 23 -12 30 -12 62 3 21 10 41 15 47 12 6 -4
35 2 66 12 31 11 58 15 61 11 17 -28 84 7 84 43 0 9 7 21 15 28 13 11 15 26 9
79 -3 36 -1 102 5 146 10 73 10 82 -7 105 -23 31 -73 38 -93 14z m69 -27 c8
-9 7 -46 -2 -127 -8 -64 -10 -116 -5 -118 15 -6 10 -49 -6 -62 -8 -7 -15 -21
-15 -32 0 -24 -26 -34 -45 -18 -12 10 -23 9 -55 -4 -43 -17 -87 -20 -107 -8
-7 4 -17 19 -22 32 -9 22 -10 20 -5 -12 5 -30 2 -38 -14 -47 -31 -17 -45 11
-52 98 l-5 76 -28 -72 c-31 -78 -46 -97 -71 -87 -12 4 -16 19 -16 55 0 50 -4
56 -28 40 -11 -6 -11 -17 -3 -47 9 -31 8 -41 -4 -54 -21 -21 -47 -3 -58 41 -5
19 -10 36 -12 37 -10 10 -47 -13 -56 -35 -6 -18 -15 -24 -32 -21 -18 2 -23 10
-25 41 -2 25 2 45 12 56 8 9 28 46 44 82 43 95 71 100 92 17 10 -39 16 -47 40
-50 30 -5 40 10 40 59 0 12 6 23 13 26 18 6 47 -11 47 -29 0 -12 7 -10 31 10
17 14 34 26 39 26 19 0 33 -35 40 -102 4 -40 8 -63 9 -51 1 30 58 93 99 110
29 12 37 12 61 0 l29 -14 6 45 c3 25 6 66 6 92 0 26 3 50 7 53 11 11 40 8 51
-6z"/>
<path d="M5259 2279 c-54 -58 -29 -90 39 -49 33 20 41 47 20 68 -18 18 -27 15
-59 -19z"/>
<path d="M5757 2420 c-14 -11 -37 -20 -51 -20 -41 0 -54 -33 -56 -135 -3 -120
-2 -121 16 -139 19 -20 68 -21 86 -3 11 12 16 12 27 0 7 -8 27 -13 44 -11 24
2 36 11 48 34 14 30 16 31 27 13 15 -23 55 -34 78 -21 11 6 25 5 43 -4 35 -19
60 -17 104 5 l38 19 24 -24 c28 -28 36 -29 74 -9 19 9 30 25 35 47 3 18 18 50
33 71 l27 38 11 -46 c22 -86 93 -131 168 -106 53 18 146 88 153 117 7 28 -18
74 -41 74 -10 0 -15 10 -15 29 0 57 -63 84 -137 58 -37 -13 -43 -12 -57 1 -23
23 -81 20 -115 -5 -29 -22 -29 -22 -46 -2 -21 22 -67 25 -87 5 -12 -12 -18
-12 -39 0 -13 7 -35 13 -48 14 -28 0 -91 -37 -91 -53 0 -7 -9 2 -20 20 -34 56
-77 65 -114 24 -17 -18 -18 -18 -41 5 -29 29 -45 30 -78 4z m55 -22 c9 -7 20
-28 25 -46 l8 -34 25 38 c37 55 55 64 82 36 19 -19 23 -35 26 -120 4 -87 2
-100 -13 -106 -34 -13 -45 12 -45 98 0 94 -5 91 -51 -37 -27 -75 -35 -88 -53
-85 -24 4 -33 32 -36 108 l-2 55 -15 -35 c-8 -19 -18 -55 -22 -80 -5 -37 -10
-46 -29 -48 -32 -5 -38 21 -32 130 l5 93 28 0 c15 1 37 11 49 23 26 26 29 26
50 10z m603 -12 c24 -18 13 -46 -19 -46 -31 0 -126 -103 -126 -137 0 -13 -9
-32 -21 -44 -35 -35 -44 -11 -45 117 l-1 115 26 -3 c19 -2 29 -11 37 -36 l10
-32 30 31 c44 47 78 58 109 35z m-268 -11 c28 -19 46 -77 38 -115 -9 -43 -49
-87 -91 -100 -32 -11 -40 -10 -63 7 -55 42 -50 125 12 191 34 35 69 41 104 17z
m431 9 c15 -4 22 -14 22 -30 0 -28 -64 -79 -111 -89 -32 -7 -38 -25 -14 -45
22 -18 56 -6 107 39 39 35 48 39 63 27 27 -20 11 -48 -50 -88 -67 -44 -105
-54 -142 -36 -37 17 -67 78 -58 118 15 68 111 123 183 104z"/>
<path d="M6082 2308 c-25 -28 -36 -68 -23 -88 8 -12 13 -11 31 5 32 29 43 54
36 81 -8 30 -17 30 -44 2z"/>
</g>
</svg>
