<?xml version="1.0" standalone="no"?>
<!DOCTYPE svg PUBLIC "-//W3C//DTD SVG 20010904//EN"
 "http://www.w3.org/TR/2001/REC-SVG-20010904/DTD/svg10.dtd">
<svg version="1.0" xmlns="http://www.w3.org/2000/svg"
 width="1088.000000pt" height="688.000000pt" viewBox="0 0 1088.000000 688.000000"
 preserveAspectRatio="xMidYMid meet">

<g transform="translate(0.000000,688.000000) scale(0.100000,-0.100000)"
fill="#000000" stroke="none">
<path d="M975 5409 c-56 -32 -55 -17 -55 -487 l0 -434 29 -29 c31 -31 68 -37
116 -19 47 18 55 58 55 279 l0 201 40 20 c50 26 82 25 106 -1 17 -19 19 -43
24 -241 l5 -220 28 -24 c53 -46 138 -22 158 44 7 24 10 111 7 247 -3 202 -4
212 -29 266 -44 93 -121 135 -232 126 -34 -3 -72 -8 -84 -12 -21 -7 -21 -5
-25 114 -3 114 -4 122 -29 146 -29 29 -85 41 -114 24z"/>
<path d="M8701 5407 c-50 -29 -50 -32 -51 -490 l0 -429 29 -29 c31 -31 68 -37
115 -19 49 18 56 50 56 274 l0 206 40 20 c50 26 82 25 106 -1 17 -19 19 -43
24 -241 l5 -220 28 -24 c53 -46 138 -22 158 44 7 24 10 111 7 247 -3 202 -4
212 -29 266 -44 93 -121 135 -232 126 -34 -3 -72 -8 -84 -12 -21 -7 -21 -5
-25 114 -3 114 -4 122 -29 146 -30 31 -85 41 -118 22z"/>
<path d="M5370 5367 c-50 -18 -83 -70 -77 -125 5 -45 35 -87 72 -102 13 -6 -2
-9 -48 -9 -62 -1 -71 -4 -98 -30 -64 -64 -12 -161 86 -161 29 0 35 -34 35
-197 l0 -123 -40 0 c-86 0 -134 -57 -106 -125 24 -57 54 -65 239 -65 90 0 178
5 194 11 39 13 69 66 59 103 -12 48 -49 76 -101 76 l-45 0 0 218 c0 199 -2
220 -20 250 -13 21 -31 35 -51 39 l-30 6 28 14 c87 42 80 180 -12 219 -40 16
-40 16 -85 1z"/>
<path d="M6843 5373 c-34 -6 -81 -59 -88 -97 -9 -45 16 -101 57 -126 l33 -20
-67 0 c-80 0 -115 -23 -124 -81 -5 -30 -1 -42 23 -69 22 -25 39 -33 76 -37
l47 -6 0 -158 0 -159 -46 0 c-37 0 -51 -5 -74 -29 -27 -27 -30 -27 -35 -10 -4
11 -17 27 -31 35 -23 16 -36 16 -123 -2 -23 -5 -36 -3 -42 7 -5 8 -9 83 -9
167 l0 152 50 0 c60 0 114 20 129 48 6 12 11 36 11 54 -1 62 -39 88 -129 88
l-61 0 0 60 c0 52 -4 64 -29 92 -24 27 -36 33 -71 33 -35 0 -47 -6 -71 -33
-25 -28 -29 -40 -29 -92 l0 -60 -36 0 c-26 0 -43 -8 -63 -28 l-28 -27 -25 27
c-23 25 -32 28 -90 28 l-65 0 -6 60 c-6 75 -26 106 -75 121 -76 22 -132 -35
-132 -136 0 -42 -2 -45 -25 -45 -41 0 -82 -27 -94 -61 -18 -51 11 -100 71
-119 l46 -15 4 -165 c3 -145 6 -171 26 -215 28 -61 46 -82 95 -107 56 -28 124
-33 188 -15 64 19 98 50 105 99 5 28 1 40 -22 67 -25 31 -30 32 -73 27 -25 -4
-59 -7 -76 -9 l-30 -2 -3 161 -2 161 67 6 c59 4 71 9 95 36 24 27 28 28 33 12
6 -21 62 -51 93 -51 20 0 21 -7 24 -177 2 -150 6 -183 22 -213 49 -92 133
-138 233 -126 60 7 127 37 141 63 9 14 11 14 22 -6 22 -41 67 -51 238 -51 171
0 212 8 236 45 43 66 -5 145 -88 145 l-46 0 0 226 0 226 -29 29 c-16 16 -40
29 -53 29 -20 1 -19 2 9 15 61 26 84 126 41 180 -19 25 -76 57 -95 54 -4 -1
-18 -4 -30 -6z"/>
<path d="M465 5356 c-63 -20 -100 -42 -135 -82 -45 -52 -62 -99 -62 -169 0
-126 51 -188 226 -273 130 -64 166 -95 166 -143 0 -59 -62 -88 -155 -72 -48 8
-50 10 -58 49 -10 55 -47 89 -96 89 -73 0 -105 -55 -91 -154 15 -106 49 -137
182 -166 238 -51 420 61 421 260 1 131 -66 213 -243 297 -120 57 -150 81 -150
117 0 45 34 71 92 71 62 0 75 -9 87 -54 14 -58 42 -81 98 -81 37 0 49 5 69 28
50 59 20 208 -51 249 -76 43 -219 60 -300 34z"/>
<path d="M4136 5354 c-96 -31 -155 -88 -181 -178 -19 -62 -19 -80 1 -145 25
-84 76 -131 220 -201 126 -62 164 -94 164 -137 0 -62 -53 -89 -149 -78 l-59 7
-5 40 c-12 88 -105 125 -164 65 -26 -25 -28 -33 -26 -98 4 -110 38 -155 142
-186 77 -24 232 -23 286 0 67 30 104 60 137 111 27 41 32 60 36 127 4 70 2 84
-22 134 -36 72 -89 116 -216 177 -125 59 -150 80 -150 124 0 50 44 72 124 60
40 -6 44 -10 50 -41 4 -19 18 -47 31 -62 19 -23 31 -28 70 -28 74 0 103 48 90
150 -9 77 -38 115 -110 144 -78 31 -199 37 -269 15z"/>
<path d="M2474 5345 c-17 -9 -36 -27 -43 -41 -7 -17 -11 -146 -11 -414 l0
-390 29 -32 29 -33 174 0 c201 0 254 13 324 77 60 55 87 124 82 207 -4 68 -34
145 -69 177 -16 15 -16 18 7 51 91 134 34 314 -121 385 -44 20 -69 23 -210 25
-131 3 -166 1 -191 -12z m329 -195 c33 -26 43 -70 23 -108 -20 -38 -31 -42
-127 -42 l-79 0 0 85 0 85 79 0 c63 0 83 -4 104 -20z m28 -369 c37 -38 39 -88
5 -128 -23 -26 -29 -28 -120 -31 l-96 -4 0 96 0 96 91 0 c87 0 92 -1 120 -29z"/>
<path d="M8050 5353 c-55 -20 -81 -83 -55 -133 21 -40 68 -60 145 -60 l60 0 0
-319 c0 -207 4 -329 11 -350 22 -64 110 -81 160 -32 l29 29 0 299 c0 164 3
315 6 336 l7 37 61 0 c80 0 127 23 142 70 15 46 1 86 -40 111 -28 17 -52 19
-271 18 -132 0 -247 -3 -255 -6z"/>
<path d="M1750 5131 c-143 -47 -219 -185 -208 -381 14 -234 176 -364 400 -320
86 17 135 44 155 85 15 32 15 38 1 68 -24 51 -66 64 -132 44 -77 -25 -149 -22
-180 6 -14 12 -28 34 -32 50 l-6 27 158 0 c109 1 164 4 175 13 28 21 39 54 39
115 0 119 -50 218 -136 268 -39 23 -61 28 -128 31 -45 1 -92 -1 -106 -6z m145
-196 c46 -45 35 -55 -60 -55 l-86 0 16 30 c29 55 89 67 130 25z"/>
<path d="M3286 5124 c-130 -48 -208 -200 -193 -380 21 -242 185 -362 423 -309
62 14 85 24 111 50 39 39 43 79 13 118 -27 34 -65 41 -125 22 -58 -17 -138
-20 -166 -5 -19 10 -49 59 -49 80 0 6 54 10 158 10 177 0 192 5 212 66 23 69
-11 208 -67 273 -52 62 -120 91 -208 90 -38 0 -88 -7 -109 -15z m156 -184 c14
-11 28 -29 31 -40 5 -19 1 -20 -85 -20 l-90 0 18 28 c36 56 82 68 126 32z"/>
<path d="M4633 5121 c-18 -12 -34 -26 -34 -33 -1 -7 0 -197 1 -423 2 -458 2
-456 68 -475 85 -26 132 29 132 155 l0 80 83 1 c100 0 169 27 223 86 150 166
110 512 -70 605 -17 9 -63 18 -101 21 -58 4 -80 0 -123 -18 -49 -21 -54 -21
-70 -6 -30 26 -73 29 -109 7z m321 -191 c58 -69 53 -263 -7 -305 -23 -16 -113
-20 -135 -7 -9 7 -12 45 -10 157 l3 148 35 18 c51 28 84 24 114 -11z"/>
<path d="M7208 5125 c-15 -9 -31 -23 -36 -33 -5 -9 -7 -150 -4 -312 l5 -294
28 -28 c29 -30 82 -38 120 -18 43 24 49 57 49 274 l0 206 40 20 c41 21 76 25
98 12 24 -16 32 -79 32 -270 l0 -194 29 -29 c51 -51 133 -36 160 30 20 47 10
465 -12 512 -43 96 -126 144 -236 137 -40 -2 -83 -12 -108 -24 -40 -20 -42
-20 -60 -3 -25 26 -73 32 -105 14z"/>
<path d="M9477 5126 c-138 -50 -214 -185 -205 -370 5 -117 39 -197 109 -260
50 -45 131 -76 199 -76 68 0 149 31 199 76 70 63 104 143 109 260 9 186 -66
320 -205 370 -49 17 -157 17 -206 0z m152 -182 c58 -41 81 -185 42 -271 -22
-47 -45 -63 -91 -63 -46 0 -69 16 -91 63 -52 117 1 287 91 287 14 0 36 -7 49
-16z"/>
<path d="M10002 5125 c-54 -24 -62 -58 -62 -268 0 -101 5 -209 10 -238 24
-127 106 -194 235 -194 49 0 83 7 116 21 44 21 46 21 68 3 35 -28 92 -25 124
7 30 30 35 52 25 114 -4 25 -7 145 -7 267 -1 144 -5 231 -12 247 -7 14 -27 32
-46 41 -45 22 -97 6 -124 -39 -17 -28 -19 -52 -19 -239 l0 -208 -35 -15 c-46
-19 -99 -18 -116 3 -11 12 -15 66 -17 227 -2 128 -7 220 -14 233 -10 20 -64
54 -85 53 -4 -1 -23 -7 -41 -15z"/>
<path d="M3077 4258 c-22 -34 -40 -123 -32 -157 10 -46 74 -55 90 -13 20 53
32 142 21 164 -16 33 -60 36 -79 6z"/>
<path d="M4402 4247 c-18 -21 -36 -101 -29 -129 8 -31 38 -44 65 -29 18 10 52
91 52 124 0 36 -66 61 -88 34z"/>
<path d="M5067 4246 c-8 -8 -20 -36 -27 -62 -11 -40 -11 -51 1 -73 18 -31 50
-38 70 -15 17 21 39 82 39 111 0 44 -53 69 -83 39z"/>
<path d="M8961 4242 c-20 -15 -24 -34 -35 -162 -8 -90 -16 -137 -20 -125 -4
11 -13 32 -18 48 -15 39 -64 77 -99 77 -38 0 -85 -24 -100 -51 -15 -30 -3 -68
25 -75 l23 -5 -26 -27 c-32 -33 -41 -24 -41 45 0 92 -38 135 -93 107 -21 -11
-32 -12 -48 -3 -37 19 -67 3 -80 -43 l-11 -43 -14 26 c-17 33 -75 62 -108 53
-46 -11 -103 -85 -120 -156 l-6 -27 -50 21 c-28 11 -50 27 -50 34 0 22 62 86
77 80 8 -3 25 5 39 19 21 22 23 28 13 47 -32 61 -83 64 -142 9 -38 -36 -44
-38 -62 -25 -35 26 -81 17 -125 -22 -35 -32 -40 -34 -40 -16 0 23 -35 52 -61
52 -32 0 -51 -35 -44 -82 7 -44 6 -45 -23 -45 -20 0 -40 -11 -66 -36 -49 -49
-92 -72 -99 -53 -4 9 5 18 23 25 48 16 120 89 120 121 0 34 -17 49 -64 57 -46
7 -114 -18 -151 -56 l-27 -30 -26 31 c-33 38 -104 72 -135 62 -43 -13 -56 -34
-56 -88 0 -28 -5 -96 -10 -151 -6 -55 -11 -146 -11 -201 0 -88 3 -105 21 -128
24 -30 49 -33 72 -8 14 15 17 40 17 130 l0 111 53 50 c45 44 53 48 62 35 61
-100 136 -108 241 -28 24 19 46 34 49 34 3 0 5 -13 5 -30 0 -31 30 -70 53 -70
27 0 56 32 63 68 4 20 13 50 21 65 17 34 82 107 94 107 5 0 9 -16 9 -35 0 -48
24 -91 61 -111 31 -15 31 -16 10 -30 -30 -21 -28 -69 3 -90 23 -14 28 -14 68
4 24 10 54 30 67 44 l25 26 27 -21 c50 -36 128 -9 176 62 l22 32 3 -48 c2 -39
7 -50 27 -59 36 -18 63 -3 80 47 l16 44 5 -44 c7 -57 45 -91 85 -73 14 6 25
19 25 27 0 14 3 14 25 -1 18 -12 36 -15 63 -10 20 4 50 9 67 12 40 6 47 15 61
81 l12 58 1 -71 c1 -76 17 -104 58 -104 41 0 53 30 53 131 0 52 7 148 15 214
19 156 19 161 -7 185 -27 25 -39 25 -67 2z m-171 -280 c0 -5 -7 -9 -15 -9 -8
0 -12 4 -9 9 3 4 9 8 15 8 5 0 9 -4 9 -8z m-465 -78 c-25 -38 -31 -20 -9 28
16 36 19 39 22 20 2 -13 -4 -35 -13 -48z"/>
<path d="M9546 4247 c-20 -15 -35 -73 -36 -137 0 -25 -3 -61 -6 -81 l-6 -35
-29 27 c-16 15 -42 30 -57 33 -26 6 -27 8 -24 69 3 52 0 66 -18 85 -26 27 -44
28 -70 2 -16 -16 -20 -33 -20 -80 0 -34 -6 -73 -13 -88 -9 -17 -15 -69 -16
-137 -2 -106 -1 -111 25 -143 40 -48 69 -43 130 21 28 28 58 63 68 77 16 24
16 23 16 -41 0 -74 18 -109 55 -109 38 0 55 26 56 83 1 49 1 50 10 20 11 -37
52 -73 85 -73 32 0 75 18 101 42 l21 20 7 -22 c4 -12 18 -23 34 -26 l26 -6
-39 -41 c-73 -77 -94 -162 -56 -225 42 -69 125 -90 200 -52 67 34 119 123 135
233 7 48 8 49 39 43 99 -20 144 -9 203 46 30 29 31 29 38 9 17 -55 105 -27
105 33 0 55 -52 85 -90 51 -16 -14 -19 -13 -34 11 -10 14 -40 35 -67 46 -27
11 -49 27 -49 34 0 20 61 86 75 80 21 -8 55 23 55 49 0 31 -36 65 -69 65 -59
0 -158 -107 -168 -180 -7 -51 12 -97 49 -120 l29 -17 -76 1 c-86 2 -115 18
-96 54 6 11 11 32 11 45 0 19 7 26 29 30 34 7 55 38 46 68 -10 31 -49 41 -125
30 -36 -5 -78 -7 -91 -4 -29 5 -49 -13 -53 -49 -1 -13 -6 -31 -11 -41 -6 -15
-12 -9 -29 34 -16 38 -30 57 -56 71 -62 33 -115 5 -160 -85 -16 -33 -30 -58
-30 -56 0 2 7 60 15 129 19 162 19 176 -5 200 -23 23 -39 25 -64 7z m-156
-311 c0 -7 -7 -19 -15 -26 -13 -11 -15 -8 -15 14 0 16 5 26 15 26 8 0 15 -6
15 -14z m344 -54 c-24 -37 -29 -11 -7 35 16 34 18 35 21 15 2 -13 -4 -35 -14
-50z m280 -229 c-18 -79 -79 -148 -112 -127 -28 18 -25 49 7 87 27 30 82 66
104 67 4 0 5 -12 1 -27z"/>
<path d="M420 4243 c-14 -2 -41 -9 -60 -15 -19 -6 -48 -11 -65 -10 -39 2 -48
-5 -73 -52 -15 -28 -18 -44 -12 -62 5 -13 10 -79 11 -146 2 -140 13 -182 53
-192 15 -4 31 -4 36 -1 6 4 10 -1 10 -9 0 -22 29 -46 56 -46 38 0 120 46 165
92 22 22 41 39 43 37 2 -2 11 -19 20 -36 19 -37 62 -63 104 -63 15 0 59 18 96
41 37 22 68 39 69 37 17 -34 29 -46 60 -61 49 -25 99 -16 194 34 l73 38 0 -25
c0 -14 12 -37 26 -51 22 -22 31 -25 67 -19 23 4 56 9 72 12 36 5 54 26 61 76
7 42 19 42 29 -1 6 -30 40 -67 65 -72 37 -7 69 12 89 54 12 24 21 51 21 59 0
12 7 9 28 -11 15 -15 34 -30 42 -33 13 -4 12 -8 -2 -25 -26 -28 -23 -69 6 -88
22 -15 28 -15 63 0 21 9 52 30 69 46 l31 30 34 -20 c19 -12 45 -21 60 -21 36
0 117 43 167 89 49 46 57 89 20 115 -30 21 -32 21 -75 -17 -70 -61 -104 -81
-113 -66 -6 9 0 17 21 26 79 33 139 105 119 143 -50 93 -241 13 -257 -109 l-5
-39 -49 20 c-31 13 -49 27 -49 37 0 21 65 85 78 78 16 -10 52 23 52 48 0 29
-22 53 -58 62 -35 8 -88 -22 -129 -76 -28 -36 -32 -38 -38 -21 -13 42 -77 37
-94 -8 -8 -22 -10 -23 -10 -7 -1 32 -30 65 -55 65 -31 0 -56 -30 -56 -66 l0
-29 -17 33 c-18 37 -58 62 -100 62 -36 0 -89 -33 -98 -60 -8 -26 18 -70 43
-70 16 -1 16 -1 0 -10 -11 -7 -25 -6 -41 1 -22 10 -33 7 -84 -24 -57 -35 -127
-67 -144 -67 -5 0 0 18 11 40 13 26 32 45 54 54 61 26 73 96 20 116 -37 14
-83 -9 -134 -68 -35 -41 -47 -49 -61 -41 -25 13 -23 14 -79 -36 -66 -59 -85
-68 -99 -51 -9 11 -7 15 12 20 38 9 113 72 127 107 13 30 12 33 -14 55 -18 16
-40 24 -63 24 -44 0 -116 -33 -141 -65 l-19 -23 -26 27 c-14 16 -39 34 -56 41
l-30 12 30 40 c28 40 38 90 21 114 -19 29 -59 38 -122 27z m-60 -137 c0 -2 -7
-7 -16 -10 -8 -3 -12 -2 -9 4 6 10 25 14 25 6z m960 -146 c0 -5 -7 -10 -16
-10 -8 0 -12 5 -9 10 3 6 10 10 16 10 5 0 9 -4 9 -10z m-877 -7 c21 -3 41 -12
44 -20 10 -24 -44 -82 -89 -93 -50 -14 -58 -6 -58 62 0 58 16 66 103 51z"/>
<path d="M3922 4214 c-19 -13 -22 -24 -22 -80 0 -36 -6 -77 -13 -92 -9 -17
-15 -69 -16 -137 -2 -106 -1 -111 25 -143 44 -52 70 -45 149 40 l67 72 -7 -46
c-6 -42 -4 -50 18 -72 15 -14 33 -26 41 -26 21 0 56 49 56 79 0 49 88 161 127
161 22 0 23 -2 23 -93 0 -78 3 -97 18 -110 24 -22 69 -22 80 1 5 9 12 72 15
140 6 113 4 125 -13 142 -22 22 -50 26 -66 10 -8 -8 -15 -6 -24 5 -24 29 -105
12 -139 -29 -17 -20 -31 -20 -31 -1 0 8 -11 22 -25 31 -31 20 -69 8 -80 -25
-6 -20 -6 -20 -43 -1 -20 11 -42 20 -47 20 -7 0 -10 20 -7 58 3 47 0 62 -18
85 -25 31 -37 33 -68 11z m88 -278 c0 -7 -7 -19 -15 -26 -13 -11 -15 -8 -15
14 0 16 5 26 15 26 8 0 15 -6 15 -14z"/>
<path d="M5947 4212 c-11 -12 -17 -37 -17 -73 -1 -30 -7 -72 -15 -94 -22 -60
-20 -243 2 -275 41 -60 71 -55 146 22 33 34 57 54 54 44 -10 -25 18 -84 47
-97 15 -7 38 -9 63 -3 21 4 49 8 61 9 13 0 32 11 41 24 15 20 19 21 30 7 41
-49 135 -40 245 24 l66 39 0 -54 c0 -60 16 -85 55 -85 34 0 55 26 55 69 l0 38
59 -30 c100 -49 211 -32 236 37 8 25 6 31 -18 52 -26 22 -30 23 -57 9 -16 -8
-41 -15 -56 -15 -33 0 -120 49 -107 60 4 5 40 18 79 29 56 16 73 26 82 47 14
29 2 59 -26 68 -10 3 -51 -3 -91 -14 -40 -12 -76 -18 -79 -15 -3 3 -1 26 6 50
18 68 15 92 -13 111 -30 20 -58 11 -74 -23 -15 -33 -41 -155 -41 -194 0 -20
-5 -29 -16 -29 -9 0 -42 -15 -73 -34 -56 -34 -125 -66 -142 -66 -5 0 0 18 11
40 13 26 32 45 54 54 61 26 73 96 20 116 -36 14 -82 -8 -131 -64 -22 -25 -43
-46 -46 -46 -2 0 -8 15 -11 33 -11 55 -59 97 -111 97 -31 0 -81 -24 -93 -45
-7 -14 -14 -13 -59 7 l-51 23 5 55 c4 46 2 60 -17 83 -25 31 -50 35 -73 9z
m293 -250 c0 -5 -7 -9 -15 -9 -8 0 -12 4 -9 9 3 4 9 8 15 8 5 0 9 -4 9 -8z
m-200 -20 c0 -5 -7 -17 -15 -28 -14 -18 -14 -18 -15 9 0 17 5 27 15 27 8 0 15
-4 15 -8z m149 5 c-2 -1 -12 -9 -22 -16 -15 -12 -17 -12 -11 3 3 9 13 16 22
16 8 0 13 -1 11 -3z"/>
<path d="M4637 4074 c-21 -11 -32 -12 -48 -3 -11 6 -32 8 -45 5 -34 -9 -45
-63 -42 -203 3 -113 4 -118 27 -129 38 -19 64 -3 83 52 l16 49 1 -47 c1 -38 6
-50 27 -67 33 -26 49 -26 74 -1 11 11 27 20 36 20 11 0 0 -18 -34 -53 -46 -49
-72 -103 -72 -147 0 -8 9 -34 20 -57 48 -106 179 -111 265 -11 37 44 75 142
75 195 0 27 4 33 21 33 11 0 29 -5 40 -11 30 -15 78 -1 91 27 8 17 15 21 27
15 28 -15 58 5 74 51 13 36 16 39 16 16 1 -43 19 -77 46 -90 22 -10 30 -8 55
10 49 37 57 25 13 -20 -53 -55 -73 -97 -73 -150 0 -125 123 -188 232 -119 57
36 109 133 116 217 5 59 13 64 68 44 66 -26 122 42 71 85 -28 25 -100 40 -142
29 -37 -9 -69 24 -49 51 8 10 14 31 14 45 0 20 7 28 32 35 45 14 55 49 23 81
-24 23 -30 25 -83 18 -31 -4 -76 -7 -100 -7 -35 1 -45 -3 -58 -23 -9 -13 -14
-30 -11 -37 2 -7 -5 -25 -18 -41 l-22 -28 -6 62 c-6 75 -27 110 -65 110 -16 0
-34 -6 -40 -12 -10 -10 -17 -10 -32 0 -11 6 -29 12 -40 12 -37 0 -50 -40 -57
-171 -5 -90 -9 -116 -15 -98 -5 13 -6 66 -2 116 5 77 4 97 -10 118 -20 30 -49
32 -76 5 -16 -16 -24 -18 -47 -9 -18 7 -48 7 -92 0 -37 -6 -76 -8 -87 -5 -26
7 -54 -19 -54 -49 0 -12 -8 -35 -19 -50 l-18 -28 -7 32 c-3 17 -6 42 -6 55 0
63 -46 102 -93 78z m396 -181 c-2 -32 -6 -64 -9 -70 -5 -18 -34 -16 -55 3 -16
14 -16 19 -3 51 9 19 13 41 10 49 -3 8 5 14 22 17 15 2 30 5 34 6 4 0 4 -25 1
-56z m-123 -229 c0 -8 -9 -37 -21 -64 -30 -70 -81 -99 -110 -64 -19 23 16 81
70 116 51 32 61 34 61 12z m660 -7 c0 -36 -42 -110 -72 -127 -24 -13 -29 -13
-47 4 -18 17 -19 21 -7 45 21 39 92 100 119 101 4 0 7 -10 7 -23z"/>
<path d="M2725 4058 c-9 -13 -34 -50 -57 -82 l-42 -60 -11 59 c-18 88 -63 110
-114 56 l-27 -29 -21 24 c-25 28 -55 31 -77 8 -13 -12 -16 -38 -16 -118 0
-122 12 -163 48 -173 37 -9 53 5 88 76 l30 63 13 -56 c15 -68 33 -88 75 -84
26 3 39 15 81 76 l49 73 13 -43 c15 -54 59 -97 106 -105 47 -7 110 23 178 87
46 43 51 52 45 77 -9 33 -14 39 -43 48 -17 4 -29 0 -45 -18 -45 -47 -111 -88
-122 -76 -8 8 -7 13 2 16 28 11 107 70 125 95 41 56 -10 107 -94 94 -23 -4
-51 -13 -62 -21 -18 -13 -23 -12 -43 10 -29 31 -58 32 -79 3z"/>
<path d="M3145 4067 c-16 -12 -18 -29 -17 -158 1 -135 2 -145 22 -161 12 -10
28 -18 36 -18 24 0 54 38 54 68 0 43 86 172 115 172 9 0 10 -10 2 -39 -21 -79
33 -176 105 -188 48 -7 116 25 180 87 53 51 60 78 28 110 -27 27 -46 25 -76
-7 -33 -35 -105 -83 -116 -77 -15 9 -8 23 15 30 29 8 104 70 118 96 24 44 -15
88 -79 88 -15 0 -45 -9 -67 -18 -40 -18 -40 -18 -58 5 -29 37 -90 29 -143 -18
-20 -19 -21 -19 -42 11 -24 33 -48 38 -77 17z"/>
<path d="M8006 3024 c-9 -8 -16 -31 -16 -49 0 -36 -13 -44 -61 -37 -20 3 -25
8 -22 23 7 25 -23 69 -47 69 -28 0 -49 -27 -56 -71 -5 -31 -10 -38 -24 -34 -9
3 -44 1 -78 -3 -39 -6 -65 -5 -71 1 -11 11 -79 20 -133 17 -7 -1 -40 0 -73 0
-33 1 -88 0 -122 -2 l-63 -4 0 28 c0 29 -30 68 -52 68 -38 -1 -53 -43 -65
-187 -4 -57 -2 -64 21 -88 28 -28 58 -32 76 -10 10 12 15 12 36 -1 35 -24 73
-11 81 26 8 40 19 46 27 14 4 -16 19 -30 39 -39 27 -11 37 -11 70 2 29 12 41
13 50 4 6 -6 23 -11 37 -11 l27 0 -21 -44 c-17 -37 -23 -43 -37 -35 -28 14
-102 11 -127 -7 -31 -22 -30 -69 3 -90 23 -15 25 -22 25 -102 0 -47 -4 -82 -8
-76 -5 5 -22 55 -38 112 -30 108 -48 138 -89 148 -32 8 -82 -12 -96 -38 -16
-30 -81 -259 -81 -286 -1 -30 29 -62 59 -62 26 0 63 32 63 55 0 10 10 15 30
15 23 0 33 -6 39 -23 16 -41 30 -45 151 -42 127 4 149 4 215 4 25 0 53 0 63 0
9 1 36 -2 59 -5 36 -5 45 -3 65 19 l23 25 28 -24 c24 -21 37 -23 110 -23 98 1
117 13 118 73 l1 41 13 -30 c20 -43 18 -59 -7 -70 -16 -7 -24 -20 -26 -41 -4
-42 19 -64 69 -64 52 0 92 37 124 115 14 33 25 51 25 39 1 -72 162 -93 226
-29 30 30 33 92 6 121 -18 18 -18 20 1 45 16 22 17 30 7 49 -24 44 -114 63
-175 36 -25 -11 -34 -10 -53 2 -33 22 -68 2 -90 -49 l-18 -42 -13 42 c-16 56
-49 72 -95 47 -29 -15 -34 -16 -61 -2 -37 20 -95 20 -140 2 -29 -13 -35 -13
-46 0 -22 27 -89 7 -89 -27 0 -5 -20 -6 -45 -2 -28 3 -50 1 -59 -6 -11 -9 -15
-6 -18 14 -4 20 -1 26 18 31 33 8 81 66 94 113 8 31 14 38 29 34 27 -7 60 14
67 43 5 21 8 22 18 9 14 -19 134 -29 153 -13 7 6 13 31 13 59 0 46 2 50 34 63
41 17 52 50 25 77 -10 10 -23 19 -29 19 -5 0 -10 8 -10 18 0 26 -29 62 -50 62
-10 0 -26 -7 -34 -16z m52 -56 c3 -32 7 -37 30 -40 39 -4 35 -32 -4 -36 -34
-3 -44 -25 -44 -99 0 -27 -4 -34 -17 -31 -14 3 -18 14 -18 55 0 46 -2 50 -22
49 -21 -1 -23 -6 -23 -49 0 -41 -3 -48 -17 -45 -14 2 -19 15 -21 51 -2 26 -7
47 -12 47 -16 0 -40 -46 -48 -91 l-8 -44 -42 3 c-38 2 -42 0 -42 -20 -1 -35
-35 -103 -61 -122 -49 -34 -129 -4 -129 49 0 37 40 84 95 111 30 14 29 14 -19
8 l-49 -7 7 29 c4 16 14 45 24 65 16 35 20 37 76 44 59 6 85 -2 72 -24 -4 -6
-15 -11 -25 -11 -13 0 -20 -10 -24 -32 -6 -43 5 -55 46 -50 33 4 35 6 41 55 3
29 6 72 6 97 0 53 12 75 34 67 14 -6 16 -16 10 -58 -7 -50 -6 -51 14 -40 25
14 62 14 62 1 0 -5 16 0 35 11 31 18 35 26 35 61 0 32 3 39 18 36 12 -2 18
-14 20 -40z m-850 -16 c2 -27 8 -42 17 -42 7 0 20 -7 28 -15 13 -12 16 -12 20
6 7 26 31 20 35 -10 l3 -22 31 26 c31 27 58 30 65 8 3 -7 -7 -17 -20 -22 -28
-11 -73 -66 -79 -96 -6 -36 -33 -23 -36 18 l-3 38 -39 -43 c-33 -36 -41 -41
-57 -32 -15 9 -18 23 -17 75 2 104 14 160 33 157 11 -2 17 -16 19 -46z m281
-51 c19 -19 19 -19 24 1 9 35 32 14 37 -35 7 -60 17 -68 25 -21 10 57 14 66
28 61 19 -7 14 -93 -8 -117 -26 -29 -55 -26 -68 9 l-11 29 -27 -29 c-28 -30
-66 -38 -87 -17 -23 23 -14 77 17 109 35 34 44 36 70 10z m297 -88 c-10 -10
-19 5 -10 18 6 11 8 11 12 0 2 -7 1 -15 -2 -18z m-272 -179 c14 -5 16 -28 16
-145 0 -129 1 -139 19 -139 28 0 47 -26 31 -45 -18 -22 -158 -21 -166 0 -6 14
-8 14 -18 -1 -19 -26 -50 -13 -62 26 -11 33 -14 35 -61 38 -48 3 -50 2 -59
-29 -12 -43 -38 -59 -59 -38 -15 15 -13 28 24 155 41 141 54 164 97 164 32 0
50 -22 68 -83 56 -198 60 -207 70 -197 5 5 18 10 28 10 16 0 18 11 18 115 0
109 -1 115 -20 115 -23 0 -35 22 -26 45 6 15 69 21 100 9z m66 -94 l-20 -20 0
42 0 42 20 -22 20 -22 -20 -20z m69 -27 c5 -10 12 -44 16 -76 4 -32 9 -56 12
-54 2 3 9 27 16 53 10 39 17 50 35 52 33 5 50 -14 58 -64 3 -25 9 -43 12 -40
2 3 10 33 16 67 12 69 35 94 61 68 14 -13 13 -24 -4 -107 -10 -50 -24 -99 -31
-107 -27 -32 -90 -5 -90 39 0 41 -17 49 -23 11 -3 -20 -11 -43 -18 -51 -15
-18 -54 -18 -72 0 -17 17 -52 188 -43 211 7 20 43 19 55 -2z m423 3 c27 -20
38 -61 38 -142 0 -80 -13 -99 -50 -76 -10 6 -22 7 -31 1 -23 -14 -81 -10 -101
8 -11 10 -18 30 -18 54 0 47 27 69 87 69 31 0 43 4 43 14 0 22 -19 30 -67 27
-50 -2 -70 22 -38 45 24 18 114 18 137 0z m148 -71 l27 -80 24 74 c28 83 49
105 75 79 15 -15 13 -25 -27 -138 -51 -142 -79 -180 -133 -180 -31 0 -36 3
-36 24 0 18 8 27 30 35 17 5 30 14 30 20 0 5 -16 51 -35 101 -46 120 -46 155
-1 148 15 -2 26 -23 46 -83z m327 62 c13 -13 14 -19 4 -30 -9 -12 -20 -13 -52
-4 -29 7 -43 7 -52 -2 -14 -14 -2 -25 46 -41 48 -15 67 -35 67 -70 0 -47 -34
-70 -100 -70 -63 0 -97 17 -87 45 6 15 15 16 61 11 82 -11 85 17 4 43 -68 22
-86 74 -42 118 23 23 32 25 80 21 32 -3 62 -12 71 -21z m-973 -89 c4 -24 3
-38 -4 -38 -5 0 -10 19 -10 42 0 49 5 47 14 -4z m795 -39 c-16 -10 -23 -4 -14
10 3 6 11 8 17 5 6 -4 5 -9 -3 -15z"/>
<path d="M7675 2829 c-11 -17 1 -21 15 -4 8 9 8 15 2 15 -6 0 -14 -5 -17 -11z"/>
<path d="M7683 2711 c-17 -11 -38 -30 -47 -42 -14 -21 -14 -25 -1 -38 22 -22
63 1 81 45 19 46 7 59 -33 35z"/>
<path d="M7190 2845 c0 -30 15 -33 30 -6 14 27 13 31 -10 31 -15 0 -20 -7 -20
-25z"/>
<path d="M7442 2858 c-15 -15 -16 -51 0 -46 6 2 16 12 22 21 14 22 -4 43 -22
25z"/>
<path d="M7262 2515 c-27 -101 -28 -95 12 -95 20 0 36 1 36 3 -1 1 -9 31 -19
67 l-18 65 -11 -40z"/>
<path d="M7983 2383 c-18 -7 -16 -30 3 -37 20 -8 54 11 54 29 0 15 -31 19 -57
8z"/>
<path d="M8266 3024 c-9 -8 -16 -31 -16 -50 0 -23 -5 -34 -14 -34 -8 0 -24
-12 -35 -26 -16 -21 -18 -30 -9 -50 6 -13 17 -24 25 -24 8 0 13 -13 13 -38 0
-59 57 -96 89 -58 10 12 16 12 37 1 58 -30 134 30 134 106 0 45 -32 89 -65 89
-39 0 -73 21 -80 49 -13 51 -48 67 -79 35z m49 -54 c0 -31 3 -36 30 -40 17 -3
29 -11 27 -18 -2 -10 2 -10 19 -2 16 9 26 8 45 -5 52 -34 17 -135 -47 -135
-45 0 -59 43 -34 103 6 13 2 17 -18 17 -30 0 -37 -16 -37 -82 0 -42 -3 -49
-17 -46 -14 2 -19 15 -21 56 -2 41 -6 52 -17 48 -7 -2 -19 1 -25 9 -9 11 -5
17 17 32 37 24 43 32 43 71 0 26 4 33 18 30 12 -2 17 -13 17 -38z"/>
<path d="M8389 2849 c-7 -14 -8 -24 -1 -31 15 -15 32 0 32 28 0 30 -15 31 -31
3z"/>
<path d="M9102 3018 c-12 -16 -21 -68 -28 -166 -6 -67 -4 -75 17 -98 26 -28
46 -30 76 -9 16 11 28 13 46 6 14 -5 28 -7 32 -3 4 4 5 -25 2 -65 -5 -60 -3
-74 12 -87 10 -9 25 -16 34 -16 22 0 60 38 54 54 -3 7 1 60 8 118 18 147 7
186 -50 176 -14 -3 -30 1 -36 8 -13 16 -45 18 -54 4 -11 -17 -25 -11 -25 11 0
57 -59 102 -88 67z m54 -43 c3 -14 3 -32 0 -40 -3 -10 1 -18 12 -22 9 -3 25
-13 35 -21 15 -13 17 -13 17 1 0 9 5 19 10 22 18 11 37 -14 33 -43 l-4 -27 21
28 c24 30 45 35 54 12 3 -8 1 -52 -5 -97 -6 -46 -11 -103 -13 -128 -2 -37 -6
-45 -22 -45 -21 0 -21 -1 -10 130 l7 79 -25 -23 c-29 -27 -56 -22 -56 11 0 20
-3 19 -40 -17 -34 -33 -41 -37 -56 -24 -14 11 -15 25 -10 89 7 70 13 132 15
138 1 1 8 2 16 2 8 0 17 -11 21 -25z"/>
<path d="M9140 2848 c0 -30 0 -31 20 -13 11 10 20 21 20 25 0 4 -9 10 -20 13
-17 4 -20 0 -20 -25z"/>
<path d="M8597 2932 c-22 -24 -34 -131 -18 -160 7 -14 21 -22 38 -22 26 0 26
0 20 -60 -8 -73 8 -136 41 -157 19 -13 22 -24 22 -80 0 -58 -3 -67 -25 -85
-32 -25 -34 -71 -3 -92 26 -18 158 -22 188 -6 13 7 21 7 25 0 3 -5 22 -10 40
-10 26 0 39 6 51 25 l17 26 11 -23 c15 -30 76 -37 97 -12 8 10 17 50 20 93 l6
76 1 -77 c2 -55 7 -81 18 -92 19 -20 69 -21 86 -2 11 11 16 11 35 -1 12 -8 36
-14 55 -14 115 0 138 2 150 14 11 12 16 12 26 0 17 -18 67 -17 86 3 12 11 16
36 16 90 0 43 4 74 10 74 6 0 10 -31 10 -74 0 -51 5 -79 14 -89 10 -10 48 -14
147 -15 74 -1 139 2 145 6 36 24 33 89 -5 99 -16 4 -20 17 -25 81 -3 43 -6 98
-6 124 0 38 -4 50 -26 67 -33 26 -45 26 -79 0 -22 -18 -26 -28 -23 -55 2 -19
1 -34 -3 -34 -4 0 -15 -7 -24 -16 -15 -15 -17 -15 -36 2 -19 17 -66 22 -119
13 -8 -1 -25 1 -37 5 -17 5 -29 1 -49 -19 l-26 -26 -22 20 c-42 39 -148 39
-187 0 l-21 -21 -22 21 c-28 27 -77 36 -115 23 -22 -8 -39 -7 -61 1 -21 8 -38
8 -58 1 -18 -7 -35 -7 -50 -1 -16 7 -28 5 -47 -7 -23 -15 -25 -22 -25 -96 0
-66 -2 -78 -15 -74 -11 5 -15 23 -15 71 0 59 3 67 30 93 35 33 38 52 10 80
-16 16 -33 20 -81 20 l-62 0 7 38 c3 20 6 43 6 51 0 8 6 11 16 7 8 -3 31 1 50
9 26 11 41 12 55 4 34 -18 72 -7 95 28 23 35 38 102 28 128 -9 22 -45 35 -65
24 -11 -6 -21 -4 -28 5 -13 15 -107 14 -139 -2 -23 -11 -72 -8 -99 6 -29 16
-37 15 -56 -6z m47 -57 l-2 -38 19 24 c10 13 19 27 19 32 0 4 9 7 20 7 15 0
20 -7 20 -27 l0 -28 19 31 c26 42 57 49 87 19 l24 -24 0 24 c0 14 4 25 8 25
18 0 32 -26 32 -62 0 -51 14 -48 26 5 13 59 40 58 37 -1 -4 -91 -61 -121 -95
-52 -10 19 -18 27 -18 18 0 -49 -93 -79 -109 -35 -9 24 -10 19 -27 -104 -4
-29 -13 -50 -25 -57 -18 -12 -19 -9 -14 60 3 40 8 86 11 102 l4 30 -23 -22
c-39 -36 -57 -29 -57 22 0 54 16 99 33 93 7 -2 11 -20 11 -42z m1204 -257 c28
-28 1 -75 -38 -63 -33 11 -21 75 15 75 6 0 16 -5 23 -12z m-992 -23 c8 -20
-13 -45 -37 -45 -17 0 -19 -9 -19 -100 0 -99 0 -100 24 -100 28 0 42 -26 25
-47 -9 -10 -32 -13 -88 -11 -74 3 -76 4 -76 28 0 18 6 26 23 28 21 3 22 7 22
103 0 93 -1 99 -20 99 -23 0 -35 22 -26 45 8 22 164 22 172 0z m80 -75 c6 -6
21 -6 42 2 25 10 39 10 66 0 26 -10 41 -10 55 -3 31 17 66 13 95 -10 26 -20
27 -23 24 -118 -3 -95 -3 -96 -28 -96 -24 0 -25 3 -28 65 -3 100 -8 112 -40
108 -27 -3 -27 -4 -32 -88 -5 -80 -6 -85 -29 -88 -34 -5 -41 12 -41 101 l0 78
-27 -3 c-27 -3 -28 -5 -31 -68 -3 -100 -8 -112 -40 -108 l-27 3 -3 104 c-1 58
0 111 2 118 6 15 28 17 42 3z m491 -14 c26 -23 28 -30 31 -115 4 -79 2 -92
-13 -98 -10 -3 -26 -1 -36 5 -11 7 -20 8 -24 2 -3 -6 -25 -10 -49 -10 -52 0
-79 25 -79 72 0 43 33 68 90 68 37 0 44 3 41 18 -3 13 -14 17 -49 18 -51 1
-69 9 -69 28 0 19 39 35 87 35 31 1 49 -6 70 -23z m130 13 c8 -8 17 -8 31 0
34 18 71 13 98 -14 23 -23 25 -30 22 -117 l-3 -93 -27 -3 -28 -3 0 75 c0 89
-5 106 -34 106 -39 0 -45 -13 -48 -95 -3 -78 -4 -80 -28 -80 -25 0 -25 1 -31
105 -6 103 -1 130 25 130 7 0 17 -5 23 -11z m311 -86 c2 -73 5 -83 21 -83 24
0 43 -23 35 -44 -9 -24 -169 -24 -178 0 -8 21 11 44 35 44 17 0 19 8 19 60 0
57 -1 60 -25 60 -20 0 -25 5 -25 25 0 25 2 26 58 23 l57 -3 3 -82z m-598 13
c0 -3 -4 -8 -10 -11 -5 -3 -10 -1 -10 4 0 6 5 11 10 11 6 0 10 -2 10 -4z m498
-39 c-5 -48 -28 -46 -28 2 0 32 3 39 16 34 10 -4 14 -16 12 -36z"/>
<path d="M8772 2845 c-8 -18 -8 -26 0 -31 14 -9 38 24 31 42 -8 21 -18 17 -31
-11z"/>
<path d="M9325 2370 c-9 -14 3 -30 24 -30 18 0 41 18 41 32 0 12 -58 10 -65
-2z"/>
<path d="M6665 2640 c-34 -13 -41 -29 -85 -178 l-42 -144 19 -26 c11 -15 32
-28 46 -30 30 -4 67 28 67 58 0 15 7 20 28 20 20 0 31 -8 42 -32 21 -44 42
-55 80 -41 22 8 39 9 61 1 17 -6 53 -8 82 -5 41 3 56 10 79 36 34 38 37 87 8
118 -17 18 -17 23 -5 33 22 18 18 64 -6 86 -16 15 -36 19 -89 19 -59 0 -72 -3
-94 -24 -14 -14 -26 -31 -26 -38 0 -25 -18 -4 -25 30 -24 107 -70 146 -140
117z m78 -34 c8 -8 31 -76 52 -150 37 -129 38 -137 22 -154 -23 -22 -48 -7
-59 36 -8 31 -11 32 -58 32 -47 0 -50 -1 -58 -32 -11 -42 -36 -58 -58 -36 -15
15 -13 26 21 144 20 71 43 139 51 152 17 26 64 30 87 8z m268 -86 c10 -6 19
-20 19 -32 0 -19 -4 -20 -55 -13 -71 8 -76 -14 -10 -40 57 -21 75 -39 75 -75
0 -40 -41 -70 -96 -70 -58 0 -94 15 -94 39 0 26 21 32 64 19 26 -8 40 -8 47
-1 16 16 4 30 -31 38 -115 25 -101 145 17 145 24 0 53 -5 64 -10z"/>
<path d="M6692 2519 c-6 -15 -14 -43 -17 -63 -7 -35 -6 -36 24 -36 36 0 39 16
17 85 l-13 40 -11 -26z"/>
</g>
</svg>
