<?xml version="1.0" standalone="no"?>
<!DOCTYPE svg PUBLIC "-//W3C//DTD SVG 20010904//EN"
 "http://www.w3.org/TR/2001/REC-SVG-20010904/DTD/svg10.dtd">
<svg version="1.0" xmlns="http://www.w3.org/2000/svg"
 width="1080.000000pt" height="720.000000pt" viewBox="0 0 1080.000000 720.000000"
 preserveAspectRatio="xMidYMid meet">

<g transform="translate(0.000000,720.000000) scale(0.100000,-0.100000)"
fill="#000000" stroke="none">
<path d="M3112 5187 c-16 -16 -22 -36 -22 -66 0 -60 26 -388 51 -635 12 -118
18 -232 14 -260 -15 -127 -6 -153 63 -183 44 -18 93 2 112 46 15 36 10 173
-16 421 -8 80 -21 243 -29 362 -16 239 -27 301 -58 323 -33 23 -90 19 -115 -8z"/>
<path d="M512 5045 c-58 -26 -109 -178 -132 -395 -22 -209 -41 -344 -65 -446
-34 -141 -33 -178 4 -215 34 -34 77 -38 110 -11 12 9 32 46 45 82 l22 65 69
-1 c39 0 109 -2 156 -5 l87 -4 16 -57 c9 -31 27 -69 40 -85 20 -23 32 -28 71
-28 62 0 95 35 95 101 0 46 -22 114 -38 114 -12 0 -65 138 -155 400 -41 118
-89 244 -107 280 -54 108 -118 200 -146 210 -32 12 -32 12 -72 -5z m147 -497
c22 -68 49 -154 60 -191 l20 -69 -37 6 c-20 3 -67 8 -104 11 -58 6 -68 9 -68
26 0 10 18 89 40 175 22 86 40 159 40 161 0 20 15 -17 49 -119z"/>
<path d="M2469 5046 c-69 -23 -114 -164 -149 -476 -21 -190 -28 -234 -69 -428
-22 -102 -20 -114 17 -154 19 -21 35 -28 63 -28 46 0 72 29 95 107 l15 53 77
0 c42 0 114 -3 159 -7 82 -6 82 -6 89 -37 26 -123 117 -175 186 -105 29 29 30
33 25 91 -4 44 -12 67 -29 87 -29 31 -72 141 -168 426 -73 215 -140 357 -206
434 -39 45 -58 52 -105 37z m134 -486 c56 -170 80 -260 74 -266 -7 -7 -187 12
-195 21 -3 3 -1 30 5 59 17 79 75 297 79 294 2 -2 18 -51 37 -108z"/>
<path d="M7097 4981 c-24 -15 -42 -17 -127 -13 l-99 5 -30 -31 c-38 -37 -41
-80 -8 -117 24 -27 97 -45 188 -45 40 0 48 -3 53 -22 4 -13 9 -104 13 -203 5
-161 3 -189 -16 -268 -11 -49 -21 -102 -21 -118 0 -16 -5 -29 -12 -29 -38 -1
-150 -21 -173 -32 -55 -25 -71 -99 -31 -144 27 -32 60 -35 161 -16 33 6 114
19 180 27 224 30 387 66 412 91 31 31 32 93 1 121 -36 32 -60 33 -170 8 -155
-35 -188 -39 -188 -23 0 7 8 49 17 93 13 63 17 127 15 301 l-1 221 52 12 c134
30 182 111 105 176 -36 30 -64 31 -127 4 l-48 -20 -34 20 c-42 26 -76 26 -112
2z"/>
<path d="M10374 4976 c-63 -28 -81 -91 -44 -152 24 -37 48 -48 89 -39 32 7 75
49 85 82 8 24 -13 81 -35 100 -24 20 -63 23 -95 9z"/>
<path d="M1364 4961 c-58 -26 -148 -120 -183 -190 -40 -78 -57 -172 -42 -228
16 -60 54 -87 160 -113 101 -25 181 -68 219 -118 l25 -33 -27 10 c-44 18 -82
39 -95 55 -27 32 -107 14 -168 -38 -65 -54 -33 -136 58 -151 24 -4 86 -18 138
-31 112 -29 143 -29 197 -5 56 26 89 74 89 131 -1 63 -28 113 -109 198 -71 75
-166 131 -246 147 -60 11 -70 16 -70 31 0 16 42 100 62 124 17 21 60 50 73 50
6 0 41 -29 77 -65 36 -36 72 -65 80 -65 8 0 30 10 49 23 66 44 47 130 -46 215
-78 72 -160 90 -241 53z"/>
<path d="M5926 4948 c-64 -33 -143 -120 -179 -195 -26 -56 -32 -83 -35 -151
-6 -120 15 -145 152 -176 103 -24 158 -52 212 -107 l49 -50 -45 17 c-25 9 -59
28 -77 41 -17 12 -46 23 -63 23 -66 0 -150 -66 -150 -117 0 -28 50 -83 75 -83
10 0 76 -14 147 -31 84 -19 141 -28 162 -24 75 16 136 84 136 152 0 52 -48
133 -119 204 -73 71 -155 117 -249 139 -28 7 -55 16 -58 21 -6 11 27 89 55
128 11 16 35 35 53 44 l33 16 60 -65 c46 -49 67 -64 88 -64 39 0 64 15 82 51
21 39 8 81 -45 148 -73 93 -195 127 -284 79z"/>
<path d="M4675 4842 c-60 -21 -133 -63 -158 -90 -29 -32 -32 -82 -7 -115 30
-38 59 -34 136 18 36 25 75 45 87 45 29 0 55 -44 64 -106 6 -44 5 -47 -13 -40
-88 34 -183 6 -262 -78 -110 -116 -121 -276 -24 -358 38 -32 123 -48 248 -48
110 1 164 12 187 42 17 20 18 36 13 163 -3 77 -5 190 -5 251 1 128 -9 172 -52
237 -55 83 -127 110 -214 79z m82 -443 c9 -8 13 -37 13 -95 l0 -84 -57 0 c-32
0 -75 5 -95 11 -31 8 -38 15 -38 35 0 36 34 97 71 129 34 28 75 29 106 4z"/>
<path d="M9039 4826 c-72 -29 -125 -62 -144 -89 -24 -34 -19 -84 11 -113 30
-31 61 -27 107 12 41 34 103 65 119 59 24 -9 48 -62 48 -104 l0 -40 -65 6
c-56 5 -71 3 -119 -21 -187 -92 -239 -362 -84 -442 41 -21 196 -36 293 -28 70
6 83 11 108 36 l29 28 -7 133 c-3 72 -6 182 -5 244 2 133 -14 199 -64 265 -36
47 -93 78 -144 78 -15 0 -52 -11 -83 -24z m96 -428 c24 -11 25 -15 25 -100 l0
-88 -72 6 c-115 9 -118 10 -118 47 0 59 70 147 117 147 12 0 34 -5 48 -12z"/>
<path d="M9795 4833 c-64 -14 -108 -38 -145 -81 l-40 -47 -16 23 c-23 33 -55
43 -99 31 -65 -18 -81 -106 -34 -184 31 -52 62 -188 115 -495 14 -80 52 -115
109 -99 70 20 79 77 45 276 -28 159 -28 218 0 292 21 56 61 111 81 111 19 0
91 -174 124 -299 8 -33 24 -116 34 -186 11 -69 25 -133 32 -141 37 -45 105
-34 140 22 l21 34 -27 157 c-49 286 -146 522 -233 567 -33 17 -80 25 -107 19z"/>
<path d="M8025 4797 c-27 -14 -79 -50 -114 -80 -60 -51 -66 -54 -94 -45 -23 9
-34 7 -55 -9 -45 -33 -54 -61 -36 -119 8 -27 22 -110 30 -184 8 -74 21 -157
29 -185 33 -115 114 -192 171 -163 14 7 33 25 42 40 15 25 14 33 -10 130 -42
160 -55 268 -38 309 16 38 60 91 101 120 l28 20 16 -30 c26 -51 45 -141 56
-266 12 -138 32 -235 55 -270 22 -34 75 -50 111 -33 44 21 49 51 33 216 -23
252 -23 270 -6 297 13 20 25 25 55 25 l39 0 17 -74 c22 -100 81 -409 90 -470
5 -35 15 -58 35 -78 35 -35 70 -36 107 -4 26 22 28 30 26 88 -2 63 -80 488
-108 584 -18 62 -75 119 -130 130 -54 10 -141 -2 -188 -25 -22 -11 -42 -19
-43 -18 -1 1 -13 21 -28 45 -43 68 -113 86 -191 49z"/>
<path d="M3487 4739 c-49 -29 -61 -136 -23 -202 14 -23 48 -118 76 -212 56
-182 76 -228 122 -288 74 -93 179 -93 242 0 21 30 25 32 36 18 31 -37 93 -59
166 -60 63 0 74 3 105 29 50 43 77 87 94 158 21 89 41 377 29 424 -12 47 -67
94 -121 101 -34 4 -45 1 -74 -25 -45 -40 -47 -94 -4 -127 l28 -23 -6 -120 c-7
-121 -20 -205 -37 -232 -7 -11 -15 -12 -37 -4 -20 7 -37 27 -60 74 -28 55 -35
83 -44 180 -19 205 -47 270 -117 270 -24 0 -42 -8 -63 -29 -26 -26 -29 -36
-29 -88 1 -32 7 -94 15 -138 18 -96 19 -176 4 -230 l-11 -39 -14 25 c-18 36
-109 331 -129 423 -21 96 -44 126 -93 126 -20 0 -45 -5 -55 -11z"/>
<path d="M10283 4714 c-25 -26 -26 -27 -19 -122 4 -54 13 -186 19 -295 l12
-199 28 -24 c58 -50 117 -15 152 88 18 55 18 59 2 93 -10 21 -17 60 -17 93 0
73 -27 296 -41 340 -19 58 -90 72 -136 26z"/>
<path d="M5469 4681 c-50 -39 -73 -119 -47 -161 11 -17 9 -35 -10 -107 -13
-48 -26 -90 -29 -93 -10 -11 -54 59 -117 186 -36 73 -76 140 -88 148 -33 23
-81 20 -106 -7 -36 -39 -28 -76 45 -210 84 -156 100 -181 161 -254 l50 -60
-44 -179 c-24 -98 -44 -189 -44 -200 0 -37 37 -74 75 -74 67 0 72 10 157 341
43 167 90 347 104 399 13 52 27 122 31 156 5 57 4 63 -23 92 -38 42 -81 50
-115 23z"/>
<path d="M3738 3620 c-9 -6 -19 -22 -22 -38 l-6 -27 -79 3 c-72 3 -81 2 -91
-17 -13 -25 2 -61 25 -61 12 0 15 -14 15 -63 0 -68 10 -87 47 -87 30 0 43 28
43 93 0 46 3 55 20 60 18 5 20 0 20 -52 0 -62 19 -101 50 -101 10 0 26 10 34
22 l16 22 16 -22 c23 -33 55 -25 76 18 9 19 17 29 18 22 0 -7 11 -24 25 -37
18 -19 35 -25 68 -25 64 0 77 14 83 92 5 65 5 69 -24 98 -52 52 -126 36 -156
-33 l-14 -32 -1 27 c-1 29 -42 68 -72 68 -12 0 -19 7 -19 20 0 19 -32 60 -47
60 -5 0 -16 -5 -25 -10z m42 -60 c0 -38 1 -40 25 -34 16 4 35 0 51 -10 23 -16
25 -21 22 -89 -2 -56 -6 -72 -18 -72 -11 0 -16 16 -20 62 -6 69 -10 77 -39 68
-17 -5 -21 -16 -23 -68 -2 -47 -7 -62 -18 -62 -12 0 -15 22 -18 123 -2 117 -2
122 18 122 17 0 20 -6 20 -40z m-90 -40 c0 -13 -7 -20 -20 -20 -18 0 -20 -7
-20 -63 0 -64 -12 -90 -36 -80 -10 4 -14 25 -14 74 0 62 -2 69 -20 69 -13 0
-20 7 -20 20 0 18 7 20 65 20 58 0 65 -2 65 -20z m365 -15 c28 -27 33 -70 9
-79 -9 -3 -31 -6 -51 -6 -23 0 -33 -4 -30 -12 2 -8 20 -12 46 -11 46 2 57 -18
20 -38 -37 -19 -88 -2 -106 35 -43 91 45 179 112 111z"/>
<path d="M3987 3484 c-14 -14 -6 -24 19 -24 16 0 24 5 22 13 -5 14 -31 21 -41
11z"/>
<path d="M4373 3619 c-19 -7 -23 -16 -23 -51 -1 -34 -3 -39 -11 -25 -8 14 -24
17 -85 17 -68 0 -75 -2 -83 -22 -10 -27 3 -58 24 -58 11 0 15 -13 15 -56 0
-66 13 -94 43 -94 37 0 47 19 47 87 0 48 3 63 15 63 7 0 19 8 24 18 8 12 10
-4 11 -63 0 -82 9 -105 40 -105 9 0 25 9 35 20 l18 20 14 -20 c18 -25 49 -26
64 -1 12 18 12 18 30 0 24 -24 120 -27 139 -4 12 14 15 14 30 0 23 -21 46 -19
63 5 l14 20 18 -20 c10 -11 26 -20 35 -20 31 0 40 23 40 101 0 72 -2 79 -27
98 -21 18 -37 21 -85 18 -38 -2 -63 -9 -69 -18 -5 -8 -9 -40 -9 -73 0 -51 -2
-57 -15 -46 -9 8 -15 30 -15 60 0 25 -3 50 -7 54 -4 4 -6 22 -4 41 2 26 -2 36
-20 45 -40 22 -76 -7 -70 -56 1 -7 -5 -14 -14 -18 -22 -8 -19 -53 5 -66 11 -6
20 -18 20 -28 0 -9 -9 -23 -20 -30 -19 -11 -20 -10 -20 21 0 72 -30 117 -78
117 -14 0 -21 9 -25 29 -7 36 -33 52 -64 40z m41 -35 c3 -9 6 -26 6 -38 0 -19
4 -22 28 -18 48 7 63 -19 60 -102 -2 -55 -6 -71 -18 -71 -11 0 -16 16 -20 65
-5 63 -7 66 -40 62 -5 -1 -10 -26 -10 -56 0 -35 -5 -58 -15 -66 -28 -23 -35 0
-35 121 0 110 1 119 19 119 10 0 22 -7 25 -16z m224 -18 c-2 -13 -10 -21 -23
-21 -23 0 -33 34 -14 45 20 13 40 -1 37 -24z m-318 -46 c0 -13 -7 -20 -20 -20
-18 0 -20 -7 -20 -69 0 -49 -4 -70 -14 -74 -24 -10 -36 16 -36 80 0 56 -2 63
-20 63 -13 0 -20 7 -20 20 0 18 7 20 65 20 58 0 65 -2 65 -20z m318 -2 c7 -7
12 -35 12 -63 0 -40 4 -53 21 -63 16 -11 18 -16 9 -28 -13 -14 -75 -19 -104
-8 -22 9 -20 31 4 39 15 5 20 15 20 45 0 30 -5 40 -20 45 -22 7 -27 31 -7 38
22 10 53 7 65 -5z m215 -7 c20 -16 24 -145 5 -157 -19 -12 -38 28 -38 83 0 36
-4 53 -12 53 -28 0 -37 -18 -40 -75 -2 -45 -7 -60 -18 -60 -12 0 -16 17 -21
75 -3 41 -2 80 2 85 11 15 103 12 122 -4z"/>
<path d="M6963 3619 c-18 -6 -23 -16 -23 -45 0 -30 -2 -34 -14 -25 -9 7 -42
11 -88 9 l-73 -3 -3 -33 c-3 -27 1 -35 17 -39 18 -5 21 -13 21 -63 0 -42 5
-61 18 -73 44 -40 72 -13 72 68 0 54 3 61 25 72 l25 11 0 -72 c0 -73 10 -96
40 -96 30 0 50 34 52 86 l1 49 6 -59 c9 -91 60 -105 88 -25 7 19 12 26 12 16
2 -35 46 -67 94 -67 64 0 80 16 84 86 2 32 -2 71 -8 86 -26 63 -130 62 -161
-2 l-18 -34 -11 32 c-12 34 -35 52 -68 52 -14 0 -21 8 -23 26 -4 34 -35 55
-65 43z m45 -61 c3 -35 5 -37 31 -32 47 10 62 -16 59 -100 -2 -55 -6 -71 -18
-71 -11 0 -16 16 -20 65 -5 63 -7 66 -40 62 -5 -1 -10 -26 -10 -56 0 -35 -5
-58 -15 -66 -28 -23 -35 0 -35 121 0 119 0 120 23 117 18 -2 23 -10 25 -40z
m-93 -38 c0 -8 -10 -16 -22 -18 -21 -3 -23 -8 -23 -72 0 -48 -4 -69 -14 -73
-24 -10 -36 16 -36 80 0 56 -2 63 -20 63 -13 0 -20 7 -20 20 0 19 5 21 68 18
52 -2 67 -6 67 -18z m361 -15 c17 -17 24 -34 22 -53 -3 -24 -8 -27 -52 -32
-43 -4 -47 -7 -33 -19 10 -8 27 -11 42 -7 14 4 30 4 35 1 18 -11 -3 -35 -36
-41 -68 -13 -116 47 -94 119 17 59 74 74 116 32z"/>
<path d="M7210 3475 c-11 -13 -8 -15 20 -15 28 0 31 2 20 15 -7 8 -16 15 -20
15 -4 0 -13 -7 -20 -15z"/>
<path d="M2378 3609 c-11 -6 -18 -22 -18 -38 0 -16 -7 -31 -15 -35 -8 -3 -15
-13 -15 -22 0 -12 -6 -10 -31 10 -52 44 -113 32 -149 -27 -14 -23 -20 -27 -20
-14 0 10 -13 32 -29 48 -25 24 -38 29 -78 29 -27 0 -54 -5 -61 -12 -8 -8 -12
-46 -12 -105 0 -103 6 -113 72 -113 47 0 80 20 100 60 11 22 18 28 18 17 0
-10 14 -32 30 -49 28 -27 36 -30 77 -25 33 3 52 12 64 28 15 20 19 21 19 7 0
-10 9 -22 19 -28 30 -15 117 -12 134 5 13 13 16 13 27 0 17 -21 44 -19 65 5
l18 20 14 -20 c8 -11 23 -20 33 -20 22 0 50 36 50 65 1 14 5 11 15 -13 10 -23
12 -39 5 -51 -13 -26 12 -57 53 -65 51 -9 97 11 113 50 16 37 19 191 5 213
-12 18 -114 25 -142 10 -11 -6 -27 -25 -34 -42 l-13 -32 -11 27 c-16 43 -50
59 -115 55 -33 -2 -61 -9 -66 -16 -4 -7 -5 -43 -2 -79 l5 -66 -20 20 c-17 15
-22 36 -27 104 -4 64 -10 88 -23 97 -20 15 -32 16 -55 2z m50 -43 c-2 -13 -10
-21 -23 -21 -23 0 -33 34 -14 45 20 13 40 -1 37 -24z m-343 -51 c27 -26 34
-89 15 -125 -12 -23 -73 -44 -106 -36 -23 6 -24 10 -24 90 0 45 3 86 7 89 3 4
24 7 45 7 28 0 46 -7 63 -25z m201 -8 c39 -34 40 -100 1 -133 -57 -49 -127
-12 -127 66 0 77 70 115 126 67z m142 11 c7 -7 12 -35 12 -63 0 -40 4 -53 21
-63 16 -11 18 -16 9 -28 -13 -14 -75 -19 -104 -8 -22 9 -20 31 4 39 15 5 20
15 20 45 0 30 -5 40 -20 45 -22 7 -27 31 -7 38 22 10 53 7 65 -5z m216 -7 c23
-19 20 -156 -4 -156 -11 0 -16 16 -20 65 -5 63 -7 66 -40 62 -5 -1 -10 -26
-10 -56 0 -54 -20 -90 -40 -70 -10 10 -16 146 -8 160 9 14 103 11 122 -5z
m214 5 c3 -4 5 -48 3 -99 -3 -113 -14 -129 -80 -125 -34 2 -47 7 -49 21 -3 14
4 17 37 17 54 0 61 16 10 24 -34 5 -42 12 -55 42 -18 42 -11 87 17 115 14 14
29 18 64 15 25 -2 49 -7 53 -10z m-488 -76 c0 -11 -8 -24 -17 -29 -16 -8 -18
-4 -18 29 0 33 2 37 18 29 9 -5 17 -18 17 -29z"/>
<path d="M2020 3450 c0 -42 3 -50 19 -50 30 0 44 63 19 88 -26 26 -38 13 -38
-38z m27 -12 c-3 -7 -5 -2 -5 12 0 14 2 19 5 13 2 -7 2 -19 0 -25z"/>
<path d="M2217 3483 c-14 -13 -7 -84 8 -89 22 -9 45 14 45 45 0 39 -32 65 -53
44z m33 -38 c0 -8 -4 -17 -10 -20 -6 -4 -10 5 -10 20 0 15 4 24 10 20 6 -3 10
-12 10 -20z"/>
<path d="M2772 3478 c-29 -29 -3 -98 33 -84 21 8 21 82 -1 90 -20 8 -18 8 -32
-6z m15 -50 c-3 -7 -5 -2 -5 12 0 14 2 19 5 13 2 -7 2 -19 0 -25z"/>
<path d="M3160 3605 c-10 -12 -10 -21 -2 -40 7 -14 16 -25 22 -25 6 0 10 -26
10 -60 0 -45 -4 -61 -17 -68 -14 -8 -20 1 -42 67 -25 73 -27 76 -59 79 -18 2
-40 -2 -48 -9 -19 -16 -64 -163 -57 -189 3 -11 17 -23 31 -27 19 -5 30 0 45
18 l19 24 15 -22 c16 -24 57 -31 68 -13 4 7 13 6 27 -1 11 -6 44 -8 76 -5 32
3 62 5 67 5 6 0 35 -2 67 -5 33 -4 65 -1 77 5 27 15 28 57 1 71 -18 9 -20 21
-20 98 0 55 -4 92 -12 100 -16 16 -90 16 -106 0 -18 -18 -14 -46 8 -60 28 -18
29 -122 1 -137 -37 -20 -50 6 -53 109 l-3 95 -51 3 c-37 2 -54 -1 -64 -13z
m100 -104 c0 -91 2 -100 20 -106 24 -8 26 -30 4 -39 -29 -11 -91 -6 -104 8 -9
12 -7 17 9 28 18 11 21 23 21 90 0 60 -3 78 -14 78 -15 0 -28 24 -19 34 4 3
24 6 45 6 l38 0 0 -99z m158 -3 c2 -86 5 -98 22 -103 24 -8 26 -30 4 -39 -9
-3 -31 -6 -49 -6 -18 0 -40 3 -49 6 -22 9 -20 31 4 39 18 6 20 15 20 86 0 62
-3 79 -14 79 -8 0 -18 5 -21 10 -12 19 7 31 43 28 l37 -3 3 -97z m-302 -44
c19 -62 24 -88 16 -96 -13 -13 -42 6 -42 28 0 22 -51 17 -57 -5 -6 -25 -32
-35 -40 -16 -6 17 10 90 32 142 11 25 20 33 39 33 23 0 28 -8 52 -86z"/>
<path d="M3057 3474 c-10 -11 -9 -44 2 -44 15 0 19 13 12 33 -4 10 -10 15 -14
11z"/>
<path d="M5547 3613 c-12 -12 -7 -50 8 -63 21 -17 21 -135 0 -144 -11 -4 -20
12 -35 61 -11 37 -25 72 -31 80 -14 17 -73 17 -86 1 -13 -16 -53 -150 -53
-175 0 -44 41 -55 77 -21 l23 22 16 -22 c16 -24 43 -29 61 -11 8 8 17 8 31 0
28 -15 115 -14 130 1 9 9 15 9 24 0 7 -7 36 -12 65 -12 63 0 101 27 84 59 -6
10 -17 21 -25 24 -12 5 -16 28 -18 104 l-3 98 -52 3 c-44 3 -53 0 -63 -17 -11
-22 1 -61 20 -61 6 0 10 -26 10 -59 0 -66 -18 -94 -45 -71 -11 9 -15 33 -15
92 0 105 -8 118 -69 118 -26 0 -51 -3 -54 -7z m93 -113 c0 -75 3 -100 13 -100
23 0 38 -22 26 -37 -12 -13 -75 -18 -103 -7 -22 9 -20 31 4 39 18 6 20 15 20
85 0 69 -2 78 -20 83 -11 3 -20 12 -20 21 0 12 10 16 40 16 l40 0 0 -100z
m160 1 c0 -91 2 -100 20 -106 24 -8 26 -30 4 -39 -29 -11 -91 -6 -104 8 -9 12
-7 17 9 28 18 11 21 23 21 90 0 63 -3 78 -15 78 -8 0 -15 9 -15 20 0 17 7 20
40 20 l40 0 0 -99z m-302 -36 c12 -38 21 -79 20 -89 -4 -30 -27 -31 -38 -2
-13 35 -52 35 -68 1 -13 -28 -30 -33 -38 -11 -4 12 30 145 43 169 3 5 17 7 31
5 24 -3 30 -12 50 -73z"/>
<path d="M5440 3473 c0 -6 -3 -18 -6 -27 -4 -11 -1 -16 10 -16 9 0 16 6 16 13
0 16 -20 46 -20 30z"/>
<path d="M7442 3604 c-12 -8 -22 -26 -22 -38 0 -13 -7 -29 -15 -36 -20 -17
-19 -33 5 -55 11 -10 20 -25 20 -34 0 -9 -9 -24 -20 -34 -44 -37 -12 -77 61
-77 28 0 60 5 71 11 14 8 23 8 31 0 15 -15 52 -14 65 2 6 7 12 37 15 67 l3 55
2 -55 c2 -61 14 -80 49 -80 30 0 43 28 43 96 0 49 2 55 15 44 9 -7 15 -29 15
-54 0 -52 31 -86 77 -86 31 0 63 21 63 42 0 6 11 -1 25 -16 19 -20 33 -26 67
-26 24 0 53 6 64 14 17 12 22 12 39 0 22 -16 108 -19 136 -4 25 14 25 56 -1
72 -28 18 -25 23 15 23 34 0 35 -2 35 -36 0 -54 47 -88 78 -57 7 7 13 37 13
67 l2 56 6 -55 c7 -66 15 -80 45 -80 37 0 46 19 46 97 0 65 -3 77 -25 98 -20
21 -33 25 -77 23 -29 -1 -61 -5 -71 -10 -11 -6 -23 -6 -30 0 -15 12 -146 13
-169 1 -10 -6 -18 -17 -18 -27 0 -13 -3 -12 -15 5 -30 42 -129 38 -155 -6 -8
-14 -9 -14 -10 2 0 9 -11 23 -25 29 -13 6 -27 19 -30 29 -12 36 -85 33 -85 -3
0 -5 -8 -20 -18 -33 -17 -22 -18 -22 -40 -4 -26 21 -135 24 -151 5 -6 -7 -11
-40 -13 -74 -3 -58 -4 -62 -21 -50 -13 10 -17 30 -19 96 -1 72 -4 85 -22 98
-25 18 -27 17 -54 -2z m52 -23 c10 -16 -5 -41 -24 -41 -19 0 -34 25 -24 41 3
5 14 9 24 9 10 0 21 -4 24 -9z m351 -29 c5 -11 20 -23 32 -27 31 -7 29 -33 -2
-41 -22 -5 -25 -12 -25 -51 0 -39 2 -44 19 -38 24 7 37 -11 21 -30 -34 -41
-90 2 -90 69 0 30 -5 46 -15 50 -8 3 -15 12 -15 21 0 9 7 18 15 21 8 4 15 14
15 23 0 37 28 39 45 3z m-361 -28 c12 -5 16 -20 16 -64 0 -50 3 -60 20 -65 24
-8 26 -30 4 -39 -29 -11 -91 -6 -104 8 -9 12 -7 17 9 28 15 9 21 23 21 48 0
25 -6 39 -21 48 -38 24 9 54 55 36z m131 -4 c4 -7 13 -6 27 1 29 16 67 3 78
-27 14 -35 13 -117 -1 -131 -24 -24 -39 -2 -39 57 0 61 -7 74 -34 64 -12 -5
-16 -20 -16 -64 0 -59 -15 -81 -39 -57 -12 12 -16 149 -4 160 9 10 21 9 28 -3z
m453 -18 c7 -9 12 -30 10 -47 -3 -28 -6 -30 -52 -35 -43 -4 -47 -7 -33 -18 10
-9 27 -11 46 -7 35 7 48 -7 25 -29 -36 -36 -116 -4 -127 50 -7 39 10 89 36
102 29 15 78 6 95 -16z m118 18 c8 -8 19 -7 37 1 38 17 57 6 57 -36 0 -25 -4
-35 -15 -35 -9 0 -18 7 -21 15 -12 31 -34 16 -34 -24 0 -31 4 -41 20 -46 24
-8 26 -30 4 -39 -9 -3 -31 -6 -49 -6 -18 0 -40 3 -49 6 -22 9 -20 31 4 39 15
5 20 15 20 45 0 30 -5 40 -20 45 -11 3 -20 12 -20 20 0 23 48 33 66 15z m270
-14 c19 -27 19 -142 0 -149 -23 -9 -36 15 -36 69 0 55 -8 68 -34 58 -12 -5
-16 -20 -16 -64 0 -63 -14 -85 -37 -55 -15 22 -18 152 -3 157 6 2 33 3 61 3
39 0 54 -5 65 -19z m-541 -64 c1 -36 0 -38 -22 -28 -29 14 -29 40 0 54 12 6
22 11 22 11 0 1 0 -16 0 -37z m225 -2 c0 -16 -36 -48 -44 -38 -2 2 -1 20 1 40
5 33 7 36 24 27 10 -5 19 -18 19 -29z"/>
<path d="M7990 3475 c-11 -13 -8 -15 20 -15 28 0 31 2 20 15 -7 8 -16 15 -20
15 -4 0 -13 -7 -20 -15z"/>
<path d="M8718 3573 c-7 -15 -20 -35 -29 -44 -14 -14 -18 -14 -39 3 -35 28
-86 23 -122 -12 -28 -29 -30 -35 -26 -87 4 -46 10 -61 32 -80 53 -45 146 -24
146 34 0 36 12 83 21 83 5 0 9 -20 9 -44 0 -77 58 -119 119 -86 39 20 32 80
-9 80 -13 0 -20 7 -20 20 0 11 6 20 14 20 8 0 22 10 30 22 17 24 7 53 -22 62
-9 3 -22 16 -27 28 -6 14 -20 24 -37 26 -22 3 -30 -2 -40 -25z m60 -20 c2 -13
13 -24 28 -27 32 -8 29 -40 -4 -44 -20 -3 -23 -8 -20 -45 3 -37 6 -42 26 -39
29 4 31 -34 2 -43 -49 -15 -80 20 -80 91 0 22 -6 37 -15 40 -17 7 -21 34 -4
34 5 0 15 14 21 31 12 35 41 36 46 2z m-141 -38 c26 -18 38 -62 22 -81 -6 -8
-29 -14 -51 -14 -27 0 -38 -4 -35 -12 2 -8 20 -12 46 -11 48 2 57 -20 16 -39
-34 -15 -86 1 -102 32 -43 84 33 175 104 125z"/>
<path d="M8577 3484 c-14 -14 -6 -24 19 -24 16 0 24 5 22 13 -5 14 -31 21 -41
11z"/>
<path d="M4935 3527 c-35 -29 -45 -100 -22 -147 13 -25 14 -35 4 -51 -19 -30
20 -62 76 -63 52 -1 97 31 97 69 0 30 11 38 25 19 7 -10 32 -19 61 -21 40 -4
54 -1 77 17 29 23 35 56 17 91 -8 13 -7 25 0 39 9 17 6 25 -14 45 -40 40 -127
29 -146 -17 -5 -13 -9 -17 -10 -8 -1 33 -19 44 -78 47 -51 3 -64 0 -87 -20z
m132 -11 c3 -3 5 -47 4 -98 -3 -111 -13 -128 -76 -128 -40 0 -73 19 -58 33 3
4 24 7 45 7 21 0 38 5 38 10 0 6 -11 10 -24 10 -13 0 -34 9 -47 19 -20 16 -24
29 -24 71 0 67 25 91 91 86 25 -2 48 -6 51 -10z m164 4 c32 -17 24 -40 -13
-37 -43 3 -46 -15 -5 -29 21 -7 35 -20 42 -38 8 -24 6 -31 -15 -48 -38 -31
-135 -11 -114 24 3 4 23 5 45 2 49 -8 53 10 5 30 -39 16 -56 40 -48 68 8 32
65 48 103 28z m-113 -81 c10 -13 9 -19 -3 -29 -13 -11 -15 -8 -15 20 0 19 1
31 3 29 1 -2 8 -11 15 -20z"/>
<path d="M4976 3474 c-17 -45 6 -93 39 -80 21 8 21 82 -1 90 -24 9 -31 7 -38
-10z m21 -46 c-3 -7 -5 -2 -5 12 0 14 2 19 5 13 2 -7 2 -19 0 -25z"/>
<path d="M5967 3530 c-75 -59 -37 -200 55 -200 53 0 86 26 101 77 l14 47 7
-36 c9 -51 41 -88 75 -88 36 0 55 22 74 85 l15 50 1 -38 c1 -57 45 -97 104
-97 31 0 49 6 62 20 l18 20 14 -20 c11 -16 25 -20 73 -20 59 0 90 15 90 45 0
15 -27 45 -41 45 -5 0 -9 4 -9 9 0 4 11 6 25 3 39 -7 58 15 52 61 -3 21 -8 42
-12 45 -3 4 -42 7 -85 9 -71 2 -81 -1 -94 -19 l-15 -21 -27 22 c-34 27 -84 27
-118 0 l-27 -22 -15 22 c-21 30 -51 26 -73 -10 l-19 -30 -6 25 c-3 13 -15 27
-26 31 -24 8 -60 -11 -60 -31 0 -12 -7 -10 -31 10 -37 32 -86 34 -122 6z m109
-23 c21 -19 27 -32 27 -67 0 -35 -6 -48 -27 -67 -56 -48 -126 -11 -126 67 0
78 70 115 126 67z m124 -42 c15 -52 19 -51 40 12 8 26 21 48 27 51 23 7 26
-28 7 -95 -14 -47 -25 -68 -41 -76 -33 -15 -50 4 -74 86 -17 56 -18 71 -8 78
20 12 35 -6 49 -56z m247 50 c26 -18 38 -62 22 -81 -6 -8 -29 -14 -51 -14 -27
0 -38 -4 -35 -12 2 -8 20 -12 46 -11 30 1 41 -2 41 -13 0 -23 -45 -38 -82 -28
-41 12 -60 47 -54 99 8 65 64 95 113 60z m148 3 c6 0 22 3 37 7 23 6 29 3 39
-18 6 -14 9 -33 6 -41 -8 -21 -37 -21 -37 0 0 9 -7 14 -17 12 -23 -4 -32 -78
-11 -78 24 0 39 -22 27 -37 -17 -20 -108 -17 -116 3 -4 10 1 22 10 29 10 7 17
26 17 45 0 19 -7 38 -17 45 -26 20 -9 49 25 41 15 -4 32 -7 37 -8z m-65 -78
c0 -7 -9 -23 -19 -36 l-20 -25 2 59 c2 57 2 58 20 36 9 -12 17 -27 17 -34z"/>
<path d="M6000 3465 c-11 -29 3 -75 23 -75 21 0 37 22 37 50 0 50 -44 68 -60
25z m40 -20 c0 -8 -4 -17 -10 -20 -6 -4 -10 5 -10 20 0 15 4 24 10 20 6 -3 10
-12 10 -20z"/>
<path d="M6387 3484 c-14 -14 -6 -24 19 -24 16 0 24 5 22 13 -5 14 -31 21 -41
11z"/>
</g>
</svg>
