<?xml version="1.0" standalone="no"?>
<!DOCTYPE svg PUBLIC "-//W3C//DTD SVG 20010904//EN"
 "http://www.w3.org/TR/2001/REC-SVG-20010904/DTD/svg10.dtd">
<svg version="1.0" xmlns="http://www.w3.org/2000/svg"
 width="1080.000000pt" height="720.000000pt" viewBox="0 0 1080.000000 720.000000"
 preserveAspectRatio="xMidYMid meet">

<g transform="translate(0.000000,720.000000) scale(0.100000,-0.100000)"
fill="#000000" stroke="none">
<path d="M4364 4016 c-41 -18 -62 -66 -45 -104 7 -14 9 -28 4 -29 -66 -24 -88
-68 -56 -111 11 -15 32 -28 46 -30 27 -3 27 -4 27 -86 l0 -83 -29 -6 c-16 -3
-36 -13 -45 -22 -15 -15 -16 -9 -16 80 0 53 -5 116 -11 141 -23 89 -111 137
-202 110 -26 -8 -51 -10 -58 -5 -24 15 -68 10 -89 -11 -18 -18 -20 -33 -20
-192 0 -185 6 -213 49 -234 28 -14 77 -1 90 25 5 9 11 74 14 145 5 134 11 149
52 144 19 -3 20 -11 22 -128 3 -155 6 -166 43 -185 26 -13 35 -14 57 -3 15 7
33 24 40 38 7 14 13 19 13 13 0 -7 9 -22 20 -33 18 -18 33 -20 145 -20 115 0
126 2 145 22 11 12 20 28 20 36 0 8 12 2 29 -16 38 -37 106 -56 175 -49 97 10
138 47 122 112 -9 34 -47 48 -95 35 -51 -14 -87 -12 -101 5 -11 13 -2 15 68
15 97 0 129 12 140 54 11 42 -3 120 -28 162 -63 100 -238 98 -304 -4 -41 -63
-52 -153 -30 -234 4 -14 1 -15 -31 -6 l-35 11 0 126 c0 98 -4 132 -15 149 -12
16 -13 27 -5 41 40 76 -30 160 -106 127z m80 -59 c13 -36 -2 -61 -38 -65 -35
-4 -56 13 -56 47 0 36 19 53 55 49 22 -2 32 -10 39 -31z m-474 -122 c15 -13
20 -13 49 1 48 24 125 15 159 -20 27 -26 27 -28 30 -186 l3 -159 -27 -7 c-45
-12 -54 13 -54 154 0 68 -5 132 -10 143 -13 23 -59 25 -100 4 l-29 -15 -3
-137 c-3 -117 -5 -137 -20 -147 -13 -8 -23 -8 -35 0 -16 10 -19 34 -23 185 -3
98 -2 179 3 187 13 16 37 15 57 -3z m839 -3 c55 -27 74 -61 75 -134 l1 -63
-114 -3 -113 -3 6 -32 c10 -50 39 -72 89 -69 23 1 60 3 82 5 37 2 40 0 40 -23
0 -34 -36 -50 -119 -50 -84 0 -125 22 -155 84 -24 48 -28 142 -10 197 31 92
133 135 218 91z m-359 -147 l5 -150 40 -5 c33 -4 41 -9 43 -29 2 -13 -2 -28
-10 -32 -7 -5 -61 -9 -119 -9 -112 0 -135 8 -127 47 2 13 14 19 46 21 l42 3 0
120 0 119 -29 0 c-16 0 -37 7 -45 16 -18 18 -18 17 -10 39 5 13 20 15 83 13
l76 -3 5 -150z"/>
<path d="M4686 3749 c-43 -51 -36 -59 49 -59 73 0 75 1 75 25 0 64 -80 87
-124 34z m74 -9 c11 -7 6 -10 -20 -10 -26 0 -31 3 -20 10 8 5 17 10 20 10 3 0
12 -5 20 -10z"/>
<path d="M3176 3999 c-48 -38 -22 -119 39 -119 l25 0 0 -155 0 -155 -29 0
c-59 0 -83 -81 -35 -119 23 -18 41 -21 130 -21 113 0 147 8 164 40 23 42 -10
100 -56 100 l-24 0 0 155 c0 154 0 155 23 155 28 0 41 9 56 37 17 33 14 51
-14 78 -23 24 -30 25 -138 25 -100 0 -117 -3 -141 -21z m268 -35 c11 -28 -12
-53 -52 -56 l-37 -3 -3 -182 -2 -182 42 -3 c40 -3 43 -5 43 -33 l0 -30 -122
-3 c-115 -2 -122 -2 -128 18 -9 30 12 50 51 50 l34 0 0 185 0 185 -34 0 c-39
0 -60 20 -51 50 6 19 14 20 130 20 102 0 124 -3 129 -16z"/>
<path d="M5233 4005 c-17 -7 -38 -26 -46 -42 -21 -41 -147 -447 -147 -473 0
-11 12 -32 26 -47 20 -20 31 -24 56 -19 43 9 54 20 68 71 l13 45 68 0 c67 0
69 -1 75 -27 18 -77 65 -109 116 -82 30 16 38 28 38 60 0 28 -122 439 -143
478 -6 13 -26 30 -44 38 -39 16 -40 16 -80 -2z m89 -42 c22 -27 150 -460 143
-484 -5 -16 -14 -19 -38 -17 -29 3 -33 8 -47 58 l-16 55 -91 3 -91 3 -19 -58
c-16 -48 -24 -59 -45 -61 -50 -6 -54 19 -20 126 17 53 49 157 72 229 23 73 48
140 56 148 21 21 77 19 96 -2z"/>
<path d="M5266 3869 c-3 -8 -17 -54 -32 -104 -15 -49 -29 -96 -31 -102 -4 -10
13 -13 66 -13 39 0 71 3 71 6 0 9 -62 218 -66 223 -2 2 -6 -2 -8 -10z m23
-171 c1 -12 -6 -18 -19 -18 -23 0 -24 5 -8 51 12 34 12 34 19 9 4 -14 7 -33 8
-42z"/>
<path d="M6752 3957 c-12 -13 -22 -36 -22 -53 0 -23 -7 -32 -33 -44 -17 -8
-37 -25 -42 -36 -11 -22 -11 -22 -42 7 -45 40 -106 55 -163 40 -98 -26 -142
-89 -148 -213 -7 -129 43 -210 147 -238 122 -32 255 42 207 115 -24 36 -38 39
-107 25 -57 -12 -62 -12 -82 8 l-21 22 96 0 c74 0 100 4 112 16 23 23 30 61
19 109 l-10 42 28 -16 c29 -17 39 -55 39 -158 0 -92 44 -155 116 -169 79 -15
154 26 154 84 0 49 -45 75 -97 58 -23 -7 -23 -6 -23 83 l0 91 33 0 c18 0 42 7
54 15 18 13 22 13 33 0 7 -8 21 -15 31 -15 17 0 19 -9 19 -103 0 -112 14 -154
63 -191 56 -41 172 -25 201 29 6 11 12 22 13 24 1 2 18 -10 37 -27 46 -40 97
-56 166 -49 95 8 149 49 136 103 -4 13 -17 31 -31 40 -21 14 -32 14 -75 4 -51
-12 -100 -7 -100 10 0 6 32 10 74 10 41 0 86 4 99 9 72 28 50 192 -35 252 -23
17 -50 24 -93 27 -85 5 -139 -25 -178 -99 -26 -49 -28 -62 -25 -134 l3 -80
-52 -1 -53 0 0 88 0 88 35 0 c70 0 102 77 49 119 -15 12 -40 21 -55 21 -23 0
-29 5 -29 20 0 29 -26 76 -45 84 -48 18 -105 -20 -105 -71 -1 -22 -8 -32 -37
-45 -32 -15 -39 -15 -57 -2 -11 7 -33 14 -48 14 -22 0 -28 5 -28 20 0 29 -26
76 -45 84 -32 12 -62 6 -83 -17z m76 -20 c6 -7 12 -33 14 -57 l3 -45 55 -5
c51 -5 55 -7 55 -30 0 -23 -4 -25 -55 -30 l-55 -5 -3 -103 c-4 -132 2 -143 71
-140 47 3 52 1 55 -19 4 -30 -33 -53 -88 -53 -91 0 -113 36 -120 195 l-5 120
-32 3 c-55 5 -55 59 0 64 30 3 32 6 35 48 4 50 16 70 42 70 10 0 22 -6 28 -13z
m320 0 c6 -7 12 -33 14 -57 l3 -45 55 -5 c42 -4 56 -9 58 -23 6 -31 -17 -47
-69 -47 l-49 0 0 -101 c0 -130 6 -141 73 -137 49 3 52 1 55 -21 5 -34 -22 -51
-83 -51 -98 0 -125 45 -125 204 l0 105 -34 7 c-59 11 -59 64 0 64 34 0 34 1
34 44 0 61 39 98 68 63z m-570 -117 c40 -25 62 -73 62 -139 0 -35 -4 -51 -16
-55 -9 -3 -61 -6 -116 -6 l-100 0 7 -27 c3 -16 16 -39 28 -51 21 -23 26 -23
105 -17 l82 7 0 -27 c0 -37 -54 -58 -137 -53 -112 7 -158 64 -158 193 0 132
51 194 160 195 33 0 61 -7 83 -20z m991 1 c48 -25 73 -78 69 -147 l-3 -49
-112 -3 c-67 -1 -113 -7 -113 -13 0 -5 6 -25 14 -43 19 -45 65 -61 130 -45 56
14 79 7 74 -23 -4 -32 -43 -48 -119 -48 -76 0 -120 22 -152 78 -39 67 -32 198
15 257 43 55 129 70 197 36z"/>
<path d="M6447 3758 c-18 -15 -39 -63 -30 -72 4 -3 40 -6 81 -6 l74 0 -7 28
c-3 15 -14 35 -22 45 -19 20 -72 23 -96 5z m68 -28 c4 -6 -7 -10 -25 -10 -18
0 -29 4 -25 10 3 6 15 10 25 10 10 0 22 -4 25 -10z"/>
<path d="M7443 3748 c-11 -13 -24 -33 -28 -45 -6 -23 -5 -23 75 -23 l80 0 -6
28 c-13 59 -82 82 -121 40z m72 -18 c4 -6 -5 -10 -20 -10 -15 0 -24 4 -20 10
3 6 12 10 20 10 8 0 17 -4 20 -10z"/>
<path d="M3598 3876 c-64 -23 -89 -45 -116 -104 -48 -105 -29 -238 44 -301 59
-53 152 -63 225 -26 130 68 146 309 27 398 -62 46 -116 56 -180 33z m138 -42
c54 -26 87 -91 88 -172 1 -133 -68 -209 -180 -200 -67 6 -101 29 -131 88 -48
92 -20 227 56 277 41 28 117 31 167 7z"/>
<path d="M3635 3780 c-45 -17 -60 -48 -60 -125 0 -64 3 -77 24 -99 49 -52 120
-23 142 58 25 91 -39 191 -106 166z m62 -60 c19 -38 16 -114 -5 -140 -43 -54
-103 14 -87 98 13 71 66 94 92 42z"/>
<path d="M5539 3865 c-15 -8 -29 -20 -31 -27 -3 -7 -2 -98 1 -201 5 -171 8
-190 25 -203 28 -20 69 -17 93 5 18 17 21 35 25 151 5 138 10 153 53 148 19
-3 20 -12 25 -141 5 -131 6 -140 29 -158 32 -26 67 -24 96 6 24 23 25 29 25
162 0 153 -13 200 -64 241 -38 29 -108 38 -156 19 -21 -8 -42 -11 -47 -7 -17
16 -49 18 -74 5z m249 -38 c45 -22 54 -58 53 -211 -1 -77 -5 -144 -10 -149 -5
-5 -19 -7 -32 -5 -24 3 -24 5 -29 141 -5 132 -6 140 -29 159 -27 21 -58 18
-98 -8 -21 -13 -23 -22 -25 -152 l-3 -137 -35 0 -35 0 -5 175 c-3 96 -1 181 4
188 12 17 53 15 60 -3 5 -13 10 -14 28 -4 55 30 105 32 156 6z"/>
<path d="M5954 3870 c-44 -17 -46 -31 -45 -217 1 -155 4 -181 20 -203 23 -32
69 -38 102 -11 23 18 24 25 27 153 4 138 7 148 50 148 25 0 26 -7 22 -152 -2
-87 12 -143 40 -158 30 -16 68 -12 90 10 18 18 20 33 20 167 0 126 -3 153 -20
188 -34 70 -117 100 -197 71 -23 -8 -45 -11 -48 -7 -8 13 -39 19 -61 11z m54
-46 c8 -15 12 -15 40 0 40 21 121 21 151 0 41 -29 51 -72 51 -219 0 -134 0
-136 -25 -147 -47 -21 -55 -1 -55 144 0 125 -1 130 -26 154 -27 28 -54 27
-100 -3 -23 -15 -24 -19 -24 -148 0 -104 -3 -135 -15 -145 -18 -15 -52 -4 -59
18 -4 14 -1 350 3 360 4 10 52 -1 59 -14z"/>
<path d="M2320 3280 c-11 -7 -14 -25 -13 -65 l2 -55 -25 30 c-30 35 -56 38
-102 10 -27 -16 -33 -26 -31 -48 2 -15 -2 -35 -8 -46 -9 -16 -11 -14 -17 19
-10 49 -58 99 -89 92 -12 -3 -39 -10 -59 -15 -29 -8 -38 -7 -38 3 0 6 -9 20
-20 30 -25 22 -66 13 -76 -18 -16 -46 -17 -53 -16 -107 1 -40 -2 -49 -8 -35
-5 11 -9 32 -9 46 -3 86 -138 106 -171 26 -7 -18 -9 -19 -9 -4 -1 10 3 26 8
35 25 49 -46 95 -81 52 -10 -12 -18 -31 -18 -41 0 -25 -11 -24 -33 1 -33 39
-147 15 -147 -30 0 -18 -2 -17 -24 5 -29 29 -90 47 -121 35 -36 -14 -65 -58
-65 -101 0 -109 163 -155 204 -57 l14 33 9 -35 c18 -68 94 -71 101 -4 2 19 11
33 27 41 23 10 25 9 25 -16 0 -72 70 -95 102 -33 9 18 19 29 22 23 4 -6 2 -20
-4 -31 -15 -28 -6 -50 35 -90 63 -61 145 -38 145 42 0 35 2 37 18 27 26 -17
69 -3 78 24 4 12 7 40 6 62 0 34 2 30 16 -28 19 -75 37 -93 80 -81 15 4 41 6
58 5 22 -2 36 4 46 17 12 18 16 18 33 6 26 -19 109 -18 129 1 14 14 17 14 36
-5 25 -25 52 -26 75 0 15 17 16 32 10 132 -4 70 -12 122 -21 136 -15 23 -48
29 -74 12z m65 -141 c7 -117 1 -144 -29 -119 -9 7 -14 16 -11 20 3 4 0 54 -5
111 -8 79 -7 105 2 110 25 16 36 -14 43 -122z m-770 61 c0 -8 -10 -16 -22 -18
-22 -3 -32 16 -16 32 12 11 38 2 38 -14z m290 10 c4 -6 1 -17 -5 -26 -15 -18
-42 0 -33 22 6 16 29 19 38 4z m177 -56 c22 -37 38 -118 28 -135 -12 -18 -40
-3 -40 22 0 36 -23 100 -34 96 -6 -2 -11 -31 -11 -67 0 -60 -13 -87 -30 -60
-6 10 -35 135 -35 152 0 5 11 8 24 8 14 0 28 5 31 11 12 19 49 4 67 -27z m183
12 c11 -17 15 -42 13 -83 l-3 -58 -38 -3 c-40 -3 -77 18 -77 43 0 21 41 65 61
65 10 0 19 5 19 10 0 13 -6 13 -31 0 -27 -15 -40 17 -14 36 28 21 53 17 70
-10z m-989 4 c23 0 64 -47 64 -73 0 -39 -36 -77 -74 -77 -76 0 -116 95 -59
140 15 11 33 18 41 15 7 -3 20 -5 28 -5z m223 -22 c13 -22 13 -30 3 -40 -11
-11 -17 -9 -32 10 -25 30 -33 13 -25 -48 6 -46 5 -50 -13 -50 -16 0 -23 10
-31 50 -12 56 -14 94 -5 102 3 3 24 5 47 4 34 -1 44 -6 56 -28z m104 -24 c12
-61 6 -99 -18 -99 -17 0 -20 8 -23 59 -2 32 -1 65 2 73 10 25 30 8 39 -33z
m150 37 c28 -11 39 -55 41 -161 l1 -65 -33 -3 c-25 -3 -39 3 -64 28 l-31 31
20 21 c23 22 43 17 43 -12 0 -10 7 -21 16 -24 12 -5 15 1 12 32 -3 32 -6 37
-26 34 -49 -7 -86 60 -57 104 16 26 39 30 78 15z m136 -9 c12 -23 17 -104 7
-120 -4 -7 -13 -12 -20 -12 -13 0 -31 124 -20 141 9 14 23 10 33 -9z m428 -94
c-3 -7 -5 -2 -5 12 0 14 2 19 5 13 2 -7 2 -19 0 -25z"/>
<path d="M2207 3083 c-13 -12 -7 -23 13 -23 11 0 20 7 20 15 0 15 -21 21 -33
8z"/>
<path d="M1220 3104 c0 -19 31 -45 49 -42 9 2 17 15 19 29 3 23 0 25 -33 25
-21 0 -35 -5 -35 -12z"/>
<path d="M1710 3110 c0 -11 5 -20 10 -20 6 0 10 9 10 20 0 11 -4 20 -10 20 -5
0 -10 -9 -10 -20z"/>
<path d="M4195 3244 c-8 -9 -16 -30 -16 -47 0 -18 0 -43 -1 -57 -1 -14 2 -33
6 -42 5 -12 1 -20 -15 -28 -19 -11 -21 -10 -15 5 8 22 -21 83 -47 96 -62 34
-116 29 -149 -14 -10 -12 -18 -16 -18 -9 0 6 -9 21 -20 32 -40 40 -150 17
-150 -31 0 -20 -2 -19 -30 5 -34 28 -93 48 -118 39 -49 -17 -67 -67 -38 -108
7 -11 19 -44 27 -73 16 -66 39 -89 77 -76 15 5 28 17 30 27 3 15 62 82 66 75
1 -2 7 -15 14 -30 9 -21 19 -28 40 -28 35 0 52 16 52 50 0 19 8 30 25 38 21
10 25 9 25 -4 0 -9 16 -32 35 -51 32 -32 39 -35 82 -31 27 3 55 8 64 12 12 5
18 1 22 -13 2 -10 19 -27 37 -36 61 -32 130 2 130 64 l0 24 23 -21 c28 -26 88
-52 123 -52 16 0 36 11 52 28 l27 28 34 -23 c34 -23 112 -32 137 -15 16 10 34
48 34 70 0 15 5 19 20 15 14 -4 20 -14 20 -35 0 -44 17 -68 48 -68 35 0 52 17
52 52 0 26 43 82 54 70 3 -3 6 -18 6 -33 0 -33 27 -54 81 -63 67 -12 114 56
75 109 -10 14 -10 25 -3 46 20 51 -43 110 -97 89 -21 -8 -60 -47 -68 -70 -7
-20 -54 3 -68 33 -12 25 -21 32 -45 32 -23 0 -33 -7 -45 -31 -8 -17 -23 -39
-33 -49 -11 -11 -17 -27 -14 -41 3 -15 0 -21 -10 -17 -7 3 -13 20 -13 39 0 61
-57 92 -113 63 -27 -15 -56 -50 -57 -69 0 -8 -11 5 -23 30 -26 51 -80 85 -119
75 -36 -9 -78 -52 -85 -86 l-6 -30 -18 31 c-15 23 -17 36 -9 50 14 26 13 36
-6 54 -20 20 -48 20 -69 0z m51 -25 c9 -15 -11 -33 -30 -26 -9 4 -13 13 -10
22 7 17 30 20 40 4z m802 -25 c24 -16 30 -54 9 -54 -7 0 -18 5 -25 12 -9 10
-16 9 -28 -4 -14 -14 -12 -17 23 -34 47 -24 67 -69 39 -89 -10 -8 -23 -12 -29
-10 -7 2 -24 6 -39 9 -33 8 -37 33 -6 45 20 7 20 8 -10 19 -42 15 -43 52 -3
93 34 34 39 34 69 13z m-609 -9 c31 -16 54 -61 50 -97 -2 -12 0 -29 4 -36 13
-20 -2 -51 -28 -58 -31 -8 -110 28 -125 56 -23 42 -15 92 19 122 36 32 42 33
80 13z m399 -28 c3 -37 4 -38 33 -32 28 6 30 5 27 -17 -2 -15 -11 -24 -25 -26
-20 -3 -23 -9 -23 -48 0 -33 -4 -44 -15 -44 -17 0 -20 7 -30 63 -5 31 -10 37
-30 37 -18 0 -25 5 -25 20 0 15 7 20 25 20 22 0 25 3 19 24 -7 31 2 48 24 44
12 -2 18 -15 20 -41z m-924 -23 c10 -40 -10 -55 -33 -25 -24 32 -33 14 -25
-50 6 -46 5 -51 -12 -47 -21 4 -46 77 -42 123 3 25 8 30 32 32 15 1 31 4 33 7
11 11 41 -15 47 -40z m-206 9 c50 -31 54 -103 7 -125 -13 -6 -25 -20 -27 -32
-6 -42 -33 -22 -48 36 -8 31 -21 63 -28 70 -18 18 -15 55 6 67 20 11 57 5 90
-16z m354 16 c62 -17 82 -83 40 -131 -21 -24 -73 -23 -106 3 -33 26 -37 88 -6
119 23 23 23 23 72 9z m602 -5 c12 -12 13 -20 6 -35 -13 -24 -40 -25 -40 -2 0
15 -3 14 -22 -5 -27 -26 -17 -51 26 -66 21 -8 29 -6 39 9 16 20 37 13 37 -14
0 -48 -79 -57 -129 -15 -39 32 -41 71 -5 113 28 34 63 40 88 15z m-411 -31
c10 -17 20 -54 24 -81 5 -46 3 -51 -20 -67 -29 -19 -56 -14 -81 14 -14 15 -15
24 -6 40 14 27 30 27 37 1 3 -11 12 -20 20 -20 16 0 11 39 -13 99 -24 58 6 69
39 14z"/>
<path d="M4376 3134 c-9 -23 -9 -23 29 -30 43 -8 50 -3 35 25 -13 25 -55 28
-64 5z"/>
<path d="M4410 3050 c8 -5 24 -10 34 -10 26 0 18 6 -19 14 -22 5 -26 4 -15 -4z"/>
<path d="M3666 3090 c16 -31 28 -37 39 -20 6 10 -29 50 -44 50 -5 0 -3 -13 5
-30z"/>
<path d="M4010 3088 c0 -20 35 -42 56 -34 8 3 14 16 14 30 0 21 -4 24 -35 23
-26 -1 -35 -5 -35 -19z"/>
<path d="M3111 3208 c-17 -17 -31 -41 -31 -52 0 -19 0 -19 -22 2 -53 49 -117
54 -159 13 -17 -17 -29 -24 -29 -16 0 7 -12 23 -27 35 -47 37 -143 7 -143 -44
l0 -20 -15 21 c-21 30 -92 56 -132 48 -50 -9 -70 -66 -39 -111 8 -11 22 -46
31 -78 12 -41 23 -60 38 -65 27 -10 61 1 65 22 2 8 19 32 38 52 27 29 34 33
34 17 0 -10 9 -27 20 -37 16 -15 26 -17 48 -9 22 8 28 16 30 46 2 29 8 37 25
40 16 2 25 -5 34 -24 15 -35 69 -68 111 -68 39 0 92 46 92 79 0 12 4 21 9 21
4 0 6 -11 4 -24 -6 -30 24 -52 84 -62 36 -5 45 -3 67 19 l25 25 22 -24 c31
-33 121 -59 148 -44 27 14 54 67 46 88 -4 10 -9 34 -11 55 -5 50 -19 74 -57
97 -47 29 -80 25 -121 -14 -20 -18 -36 -30 -36 -25 0 4 -12 21 -26 38 -36 43
-80 42 -123 -1z m103 -20 c12 -16 13 -25 4 -35 -9 -11 -14 -11 -30 4 -17 15
-21 15 -28 3 -14 -22 -12 -30 6 -30 17 0 74 -53 74 -69 0 -25 -32 -41 -68 -35
-53 9 -62 22 -33 45 17 14 19 19 8 19 -19 0 -47 27 -47 45 0 7 12 27 26 44 31
37 66 40 88 9z m187 2 c28 -16 51 -67 44 -100 -3 -16 -2 -31 4 -35 16 -9 13
-23 -8 -44 -17 -17 -25 -18 -57 -9 -55 15 -82 35 -94 73 -14 43 -4 80 27 105
28 22 55 25 84 10z m-567 -32 c22 -32 20 -58 -4 -58 -12 0 -20 7 -20 16 0 9
-6 14 -12 11 -8 -2 -13 -24 -13 -58 0 -73 -25 -75 -43 -4 -17 70 -13 98 18
106 44 12 58 10 74 -13z m-221 3 c36 -14 67 -51 67 -80 0 -27 -26 -61 -47 -61
-7 0 -13 -11 -13 -26 0 -45 -32 -25 -50 31 -8 28 -21 60 -28 72 -32 57 4 89
71 64z m425 -27 c25 -29 24 -58 -4 -101 -23 -36 -88 -27 -121 16 -18 23 -16
73 3 100 14 20 23 22 58 18 28 -4 48 -15 64 -33z m213 -11 c-12 -20 -14 -14
-5 12 4 9 9 14 11 11 3 -2 0 -13 -6 -23z"/>
<path d="M3336 3138 c-18 -26 -20 -24 27 -31 31 -5 37 -3 37 12 0 20 -19 41
-36 41 -7 0 -20 -10 -28 -22z"/>
<path d="M3370 3050 c20 -13 43 -13 35 0 -3 6 -16 10 -28 10 -18 0 -19 -2 -7
-10z"/>
<path d="M2590 3112 c0 -16 32 -52 41 -47 13 9 11 21 -7 39 -16 17 -34 21 -34
8z"/>
<path d="M2985 3110 c-4 -6 -16 -8 -27 -4 -29 9 -20 -27 12 -43 29 -15 40 -9
40 22 0 26 -15 41 -25 25z"/>
<path d="M5226 3224 c-9 -8 -16 -18 -17 -22 0 -4 -3 -16 -6 -27 -10 -32 -3
-168 9 -182 6 -7 23 -13 39 -13 36 0 52 29 51 90 0 44 0 43 14 -19 18 -80 29
-95 68 -87 17 4 38 6 46 6 8 0 24 0 35 -1 47 0 58 66 24 156 -27 73 -54 88
-124 70 -44 -11 -51 -11 -59 4 -21 40 -55 51 -80 25z m51 -30 c8 -20 -17 -36
-34 -22 -10 8 -10 14 -2 24 15 18 28 18 36 -2z m156 -26 c21 -16 47 -90 47
-135 0 -27 -4 -34 -17 -31 -11 2 -20 20 -28 53 -13 60 -23 78 -37 69 -7 -4 -8
-28 -4 -66 5 -47 3 -60 -10 -65 -21 -8 -24 -3 -39 69 -7 34 -15 70 -17 78 -2
9 4 15 17 15 11 1 29 6 40 13 25 15 28 15 48 0z m-173 -33 c12 -31 16 -98 6
-113 -4 -7 -13 -12 -20 -12 -14 0 -32 122 -21 140 11 17 25 11 35 -15z m37 -7
c-3 -8 -6 -5 -6 6 -1 11 2 17 5 13 3 -3 4 -12 1 -19z"/>
<path d="M6177 3229 c-9 -5 -21 -28 -27 -51 -11 -40 -12 -40 -27 -19 -8 12
-25 26 -38 31 -28 11 -97 -4 -109 -24 -8 -12 -15 -9 -38 16 -23 25 -33 29 -56
23 -51 -12 -72 -33 -73 -73 -1 -21 -3 -29 -6 -17 -11 45 -56 61 -86 31 -12
-12 -16 -12 -31 5 -21 25 -64 22 -82 -6 -11 -17 -11 -24 1 -45 8 -14 26 -49
40 -78 31 -64 62 -83 100 -58 14 9 30 28 35 42 l10 25 22 -26 c46 -52 140 -42
157 17 6 21 10 26 10 13 1 -11 8 -31 17 -43 32 -46 103 -11 89 45 -3 15 -3 25
1 20 4 -4 18 0 31 8 23 15 23 15 23 -24 0 -42 20 -71 49 -71 20 0 51 30 51 50
0 9 7 7 23 -7 55 -51 123 -58 162 -18 14 13 25 32 25 42 1 11 9 3 21 -20 25
-47 73 -70 127 -62 72 12 81 15 87 34 5 18 8 19 40 5 74 -31 135 -8 135 50 0
19 -6 39 -14 46 -12 9 -12 17 -4 35 17 37 2 73 -37 92 -32 15 -38 15 -68 1
-48 -23 -73 -78 -58 -128 6 -21 11 -46 11 -56 0 -33 -18 5 -31 66 -6 30 -16
61 -21 68 -15 17 -67 15 -75 -4 -5 -13 -8 -12 -25 5 -10 12 -27 21 -37 21 -22
0 -51 -31 -51 -55 0 -14 -4 -13 -21 8 -43 56 -143 56 -173 -1 -9 -17 -15 -21
-20 -13 -4 7 -2 18 4 26 29 35 -24 96 -63 74z m41 -48 c-5 -24 -38 -27 -38 -3
0 10 3 21 6 25 11 11 35 -5 32 -22z m583 9 c11 -6 19 -21 19 -35 0 -27 -18
-33 -38 -13 -9 10 -16 8 -29 -5 -16 -15 -16 -17 -1 -17 27 0 78 -49 78 -75 0
-28 -27 -39 -70 -30 -38 8 -47 23 -27 43 15 14 14 17 -6 27 -32 15 -32 47 -2
84 28 33 44 37 76 21z m-876 -34 c11 -17 15 -42 13 -83 l-3 -58 -43 -3 c-48
-4 -72 10 -72 40 0 25 47 71 65 64 9 -3 15 1 15 10 0 10 -5 14 -15 10 -8 -3
-22 -9 -30 -12 -11 -4 -15 0 -15 15 0 13 9 25 23 31 35 14 45 12 62 -14z m167
-3 c23 -28 28 -50 13 -63 -10 -8 -17 -6 -29 12 -23 32 -36 8 -25 -44 10 -43 6
-58 -16 -58 -16 0 -34 57 -38 117 -2 34 1 38 28 44 47 10 51 10 67 -8z m283
-7 c57 -24 69 -82 28 -128 -27 -30 -90 -19 -120 21 -19 25 -16 78 7 101 24 24
39 25 85 6z m145 -30 c0 -47 28 -95 48 -82 7 4 12 31 12 62 0 47 2 54 20 54
13 0 21 -9 26 -27 3 -16 12 -48 19 -73 16 -51 6 -72 -24 -53 -14 9 -21 8 -33
-3 -11 -11 -21 -12 -39 -6 -38 15 -61 48 -66 96 -6 53 0 76 22 76 11 0 15 -11
15 -44z m-829 -24 c23 -37 29 -41 29 -23 0 31 18 61 35 61 31 0 10 -121 -24
-140 -23 -12 -34 -3 -61 50 -12 25 -29 53 -38 62 -12 14 -12 21 -2 33 16 19
26 12 61 -43z m513 36 c13 -66 13 -98 1 -115 -9 -12 -17 -15 -23 -8 -11 11
-23 131 -14 139 13 13 32 4 36 -16z"/>
<path d="M5867 3073 c-13 -12 -7 -33 8 -33 8 0 15 9 15 20 0 20 -11 26 -23 13z"/>
<path d="M6310 3086 c0 -21 16 -36 40 -38 20 -2 26 2 28 24 3 24 0 26 -32 25
-20 -1 -36 -6 -36 -11z"/>
<path d="M8055 3210 c-10 -11 -18 -30 -19 -42 0 -13 -7 -23 -13 -22 -7 1 -22
2 -33 3 -12 0 -20 8 -20 19 0 56 -85 67 -96 14 -3 -16 -14 -34 -25 -40 -16
-10 -21 -8 -34 18 -8 16 -27 33 -40 36 -34 9 -83 -13 -99 -44 -13 -26 -14 -26
-20 -4 -4 12 -16 27 -27 33 -25 13 -105 2 -124 -18 -12 -12 -17 -11 -36 8 -16
16 -29 20 -62 16 -51 -6 -77 -16 -77 -30 0 -6 -13 1 -28 16 -30 29 -57 33 -96
15 -24 -10 -43 -42 -37 -62 1 -6 -1 -21 -4 -35 -6 -24 -9 -22 -27 27 -23 61
-55 87 -96 78 -15 -3 -38 -9 -52 -12 -32 -6 -53 -34 -45 -59 4 -11 13 -49 21
-85 15 -69 37 -95 69 -84 11 3 36 6 56 5 24 -1 41 5 54 19 16 17 20 18 38 5
24 -17 94 -20 116 -6 8 5 20 22 27 38 11 26 12 26 13 6 1 -26 34 -63 56 -63
26 0 57 39 51 64 -4 17 1 24 23 33 29 10 29 10 40 -33 12 -47 39 -69 71 -59
26 8 43 40 35 65 -4 11 -2 20 4 20 5 0 16 3 25 6 12 5 16 0 16 -18 0 -39 39
-68 92 -68 55 0 78 18 78 62 0 23 4 29 16 24 9 -3 20 -6 25 -6 5 0 9 -15 9
-33 0 -56 41 -88 79 -61 14 10 21 26 21 47 1 22 8 37 25 50 l25 18 0 -39 c0
-45 14 -62 52 -62 33 0 59 41 51 83 -8 43 4 32 37 -33 32 -63 58 -85 91 -75
24 8 59 61 59 90 l1 20 11 -20 c33 -60 122 -104 172 -85 30 11 58 68 45 91 -5
10 -9 32 -9 49 0 64 -53 120 -112 120 -31 0 -85 -34 -93 -59 -5 -17 -9 -19
-31 -9 -18 8 -31 8 -50 -1 -22 -9 -29 -8 -51 9 -27 21 -52 15 -73 -18 -10 -15
-11 -15 -5 3 16 46 16 54 -4 74 -26 26 -43 26 -66 1z m52 -26 c9 -23 -13 -40
-32 -24 -12 10 -13 16 -4 26 15 18 28 18 36 -2z m-169 -38 c3 -35 5 -37 28
-32 14 4 29 4 34 1 16 -10 -8 -45 -30 -45 -17 0 -20 -7 -20 -46 0 -38 -3 -45
-17 -42 -13 2 -19 16 -23 48 -4 37 -9 45 -30 50 -31 7 -33 34 -2 38 18 3 22
10 22 38 0 28 4 35 18 32 12 -2 18 -15 20 -42z m547 8 c18 -20 25 -38 25 -68
0 -23 4 -46 10 -52 15 -15 -17 -54 -46 -54 -99 0 -161 110 -98 174 35 34 77
34 109 0z m-1382 -27 c22 -44 28 -128 10 -134 -14 -5 -14 -5 -38 80 -20 72
-38 66 -34 -12 2 -31 0 -62 -5 -69 -13 -22 -33 4 -41 55 -4 25 -12 57 -18 70
-8 19 -8 26 3 33 7 4 19 6 26 3 6 -2 15 1 19 7 4 6 19 10 33 8 20 -2 32 -13
45 -41z m176 29 c17 -20 24 -126 10 -143 -17 -20 -73 -16 -94 7 -27 30 -10 72
33 85 40 11 43 29 3 20 -35 -7 -47 7 -25 29 19 20 58 21 73 2z m511 -6 c6 -11
10 -48 8 -83 l-3 -62 -44 0 c-51 0 -68 18 -57 59 5 19 17 32 36 39 17 6 30 15
30 19 0 11 -8 10 -31 -2 -15 -9 -21 -7 -26 6 -14 38 67 61 87 24z m-327 -17
c8 -16 12 -34 10 -40 -7 -19 -30 -16 -42 5 -8 13 -12 14 -22 5 -10 -10 -10
-21 -1 -50 9 -30 9 -40 -2 -51 -19 -20 -35 5 -48 78 -13 70 -11 74 51 78 35 2
42 -1 54 -25z m170 0 c8 -16 12 -34 10 -40 -7 -19 -30 -16 -42 5 -7 13 -13 14
-21 6 -8 -9 -9 -22 -1 -50 7 -27 7 -41 -1 -51 -18 -22 -34 1 -48 67 -15 72 -8
84 49 88 35 2 42 -1 54 -25z m456 -1 c12 -23 17 -104 7 -120 -4 -7 -13 -12
-20 -12 -14 0 -29 110 -19 136 7 19 20 17 32 -4z m134 -56 c17 -33 22 -37 24
-21 10 57 14 65 33 65 14 0 20 -7 20 -22 0 -63 -41 -136 -66 -120 -6 4 -21 27
-34 52 -12 25 -29 53 -38 62 -12 14 -12 20 -2 33 16 20 34 6 63 -49z m-896 2
c-3 -8 -6 -5 -6 6 -1 11 2 17 5 13 3 -3 4 -12 1 -19z"/>
<path d="M8406 3124 c-24 -24 -20 -31 22 -36 46 -6 48 -4 34 27 -13 29 -34 32
-56 9z"/>
<path d="M8435 3034 c21 -15 49 -19 41 -5 -3 5 -18 11 -33 14 -26 5 -26 4 -8
-9z"/>
<path d="M7227 3063 c-12 -11 -8 -23 8 -23 8 0 15 7 15 15 0 16 -12 20 -23 8z"/>
<path d="M7730 3055 c-10 -13 -9 -15 9 -15 12 0 21 6 21 15 0 8 -4 15 -9 15
-5 0 -14 -7 -21 -15z"/>
<path d="M8700 3223 c-51 -19 -75 -76 -45 -107 9 -9 11 -17 5 -21 -15 -9 -12
-51 5 -65 8 -7 15 -20 15 -29 0 -23 20 -41 45 -41 25 0 45 18 45 41 0 31 29
30 58 -2 23 -25 38 -33 78 -36 47 -5 52 -3 77 27 15 17 27 41 28 53 1 12 5 5
10 -17 12 -52 25 -66 60 -66 33 0 53 29 46 66 -2 14 -2 23 0 20 3 -3 16 -1 29
4 21 8 24 6 34 -29 15 -57 35 -69 105 -67 39 2 68 -2 82 -11 27 -18 62 -8 72
20 12 31 -22 177 -45 194 -10 7 -31 13 -47 13 -15 0 -38 5 -49 11 -17 9 -30 7
-64 -11 -24 -11 -46 -25 -49 -31 -10 -15 -23 -10 -30 10 -8 26 -51 39 -99 31
-35 -7 -50 -18 -59 -45 -2 -5 -15 0 -30 12 -58 46 -132 37 -167 -19 l-19 -32
-11 28 c-5 15 -10 36 -10 47 0 19 -33 60 -47 58 -5 0 -15 -3 -23 -6z m44 -86
c6 -36 14 -57 23 -57 21 0 15 -27 -7 -33 -14 -3 -20 -14 -20 -31 0 -16 -6 -26
-15 -26 -9 0 -15 9 -15 25 0 14 -7 28 -15 31 -8 4 -15 12 -15 20 0 8 7 14 15
14 10 0 15 10 15 29 0 24 -3 28 -20 24 -25 -7 -27 22 -3 49 29 32 47 18 57
-45z m395 -3 c12 -15 21 -32 21 -39 0 -22 -30 -26 -42 -5 -22 35 -31 22 -24
-35 5 -45 3 -57 -9 -62 -22 -8 -26 -2 -40 68 -16 75 -12 87 28 92 18 2 35 5
39 5 4 1 16 -10 27 -24z m212 9 c25 -3 40 -12 47 -27 14 -31 26 -132 17 -146
-12 -20 -32 8 -40 57 -8 56 -14 73 -27 73 -6 0 -7 -21 -3 -54 6 -43 4 -54 -8
-59 -22 -8 -34 11 -40 66 -2 26 -8 51 -11 55 -15 14 -27 -25 -21 -70 11 -88
-37 -71 -53 19 -9 52 -2 73 24 73 6 0 17 7 25 16 8 10 20 13 33 9 12 -4 37 -9
57 -12z m-416 -8 c48 -19 61 -56 38 -104 -19 -38 -38 -47 -79 -37 -58 15 -83
84 -48 134 18 26 41 28 89 7z"/>
<path d="M8915 3090 c-4 -6 -15 -8 -26 -5 -31 10 -25 -33 7 -45 32 -13 44 -6
44 25 0 26 -15 41 -25 25z"/>
<path d="M9499 3205 c-15 -8 -34 -31 -44 -51 -14 -31 -15 -43 -6 -74 6 -21 11
-47 11 -59 0 -45 113 -68 150 -31 23 23 26 72 6 90 -12 9 -12 17 -4 35 15 34
2 72 -32 90 -35 18 -47 18 -81 0z m75 -31 c19 -19 21 -54 3 -54 -7 0 -18 5
-25 12 -9 10 -16 8 -29 -5 -16 -15 -16 -17 -1 -17 27 0 78 -49 78 -75 0 -28
-27 -39 -70 -30 -39 9 -46 22 -24 46 14 16 15 19 2 19 -43 0 -47 62 -6 100 26
24 51 26 72 4z"/>
</g>
</svg>
