<?xml version="1.0" standalone="no"?>
<!DOCTYPE svg PUBLIC "-//W3C//DTD SVG 20010904//EN"
 "http://www.w3.org/TR/2001/REC-SVG-20010904/DTD/svg10.dtd">
<svg version="1.0" xmlns="http://www.w3.org/2000/svg"
 width="1080.000000pt" height="720.000000pt" viewBox="0 0 1080.000000 720.000000"
 preserveAspectRatio="xMidYMid meet">

<g transform="translate(0.000000,720.000000) scale(0.100000,-0.100000)"
fill="#000000" stroke="none">
<path d="M7444 4029 c-56 -29 -48 -106 14 -124 l32 -9 0 -168 c0 -128 -3 -168
-12 -168 -7 0 -26 -7 -41 -15 -25 -13 -30 -12 -47 5 -23 23 -34 24 -94 8 -35
-9 -51 -9 -71 0 -46 21 -19 34 56 26 120 -12 155 21 137 130 -9 63 -46 118
-93 141 -56 26 -151 18 -198 -18 -103 -79 -111 -282 -13 -378 53 -53 191 -63
259 -20 28 18 30 18 47 1 12 -12 42 -18 116 -23 130 -8 164 -1 185 40 l16 32
24 -26 c46 -50 133 -67 210 -42 114 38 166 211 103 338 -82 163 -308 143 -364
-33 -7 -23 -11 -68 -8 -111 l5 -72 -34 10 -33 10 0 217 c0 207 -1 218 -21 236
-24 22 -141 30 -175 13z m147 -29 c18 -10 19 -24 19 -245 l0 -234 42 -3 c32
-2 44 -8 46 -21 8 -39 -15 -47 -133 -47 -121 0 -143 9 -130 50 5 15 15 20 44
20 l38 0 7 77 c3 42 6 134 6 204 l0 128 -42 3 c-39 3 -43 6 -46 32 -2 16 2 32
10 37 18 12 116 11 139 -1z m-265 -180 c40 -25 67 -89 62 -151 l-3 -44 -112
-3 c-67 -1 -113 -7 -113 -13 0 -5 6 -25 14 -44 17 -41 36 -47 131 -43 65 3 70
2 73 -19 5 -35 -37 -55 -116 -57 -124 -2 -182 59 -182 194 0 136 51 200 159
200 37 0 64 -6 87 -20z m658 -3 c118 -67 113 -298 -8 -356 -55 -27 -101 -26
-156 2 -61 31 -90 87 -90 177 0 121 67 200 170 200 28 0 60 -9 84 -23z"/>
<path d="M7196 3748 c-13 -13 -27 -33 -31 -45 -6 -22 -4 -23 69 -23 70 0 76 2
76 20 0 27 -43 70 -69 70 -11 0 -31 -10 -45 -22z m64 -18 c11 -7 6 -10 -20
-10 -26 0 -31 3 -20 10 8 5 17 10 20 10 3 0 12 -5 20 -10z"/>
<path d="M7850 3742 c-49 -49 -49 -163 0 -207 26 -23 74 -24 99 -1 49 44 46
170 -4 214 -35 29 -61 28 -95 -6z m88 -37 c15 -32 16 -110 2 -136 -15 -28 -66
-26 -81 3 -16 30 -16 102 1 133 19 35 63 34 78 0z"/>
<path d="M332 4023 c-36 -14 -42 -57 -42 -298 l0 -236 25 -24 c33 -34 77 -33
104 1 18 23 21 41 21 118 1 84 2 89 15 65 29 -54 107 -60 144 -13 l19 24 4
-91 c3 -81 6 -93 27 -110 30 -25 76 -24 101 1 19 19 20 33 20 273 0 252 0 254
-23 275 -27 26 -64 28 -95 6 -12 -8 -44 -59 -71 -112 l-49 -97 -51 102 c-28
56 -60 107 -70 113 -20 10 -57 12 -79 3z m128 -140 c34 -65 65 -121 69 -126 4
-4 36 48 72 115 51 97 69 124 87 126 50 7 52 -2 52 -263 0 -264 -2 -274 -55
-261 l-25 6 -2 163 -3 162 -29 -55 c-50 -96 -64 -111 -100 -108 -28 3 -35 11
-73 83 l-42 80 -1 -152 c0 -124 -3 -154 -16 -167 -20 -21 -38 -20 -60 1 -15
15 -16 40 -12 253 2 130 8 242 12 248 4 7 20 12 36 12 26 0 33 -9 90 -117z"/>
<path d="M3684 4002 c-91 -43 -139 -143 -138 -287 2 -177 74 -275 213 -292 65
-7 156 20 191 57 l27 29 12 -25 c13 -29 82 -63 127 -64 17 0 45 5 63 11 23 8
39 8 60 0 34 -15 77 1 88 33 8 23 5 270 -4 299 -4 17 -3 17 16 -2 12 -12 27
-21 35 -21 14 0 22 -50 25 -170 4 -113 110 -180 216 -136 88 37 68 146 -25
133 -51 -7 -54 0 -45 98 7 75 7 75 37 75 16 0 37 4 47 10 12 6 29 5 49 -2 25
-10 31 -18 36 -56 3 -25 6 -71 6 -104 0 -65 14 -100 55 -138 23 -21 36 -25 90
-25 73 0 117 24 125 69 l5 27 18 -29 c48 -82 229 -97 308 -26 16 14 18 14 24
-5 9 -28 62 -41 172 -41 104 0 140 12 150 49 14 53 -12 91 -64 91 l-33 0 0 79
c0 61 3 80 15 85 9 3 15 0 15 -8 0 -28 41 -66 71 -66 48 0 69 30 69 100 0 120
-48 154 -160 115 -29 -10 -47 -12 -60 -5 -10 6 -48 10 -83 10 -51 0 -68 -4
-82 -20 -35 -38 -10 -110 39 -110 20 0 21 -6 24 -90 l3 -90 -25 0 c-14 0 -34
-9 -45 -21 l-19 -21 -7 22 c-9 29 -50 44 -88 30 -43 -15 -93 -12 -107 5 -11
13 -2 15 74 15 101 0 120 8 136 54 24 73 -25 185 -94 217 -142 64 -277 -35
-278 -203 0 -36 3 -76 7 -89 7 -21 6 -22 -9 -10 -11 9 -29 12 -56 7 -51 -8
-55 0 -45 99 l7 75 34 0 c42 0 74 30 74 68 0 36 -27 61 -72 68 -30 5 -36 11
-46 48 -11 41 -40 66 -76 66 -29 0 -66 -41 -66 -74 0 -27 -6 -34 -36 -48 -31
-14 -39 -14 -62 -2 -15 8 -39 14 -54 14 -25 0 -28 4 -28 34 0 96 -130 98 -138
3 -2 -22 -8 -37 -16 -37 -26 0 -66 -41 -66 -68 l0 -27 -20 31 c-27 43 -90 69
-160 67 -103 -2 -162 -45 -146 -108 10 -39 45 -51 110 -35 52 12 76 9 76 -11
0 -5 -22 -9 -48 -9 -76 0 -132 -35 -157 -96 -20 -48 -20 -49 -47 -36 -22 10
-33 10 -66 -3 -58 -24 -120 -16 -145 16 -40 55 -32 208 13 257 29 31 100 32
100 2 0 -29 44 -70 75 -70 40 0 65 33 65 85 0 96 -48 136 -170 142 -59 3 -84
0 -116 -15z m196 -28 c47 -19 60 -38 60 -91 0 -58 -31 -81 -64 -47 -9 8 -16
26 -16 39 0 27 -22 37 -77 37 -69 0 -111 -53 -120 -152 -8 -87 4 -146 38 -184
37 -43 81 -52 144 -31 63 22 89 17 93 -18 3 -24 -2 -30 -40 -47 -53 -24 -165
-27 -207 -5 -33 17 -79 68 -93 104 -44 113 -18 303 48 363 55 50 156 63 234
32z m618 -27 c6 -7 12 -33 14 -57 l3 -45 55 -5 c42 -4 56 -9 58 -23 6 -31 -17
-47 -69 -47 l-49 0 0 -101 c0 -130 6 -140 73 -137 52 3 52 3 52 -27 0 -27 -5
-32 -44 -44 -59 -19 -114 -2 -141 42 -17 27 -20 51 -20 150 l0 117 -28 0 c-32
0 -52 16 -52 42 0 20 32 40 58 36 14 -2 18 6 20 42 4 50 16 70 42 70 10 0 22
-6 28 -13z m320 0 c6 -7 12 -33 14 -57 l3 -45 55 -5 c42 -4 56 -9 58 -23 6
-31 -17 -47 -69 -47 l-49 0 0 -101 c0 -130 6 -140 73 -137 52 3 52 3 52 -27 0
-26 -5 -32 -42 -44 -57 -20 -116 -3 -143 42 -17 27 -20 51 -20 150 l0 117 -29
0 c-60 0 -70 62 -11 70 33 5 35 7 38 50 4 50 16 70 42 70 10 0 22 -6 28 -13z
m-560 -131 l37 -34 6 -149 c3 -85 1 -153 -4 -160 -13 -18 -56 -16 -63 2 -5 13
-10 12 -37 -1 -40 -21 -120 -21 -153 1 -34 22 -57 79 -50 120 12 62 70 95 167
95 l61 0 -7 33 c-12 56 -48 69 -126 46 -43 -14 -69 -1 -69 33 0 28 54 47 133
48 63 0 70 -2 105 -34z m976 19 c48 -23 78 -82 74 -147 l-3 -53 -105 -3 c-58
-1 -108 -6 -113 -11 -5 -5 -2 -24 6 -43 20 -47 60 -62 127 -46 58 13 80 6 80
-25 0 -30 -36 -47 -110 -54 -76 -6 -136 25 -168 87 -31 60 -29 193 4 237 51
69 135 92 208 58z m455 6 c8 -5 15 -34 18 -73 4 -50 2 -66 -10 -77 -28 -22
-56 -4 -63 40 -7 43 -14 44 -77 12 l-28 -14 3 -97 3 -97 50 -5 c48 -5 50 -6
50 -35 l0 -30 -126 -3 c-106 -2 -128 0 -139 14 -21 24 0 48 44 52 l36 3 0 119
0 119 -37 3 c-35 3 -38 6 -38 33 0 30 0 30 64 33 48 2 67 -1 73 -11 6 -12 15
-11 60 4 58 20 96 23 117 10z"/>
<path d="M4092 3608 c-7 -7 -12 -21 -12 -33 0 -29 19 -45 53 -45 52 0 87 27
87 68 0 20 -4 22 -58 22 -32 0 -63 -5 -70 -12z m73 -34 c-22 -17 -46 -15 -53
4 -2 8 8 12 35 12 36 -1 37 -1 18 -16z"/>
<path d="M5131 3767 c-14 -6 -31 -27 -38 -44 l-13 -33 75 0 c69 0 75 2 75 20
0 23 -42 70 -62 70 -7 0 -24 -6 -37 -13z m59 -37 c0 -5 -14 -10 -31 -10 -17 0
-28 4 -24 10 3 6 17 10 31 10 13 0 24 -4 24 -10z"/>
<path d="M5906 3987 l-26 -26 0 -246 0 -246 26 -26 c24 -24 29 -25 118 -21 74
3 103 9 147 31 77 38 126 117 130 212 1 26 4 13 9 -35 12 -128 57 -188 157
-211 92 -22 213 24 213 80 0 11 -11 32 -24 48 l-24 27 -62 -12 c-56 -12 -64
-11 -88 5 l-27 18 102 5 c117 6 132 15 133 85 1 34 8 21 48 -95 45 -129 49
-136 84 -153 31 -15 44 -17 72 -7 18 6 40 18 48 28 21 23 118 314 118 351 0
36 -33 71 -67 71 -44 0 -62 -22 -95 -120 l-32 -95 -28 90 c-30 97 -52 125 -98
125 -40 0 -74 -44 -66 -85 6 -28 5 -27 -19 11 -30 51 -82 78 -150 78 -88 0
-150 -45 -180 -130 -12 -36 -14 -37 -18 -14 -3 14 -8 45 -12 68 -11 82 -60
149 -135 187 -23 12 -67 20 -132 23 -93 4 -97 4 -122 -21z m206 -18 c41 -9 62
-21 94 -54 53 -54 68 -108 62 -224 -4 -77 -8 -96 -34 -137 -45 -73 -93 -94
-215 -94 -79 0 -98 3 -103 16 -3 9 -6 118 -6 244 0 194 2 231 16 244 19 19
107 21 186 5z m493 -162 c47 -47 71 -147 43 -175 -8 -8 -49 -12 -119 -12
l-108 0 10 -32 c14 -53 45 -71 104 -64 88 12 97 11 109 -6 9 -14 6 -22 -12
-40 -19 -19 -36 -23 -100 -26 -67 -3 -81 -1 -111 20 -58 38 -76 81 -76 173 0
139 47 195 164 195 58 0 66 -3 96 -33z m216 -112 l46 -140 44 134 c27 81 51
139 62 145 22 14 51 -3 55 -34 4 -27 -95 -316 -115 -336 -20 -20 -77 -18 -95
4 -9 9 -39 90 -69 179 -46 139 -51 163 -39 178 8 9 24 15 39 13 24 -3 30 -14
72 -143z"/>
<path d="M5997 3725 c-4 -98 -4 -182 0 -188 8 -13 100 -1 129 18 76 50 85 242
15 309 -21 20 -42 29 -83 33 l-55 5 -6 -177z m92 134 c55 -19 81 -106 61 -204
-12 -60 -30 -78 -87 -89 l-33 -5 0 154 c0 169 -2 165 59 144z"/>
<path d="M6451 3744 c-12 -15 -21 -35 -21 -46 0 -17 7 -19 73 -16 70 3 72 4
69 28 -9 62 -83 83 -121 34z m74 -14 c4 -6 -7 -10 -27 -10 -25 0 -29 3 -18 10
19 13 37 13 45 0z"/>
<path d="M3199 3986 c-26 -13 -49 -50 -49 -81 0 -14 -10 -25 -31 -32 -17 -7
-33 -21 -36 -32 -7 -26 -15 -26 -38 -1 -9 10 -37 27 -61 36 -83 32 -180 0
-226 -74 l-23 -37 -6 44 c-10 76 -65 99 -160 66 -29 -11 -46 -12 -53 -5 -5 5
-41 10 -78 10 -76 0 -108 -19 -108 -65 0 -30 32 -65 60 -65 19 0 20 -7 20 -90
0 -88 -1 -90 -23 -90 -13 0 -32 -10 -43 -21 -19 -21 -19 -20 -24 109 -5 141
-12 160 -74 206 -37 28 -174 30 -223 3 -37 -20 -51 -57 -35 -92 14 -31 53 -41
110 -27 25 5 51 8 59 5 28 -11 10 -20 -47 -26 -70 -6 -123 -40 -146 -91 -12
-28 -13 -21 -14 91 0 114 -2 124 -22 143 -17 16 -31 20 -53 15 -37 -7 -44 -7
-121 1 -83 9 -129 -16 -168 -90 l-14 -28 -7 45 c-11 75 -51 95 -143 71 -42
-11 -63 -12 -80 -5 -13 6 -48 11 -78 11 -45 0 -59 -4 -79 -25 -14 -13 -25 -33
-25 -45 0 -24 42 -70 65 -70 12 0 15 -15 15 -85 0 -65 -3 -85 -14 -85 -7 0
-25 -9 -40 -21 -30 -24 -27 -35 -30 116 -2 109 -14 146 -62 184 -56 44 -155
50 -232 14 -57 -27 -65 -87 -16 -120 22 -14 32 -14 80 -3 38 9 58 10 65 3 8
-8 -5 -13 -43 -18 -29 -4 -64 -13 -78 -20 -167 -86 -65 -323 119 -276 29 7 56
9 71 3 32 -12 68 -3 85 21 l15 21 23 -22 c21 -20 33 -22 150 -22 114 0 129 2
147 20 20 20 26 65 12 86 -11 18 -48 34 -76 34 -23 0 -26 4 -25 38 0 56 13
115 24 119 6 2 16 -10 22 -27 16 -43 57 -59 94 -38 l29 17 0 -52 c0 -60 25
-121 63 -157 30 -28 34 -40 14 -40 -23 0 -47 -35 -47 -68 0 -40 35 -67 105
-82 98 -20 191 13 226 81 11 23 23 70 26 109 l6 69 21 -42 c30 -59 73 -80 151
-72 77 7 84 7 122 -1 26 -5 37 -1 57 19 24 24 25 24 43 5 39 -38 265 -36 304
3 43 43 9 109 -56 109 l-35 0 0 79 c0 63 3 80 16 85 23 9 24 8 24 -14 0 -46
76 -80 108 -48 9 9 12 5 12 -18 0 -44 27 -127 51 -158 80 -101 319 -85 319 22
0 51 -28 65 -112 57 -61 -6 -76 -4 -87 9 -12 14 -5 16 78 16 79 0 94 3 112 21
17 17 20 30 17 80 -1 32 -2 59 -1 59 1 0 14 -5 28 -12 24 -11 25 -15 25 -92 0
-97 12 -145 46 -186 49 -57 153 -62 206 -9 35 34 35 62 2 95 -25 25 -39 27
-88 8 -14 -5 -16 6 -16 84 l0 89 42 6 c46 6 78 35 78 69 0 32 -45 68 -85 68
-32 0 -35 2 -35 31 0 42 -15 65 -49 77 -20 7 -35 7 -52 -2z m59 -38 c7 -7 12
-31 12 -55 l0 -43 49 0 c54 0 77 -17 66 -50 -5 -17 -15 -20 -61 -20 l-54 0 0
-109 c0 -86 3 -113 16 -125 18 -19 25 -20 58 -5 49 23 78 -34 34 -65 -28 -20
-100 -21 -137 -1 -42 21 -54 63 -55 188 l-1 112 -35 5 c-31 4 -35 8 -35 35 0
27 3 30 38 33 l37 3 0 48 c0 26 3 51 7 54 11 11 48 8 61 -5z m-2198 -103 c48
-25 57 -56 61 -210 2 -77 0 -146 -4 -152 -11 -17 -42 -16 -57 2 -11 13 -15 13
-41 0 -15 -8 -49 -15 -74 -15 -84 0 -125 39 -125 118 0 74 54 112 160 112 56
0 60 2 60 23 0 12 -7 33 -16 45 -17 24 -63 29 -110 12 -64 -25 -102 39 -41 68
34 16 153 14 187 -3z m274 -1 c15 -14 20 -14 59 1 24 9 63 15 88 13 l44 -3 8
-55 c10 -72 3 -100 -26 -100 -31 0 -47 18 -47 52 0 32 -14 35 -65 14 l-35 -15
0 -100 0 -100 46 -3 c54 -3 77 -26 58 -55 -10 -16 -28 -18 -134 -18 -106 0
-124 2 -134 18 -17 26 4 51 48 55 l36 3 0 115 0 114 -29 0 c-28 0 -61 22 -61
40 0 38 112 57 144 24z m478 0 c28 -15 32 -15 40 0 11 19 42 21 55 4 6 -8 8
-96 5 -225 -5 -238 -11 -261 -77 -289 -44 -18 -136 -18 -181 1 -30 12 -35 19
-32 42 3 31 17 33 110 18 42 -7 49 -5 72 18 42 43 35 54 -36 53 -119 -2 -178
64 -178 199 0 86 25 146 72 175 40 24 107 26 150 4z m415 -4 c52 -32 61 -60
63 -210 1 -74 2 -141 1 -147 -1 -15 -53 -17 -67 -3 -6 6 -25 3 -54 -7 -114
-41 -219 48 -177 149 20 48 64 70 149 76 59 4 68 7 68 24 0 23 -43 68 -64 68
-9 0 -36 -5 -61 -12 -39 -11 -47 -10 -61 4 -57 57 122 108 203 58z m461 8 c9
-11 17 -98 13 -135 -2 -18 -40 -26 -56 -13 -8 7 -15 25 -15 41 0 38 -11 42
-59 23 l-41 -16 0 -104 0 -104 49 0 c52 0 67 -14 55 -52 -5 -17 -16 -18 -137
-16 l-132 3 0 30 c0 27 3 30 38 33 l37 3 0 120 0 119 -29 0 c-35 0 -55 22 -46
50 6 17 15 20 71 20 49 0 66 -4 71 -16 3 -9 12 -13 22 -8 84 36 141 44 159 22z
m320 -15 c15 -11 35 -35 44 -54 21 -39 24 -119 6 -137 -8 -8 -48 -12 -116 -12
l-104 0 7 -27 c3 -16 15 -37 26 -48 20 -20 24 -20 149 -12 31 2 35 -1 38 -23
4 -32 -23 -49 -88 -57 -69 -8 -115 3 -155 38 -42 37 -59 85 -58 166 1 125 70
199 176 190 27 -2 61 -13 75 -24z"/>
<path d="M943 3633 c-31 -6 -46 -29 -39 -58 8 -32 46 -42 94 -23 33 12 37 18
37 48 0 33 -2 35 -35 36 -19 1 -45 0 -57 -3z m57 -42 c0 -11 -48 -24 -60 -16
-21 13 -8 25 25 25 19 0 35 -4 35 -9z"/>
<path d="M1705 3766 c-47 -47 -42 -176 8 -211 22 -15 73 -20 101 -9 13 5 16
25 16 111 l0 104 -35 15 c-47 19 -62 18 -90 -10z m69 -16 c25 -9 26 -12 26
-95 l0 -85 -34 0 c-18 0 -39 7 -46 15 -20 24 -16 132 6 156 20 22 16 22 48 9z"/>
<path d="M2088 3619 c-22 -12 -23 -52 -3 -69 18 -15 88 -8 110 10 8 7 15 25
15 41 0 28 -1 29 -52 29 -29 0 -61 -5 -70 -11z m82 -28 c0 -11 -25 -21 -51
-21 -19 0 -25 11 -12 23 10 10 63 8 63 -2z"/>
<path d="M2894 3779 c-24 -8 -39 -27 -48 -56 -7 -22 -6 -23 69 -23 l77 0 -7
27 c-4 16 -11 33 -16 39 -13 16 -51 22 -75 13z m51 -39 c4 -6 -7 -10 -25 -10
-18 0 -29 4 -25 10 3 6 15 10 25 10 10 0 22 -4 25 -10z"/>
<path d="M10352 3958 c-15 -8 -27 -27 -35 -56 -6 -24 -19 -47 -27 -50 -29 -10
-50 -35 -50 -61 l0 -26 -21 32 c-30 47 -80 67 -148 59 -70 -8 -79 -8 -118 0
-26 5 -37 1 -59 -21 -22 -22 -25 -32 -20 -63 3 -20 6 -101 6 -178 0 -123 2
-145 18 -165 25 -30 75 -30 105 0 20 20 22 34 26 151 3 118 5 131 23 141 42
23 48 8 48 -126 0 -139 11 -178 54 -189 32 -8 72 8 86 34 7 13 10 72 8 163
l-3 142 31 -15 32 -15 3 -100 c5 -118 26 -170 80 -197 110 -57 256 35 178 113
-18 18 -28 20 -65 14 l-44 -6 0 90 0 91 38 0 c20 0 42 4 48 8 21 13 36 54 29
79 -6 25 -56 53 -95 53 -16 0 -20 6 -20 34 0 25 -7 40 -26 55 -30 23 -48 25
-82 9z m66 -31 c6 -7 12 -33 14 -57 l3 -45 52 -3 c42 -2 53 -7 58 -23 11 -32
-12 -49 -66 -49 l-49 0 0 -109 c0 -127 5 -136 73 -126 36 6 45 4 51 -10 22
-58 -72 -97 -144 -60 -53 28 -60 48 -60 182 l0 122 -37 3 c-35 3 -38 6 -38 33
0 27 4 31 35 35 33 5 35 7 38 50 4 50 16 70 42 70 10 0 22 -6 28 -13z m-447
-113 c16 -14 20 -14 48 0 39 21 106 20 142 -1 46 -27 59 -76 59 -221 0 -134
-5 -152 -45 -152 -40 0 -45 17 -45 156 0 107 -3 136 -16 148 -21 21 -52 20
-91 -4 l-32 -19 -3 -138 -3 -138 -32 -3 c-23 -2 -33 1 -37 15 -8 30 -11 347
-3 361 11 17 37 15 58 -4z"/>
<path d="M8154 3858 c-12 -5 -26 -20 -30 -32 -5 -11 -7 -135 -4 -275 l5 -254
26 -20 c58 -43 119 7 119 96 l0 35 60 4 c39 3 70 11 88 25 34 25 72 80 79 115
6 29 23 29 23 -1 0 -34 54 -101 99 -123 75 -36 209 -20 247 30 20 25 17 59 -7
83 -18 18 -28 20 -97 14 -65 -6 -80 -5 -91 9 -12 15 -5 16 82 16 92 0 96 1
117 28 18 22 21 36 17 78 -14 134 -114 207 -237 174 -56 -15 -116 -75 -126
-125 -7 -40 -24 -57 -24 -25 0 28 -33 90 -62 117 -46 43 -112 54 -171 29 -28
-11 -36 -11 -52 0 -22 16 -32 17 -61 2z m52 -32 c18 -13 26 -13 65 1 96 35
177 -15 199 -121 33 -161 -49 -277 -185 -263 l-54 5 -3 -71 c-3 -71 -3 -72
-32 -75 -16 -2 -32 0 -37 5 -4 4 -9 122 -10 262 -1 205 1 255 12 262 19 12 21
11 45 -5z m570 -5 c27 -12 46 -30 57 -53 23 -49 31 -111 18 -137 -11 -19 -20
-21 -116 -21 -99 0 -105 -1 -105 -21 0 -61 54 -88 136 -69 48 12 57 12 71 -3
61 -61 -147 -108 -224 -50 -52 38 -68 79 -68 173 0 103 24 151 89 181 52 23
90 23 142 0z"/>
<path d="M8287 3759 c-53 -14 -57 -24 -57 -130 l0 -98 39 -12 c30 -9 44 -9 67
2 42 21 55 54 52 131 -5 92 -36 125 -101 107z m61 -54 c15 -32 16 -110 2 -136
-8 -13 -21 -19 -45 -19 l-35 0 0 84 c0 87 3 94 46 95 13 1 25 -8 32 -24z"/>
<path d="M8651 3734 c-37 -46 -29 -54 53 -54 72 0 74 1 69 23 -15 61 -85 79
-122 31z m84 -14 c4 -6 -8 -10 -30 -10 -22 0 -34 4 -30 10 3 6 17 10 30 10 13
0 27 -4 30 -10z"/>
<path d="M9056 3860 c-16 -5 -49 -6 -73 -3 -34 4 -48 2 -63 -12 -19 -17 -20
-31 -20 -200 0 -169 1 -184 21 -209 15 -19 30 -26 54 -26 24 0 39 7 54 26 19
24 21 40 21 149 0 127 9 155 45 141 12 -4 15 -28 15 -134 0 -116 2 -132 21
-156 15 -19 30 -26 54 -26 24 0 39 7 54 26 19 24 21 40 21 155 0 119 1 128 20
134 11 3 24 3 30 0 6 -4 10 -60 10 -136 0 -72 4 -139 10 -149 13 -24 59 -39
87 -29 48 17 55 47 51 201 -3 126 -6 147 -25 178 -42 68 -138 95 -208 59 -28
-14 -34 -14 -70 3 -44 19 -65 21 -109 8z m122 -46 c19 -13 26 -13 52 1 35 18
109 20 145 3 45 -20 59 -61 63 -183 4 -138 -5 -189 -36 -193 -46 -7 -52 10
-52 154 0 107 -3 136 -16 148 -18 19 -44 20 -79 4 -25 -11 -25 -12 -25 -140 0
-140 -7 -168 -45 -168 -37 0 -45 28 -45 167 0 87 -4 133 -12 141 -17 17 -59
15 -86 -4 -21 -14 -22 -22 -22 -148 0 -136 -5 -156 -41 -156 -42 0 -46 20 -45
207 l2 178 25 3 c14 2 31 -3 38 -11 10 -13 17 -12 49 5 41 21 89 18 130 -8z"/>
<path d="M9619 3855 c-150 -47 -186 -301 -59 -408 71 -60 205 -60 271 -1 25
22 24 69 -1 94 -23 23 -35 24 -96 9 -34 -9 -51 -9 -71 0 -40 18 -19 26 72 26
69 0 87 3 105 20 20 18 22 27 17 87 -9 138 -112 212 -238 173z m147 -44 c39
-24 67 -90 62 -152 l-3 -44 -112 -3 c-94 -2 -113 -5 -113 -18 0 -21 20 -56 39
-71 20 -16 78 -16 120 -2 60 21 86 -42 28 -69 -43 -21 -150 -18 -189 5 -53 31
-80 91 -80 178 0 87 21 138 72 173 43 29 131 31 176 3z"/>
<path d="M9642 3753 c-17 -7 -44 -61 -37 -73 3 -6 37 -10 76 -10 61 0 69 2 69
19 0 31 -39 71 -68 70 -15 0 -33 -3 -40 -6z m63 -33 c4 -6 -7 -10 -25 -10 -18
0 -29 4 -25 10 3 6 15 10 25 10 10 0 22 -4 25 -10z"/>
<path d="M4426 3258 c-9 -12 -16 -34 -16 -49 0 -17 -9 -32 -24 -42 -12 -9 -31
-32 -41 -53 -15 -31 -15 -43 -6 -75 14 -45 42 -63 114 -72 39 -6 51 -3 67 13
16 16 24 18 39 9 27 -18 70 -3 77 26 6 26 18 32 29 16 3 -5 1 -12 -5 -16 -33
-20 10 -98 68 -122 57 -24 112 13 112 75 0 15 7 17 34 14 28 -3 37 1 51 22 10
14 15 36 13 49 -4 21 -2 22 18 13 14 -7 24 -23 28 -44 7 -45 23 -62 57 -62 32
0 41 10 48 59 6 35 31 56 31 26 0 -9 11 -27 25 -40 32 -33 116 -36 138 -5 14
20 14 20 31 -5 20 -30 56 -33 80 -6 16 17 17 32 11 123 -10 136 -22 167 -67
168 -36 0 -51 -30 -45 -89 4 -38 3 -49 -3 -34 -14 34 -55 56 -87 48 -36 -9
-63 -33 -63 -57 0 -18 -1 -18 -16 -4 -8 9 -23 16 -33 16 -10 0 -17 8 -18 21
-3 29 -22 49 -48 49 -24 0 -55 -28 -55 -51 0 -8 -9 -22 -21 -32 -20 -17 -20
-17 -13 18 5 27 2 41 -11 55 -44 49 -84 6 -93 -97 -5 -65 -20 -67 -21 -2 -1
35 -31 60 -80 66 -36 5 -43 2 -72 -28 -21 -23 -29 -27 -24 -14 17 44 16 61 -4
79 -36 32 -74 11 -87 -49 -1 -5 -7 -21 -12 -35 -9 -22 -11 -18 -11 28 -1 53
-13 90 -35 104 -20 14 -45 8 -60 -14z m111 -180 c-3 -8 -6 -5 -6 6 -1 11 2 17
5 13 3 -3 4 -12 1 -19z"/>
<path d="M6707 3262 c-11 -11 -17 -36 -17 -62 l0 -44 -20 22 c-45 48 -142 9
-131 -52 1 -6 -1 -21 -4 -35 -6 -24 -8 -23 -25 23 -33 85 -58 99 -143 75 -21
-5 -41 -17 -44 -25 -4 -12 -8 -11 -20 6 -23 32 -53 40 -93 23 -40 -16 -50 -28
-50 -63 0 -14 -3 -43 -6 -65 -8 -56 16 -85 78 -92 62 -7 88 17 89 85 l1 47 14
-65 c16 -71 22 -81 50 -81 70 1 117 9 130 23 14 14 19 14 43 2 39 -21 97 -18
121 6 18 18 21 18 27 4 15 -40 85 -36 98 6 6 20 7 20 37 -5 27 -23 54 -30 103
-26 24 2 65 45 65 69 1 16 1 16 10 0 6 -10 7 -25 1 -41 -18 -47 49 -120 110
-120 49 0 74 34 72 96 -1 63 -28 166 -47 185 -7 7 -32 16 -55 19 -36 5 -44 2
-68 -24 l-26 -29 -22 22 c-28 28 -89 46 -120 34 -12 -5 -31 -20 -42 -34 l-20
-25 -6 62 c-4 47 -11 66 -27 79 -28 23 -43 23 -63 0z"/>
<path d="M5956 3254 c-9 -8 -16 -29 -16 -45 0 -21 -9 -38 -29 -55 -17 -14 -33
-34 -37 -46 -5 -18 -10 -14 -31 30 -13 28 -33 54 -44 57 -36 12 -118 -5 -133
-27 -14 -20 -14 -20 -20 0 -4 11 -20 25 -35 32 -24 10 -36 9 -65 -5 -34 -16
-44 -33 -45 -75 0 -8 -4 -30 -7 -48 -9 -47 11 -80 57 -92 41 -11 85 -5 96 14
4 6 10 34 13 61 l6 50 8 -50 c12 -74 30 -98 69 -91 46 9 50 9 69 1 12 -4 25 2
43 19 14 14 25 21 25 17 0 -17 68 -41 114 -41 38 0 48 4 62 25 14 22 15 34 5
82 -6 31 -11 76 -11 100 0 85 -50 131 -94 87z"/>
<path d="M1362 3237 c-6 -7 -13 -24 -16 -37 -3 -14 -9 -41 -14 -60 l-9 -35 -7
32 c-4 17 -18 44 -32 58 -20 22 -31 26 -57 21 -18 -3 -42 -7 -54 -10 -36 -5
-55 -27 -50 -55 21 -106 37 -156 53 -168 18 -13 56 -8 62 8 2 5 12 3 23 -4 16
-10 25 -9 49 5 24 13 35 14 59 5 25 -9 33 -8 50 8 12 10 21 25 21 34 0 11 4 9
16 -7 39 -56 138 -71 178 -27 21 22 25 23 36 10 7 -8 20 -15 29 -15 9 0 24 -9
34 -20 40 -47 106 -4 93 62 l-6 31 23 -34 c26 -40 64 -60 122 -67 37 -4 45 -1
64 24 19 24 21 35 15 88 -8 75 -33 118 -80 141 -30 14 -41 15 -65 5 -38 -16
-79 -65 -79 -95 0 -22 -1 -22 -33 10 -19 19 -38 49 -43 67 -8 26 -16 34 -37
36 -46 5 -57 -12 -57 -89 0 -57 -3 -67 -15 -63 -9 4 -15 19 -15 40 0 44 -30
74 -74 74 -37 0 -81 -29 -91 -60 -4 -11 -11 -20 -16 -20 -13 0 -11 27 3 49 26
42 -49 96 -80 58z m-25 -159 c-3 -8 -6 -5 -6 6 -1 11 2 17 5 13 3 -3 4 -12 1
-19z"/>
<path d="M3300 3243 c-29 -7 -44 -47 -48 -134 -4 -78 -2 -89 17 -108 26 -26
32 -26 66 1 25 20 27 25 22 72 -7 61 7 42 18 -24 10 -64 21 -80 55 -80 16 0
31 4 35 10 4 6 14 5 29 -1 29 -13 62 1 71 31 9 30 -13 124 -38 162 -27 39 -63
46 -125 25 -39 -14 -41 -13 -44 6 -3 23 -36 46 -58 40z"/>
<path d="M3011 3205 c-33 -38 -40 -79 -20 -117 6 -11 8 -23 4 -26 -11 -11 -25
22 -25 60 0 29 -8 45 -35 73 -59 58 -135 41 -174 -40 -15 -30 -20 -35 -21 -18
0 29 -48 66 -78 60 -12 -2 -25 0 -28 4 -10 17 -51 9 -100 -18 -35 -20 -49 -23
-52 -14 -8 24 -41 51 -62 51 -50 0 -103 -51 -85 -80 3 -5 -1 -22 -9 -37 l-15
-28 -1 27 c-1 83 -81 126 -143 78 -33 -26 -42 -69 -24 -112 10 -24 12 -40 5
-52 -26 -47 62 -134 121 -121 38 8 61 39 61 82 0 32 12 43 25 23 9 -14 112
-13 121 2 4 6 11 25 15 42 7 30 7 30 8 5 1 -34 30 -70 56 -70 83 2 106 -1 130
-13 46 -24 91 14 78 65 -6 22 -4 21 21 -8 33 -39 113 -67 151 -53 13 5 31 23
40 39 15 30 16 30 34 12 28 -28 96 -37 126 -17 33 22 42 60 21 91 -13 20 -14
30 -6 45 23 42 -21 100 -76 100 -24 0 -40 -9 -63 -35z"/>
<path d="M3720 3222 c-11 -9 -22 -27 -23 -39 -1 -13 -7 -23 -14 -23 -18 0 -35
-37 -28 -61 4 -11 18 -25 31 -31 18 -8 24 -19 24 -43 0 -74 91 -88 98 -15 2
20 13 43 27 56 l24 22 3 -41 c3 -36 7 -43 33 -52 16 -5 38 -18 47 -27 23 -23
43 -23 68 2 11 11 20 27 20 35 0 19 14 19 30 1 17 -22 107 -49 135 -42 42 11
57 46 49 115 -3 33 -15 73 -25 90 -24 39 -72 64 -109 56 -35 -8 -90 -67 -90
-97 0 -20 -1 -20 -25 6 -13 14 -29 26 -35 26 -5 0 -10 11 -10 24 0 29 -24 56
-50 56 -26 0 -50 -27 -50 -56 0 -37 -42 -29 -55 10 -13 38 -47 51 -75 28z"/>
<path d="M7948 3219 c-19 -11 -37 -66 -39 -119 -1 -20 -3 -26 -6 -15 -15 71
-35 87 -121 100 -35 6 -52 2 -88 -16 -24 -13 -44 -28 -44 -33 0 -5 -10 6 -23
25 -27 40 -61 48 -106 24 -28 -14 -37 -31 -32 -59 4 -18 -9 -56 -19 -56 -6 0
-10 13 -10 29 0 91 -138 110 -171 23 -8 -20 -6 -37 6 -69 11 -29 13 -48 7 -60
-22 -41 46 -117 103 -117 50 0 75 27 75 81 0 44 0 44 22 29 43 -30 138 -15
138 22 1 15 2 14 15 -3 30 -41 35 -44 101 -43 36 0 71 -5 77 -11 16 -16 53
-13 73 6 10 11 29 16 48 15 50 -5 70 25 63 90 -7 63 7 44 18 -22 9 -59 30 -90
60 -90 13 0 26 4 30 10 3 5 15 6 29 0 16 -6 32 -4 49 5 23 12 26 11 31 -10 9
-34 72 -85 105 -85 69 0 96 72 67 173 -9 30 -16 65 -16 76 0 24 -52 61 -85 61
-30 0 -65 -28 -81 -64 -7 -17 -13 -25 -14 -18 0 28 -32 80 -54 90 -23 10 -94
-2 -125 -22 -9 -6 -12 -5 -8 1 8 13 -30 63 -46 63 -7 0 -20 -5 -29 -11z m289
-211 c-3 -8 -6 -5 -6 6 -1 11 2 17 5 13 3 -3 4 -12 1 -19z"/>
<path d="M8530 3184 c-27 -31 -31 -43 -27 -73 18 -120 21 -125 89 -136 47 -8
89 16 98 56 6 23 7 22 18 -10 7 -19 12 -42 12 -52 0 -23 34 -59 55 -59 17 0
37 20 74 72 l25 35 22 -26 c19 -22 31 -26 74 -26 43 0 55 4 67 22 l15 23 29
-25 c57 -47 138 -45 167 4 l16 29 18 -23 c18 -23 94 -55 130 -55 11 0 30 12
45 26 23 23 25 31 19 77 -5 36 -3 48 4 37 5 -8 10 -26 10 -40 0 -34 10 -47 43
-59 42 -16 82 -13 107 7 26 21 30 66 7 89 -12 12 -13 21 -5 39 6 12 8 34 4 48
-6 25 -50 56 -80 56 -21 0 -76 -49 -87 -78 l-10 -26 -19 32 c-20 32 -66 62
-95 62 -47 0 -105 -63 -105 -115 0 -39 -25 -26 -27 14 -2 47 -28 71 -76 71
-31 0 -45 -6 -68 -31 -16 -18 -31 -30 -32 -28 -2 2 -8 16 -15 32 -17 40 -56
52 -101 30 -32 -16 -37 -23 -41 -63 l-5 -45 -18 32 c-29 54 -111 84 -159 59
-26 -14 -29 -13 -40 7 -31 59 -91 64 -138 11z m144 -90 c3 -8 2 -12 -4 -9 -6
3 -10 10 -10 16 0 14 7 11 14 -7z"/>
</g>
</svg>
