<?xml version="1.0" standalone="no"?>
<!DOCTYPE svg PUBLIC "-//W3C//DTD SVG 20010904//EN"
 "http://www.w3.org/TR/2001/REC-SVG-20010904/DTD/svg10.dtd">
<svg version="1.0" xmlns="http://www.w3.org/2000/svg"
 width="1088.000000pt" height="688.000000pt" viewBox="0 0 1088.000000 688.000000"
 preserveAspectRatio="xMidYMid meet">

<g transform="translate(0.000000,688.000000) scale(0.100000,-0.100000)"
fill="#000000" stroke="none">
<path d="M7366 4849 c-14 -11 -26 -30 -26 -43 0 -33 28 -66 56 -66 l24 0 0
-157 0 -158 -40 -17 c-22 -9 -40 -13 -40 -8 0 23 -42 32 -90 20 -49 -12 -90
-7 -90 11 0 5 36 9 80 9 67 0 83 3 100 20 36 36 21 150 -28 203 -68 75 -210
63 -268 -22 l-24 -36 0 33 c0 61 -64 93 -108 55 -11 -10 -30 -49 -42 -88 -12
-38 -26 -74 -30 -78 -4 -4 -17 26 -29 68 -12 42 -31 85 -41 95 -35 35 -93 20
-111 -27 l-10 -26 -27 25 c-41 38 -70 50 -122 50 -88 0 -148 -46 -176 -135
l-13 -42 0 51 c-2 117 -65 210 -162 238 -62 19 -158 21 -193 5 -43 -20 -47
-49 -44 -287 4 -269 -2 -257 126 -256 97 0 148 14 193 51 31 27 69 91 69 118
0 30 17 6 23 -32 8 -47 59 -111 103 -129 47 -20 142 -18 184 4 60 30 72 87 24
119 -20 13 -31 13 -73 3 -50 -12 -91 -7 -91 11 0 5 35 9 78 9 101 0 122 13
123 78 0 45 2 43 39 -67 22 -62 46 -124 55 -137 30 -46 130 -40 157 10 7 11
28 71 47 132 l36 111 0 -71 c0 -140 70 -216 199 -216 42 0 74 6 100 20 39 19
39 19 64 0 21 -17 40 -20 123 -20 109 0 146 12 155 47 l7 24 26 -25 c35 -33
72 -46 132 -46 91 0 158 58 180 155 38 172 -86 313 -237 270 -96 -28 -157
-140 -137 -250 l9 -52 -28 11 -28 10 0 189 c0 247 -5 257 -119 257 -44 0 -65
-5 -85 -21z m158 -25 c14 -13 16 -48 16 -225 l0 -209 28 0 c49 0 72 -49 33
-70 -25 -13 -187 -13 -212 0 -39 21 -16 70 33 70 l28 0 0 189 0 190 -37 3
c-41 3 -55 27 -33 53 18 21 123 20 144 -1z m-1344 -45 c66 -36 100 -107 100
-208 0 -104 -14 -148 -64 -197 -31 -32 -54 -44 -94 -53 -74 -15 -134 -14 -160
5 -22 15 -22 19 -22 234 0 265 -5 254 115 248 61 -3 92 -10 125 -29z m400
-118 c36 -25 60 -78 60 -132 0 -57 -4 -59 -121 -59 -83 0 -89 -1 -89 -20 0
-12 12 -33 26 -47 22 -22 31 -25 72 -20 26 3 54 8 63 12 9 3 24 -1 33 -10 39
-39 -35 -81 -131 -73 -64 6 -100 29 -128 84 -41 81 -14 232 48 265 55 30 123
30 167 0z m690 0 c50 -35 80 -147 48 -179 -8 -8 -46 -12 -105 -12 -92 0 -93 0
-93 -24 0 -30 43 -66 79 -66 14 0 41 4 59 9 43 13 62 5 62 -26 0 -30 -49 -53
-115 -53 -93 0 -145 42 -166 136 -15 66 -1 144 34 187 43 54 139 68 197 28z
m576 18 c181 -46 152 -369 -33 -369 -92 0 -145 46 -164 143 -9 44 -8 65 5 109
17 61 47 94 103 113 47 17 36 17 89 4z m-1049 -134 c29 -89 45 -124 49 -110 3
11 22 70 42 130 36 107 38 110 67 110 27 0 30 -3 32 -35 1 -21 -17 -90 -45
-170 -39 -112 -52 -137 -74 -150 -25 -13 -31 -13 -55 0 -24 13 -36 38 -80 169
-57 167 -58 195 -5 189 24 -3 29 -13 69 -133z"/>
<path d="M6020 4559 l0 -171 55 4 c88 7 125 57 125 167 0 118 -42 171 -135
171 l-45 0 0 -171z m115 117 c29 -29 39 -77 33 -153 -4 -46 -10 -61 -32 -80
-15 -13 -40 -23 -57 -23 l-30 0 2 140 3 140 28 0 c17 0 39 -10 53 -24z"/>
<path d="M6450 4590 c-38 -38 -27 -50 45 -50 58 0 65 2 65 19 0 48 -72 69
-110 31z m63 -17 c-7 -2 -19 -2 -25 0 -7 3 -2 5 12 5 14 0 19 -2 13 -5z"/>
<path d="M7136 4588 c-29 -41 -21 -48 49 -48 58 0 65 2 65 19 0 50 -85 71
-114 29z m67 -15 c-7 -2 -19 -2 -25 0 -7 3 -2 5 12 5 14 0 19 -2 13 -5z"/>
<path d="M7751 4584 c-41 -52 -21 -183 30 -199 60 -19 102 26 102 111 0 71
-25 108 -75 112 -29 2 -40 -2 -57 -24z m90 -26 c15 -28 15 -99 0 -127 -15 -27
-57 -28 -71 -2 -5 11 -10 41 -10 66 0 25 5 55 10 66 15 26 56 25 71 -3z"/>
<path d="M702 4817 c-21 -23 -22 -31 -22 -260 0 -230 1 -237 22 -257 29 -27
64 -25 93 5 22 22 25 32 25 105 l0 81 24 -27 c18 -22 32 -28 60 -27 21 1 45 8
55 17 17 16 19 15 25 -6 3 -13 6 -46 6 -74 0 -83 56 -119 114 -73 l26 20 0
235 0 235 -25 24 c-27 28 -61 32 -90 11 -11 -8 -40 -55 -65 -105 l-44 -91 -48
93 c-26 50 -55 98 -65 104 -26 20 -67 15 -91 -10z m74 -15 c6 -4 37 -58 69
-120 l59 -113 60 118 c52 100 65 118 87 121 47 5 50 -8 47 -253 -3 -204 -5
-229 -20 -239 -13 -8 -23 -8 -35 0 -16 10 -18 31 -21 160 l-3 149 -40 -73
c-22 -40 -47 -76 -55 -79 -35 -13 -59 7 -96 79 l-37 73 0 -148 c-1 -147 -1
-147 -26 -159 -19 -8 -28 -8 -40 2 -13 10 -15 48 -15 239 0 163 3 230 12 239
13 13 38 15 54 4z"/>
<path d="M3860 4824 c-71 -31 -109 -86 -130 -189 -22 -105 6 -232 63 -293 71
-77 238 -85 313 -15 l26 24 18 -24 c29 -37 72 -50 138 -43 71 8 70 8 109 0 24
-5 36 -1 53 16 21 21 22 29 18 160 -2 88 0 136 6 130 6 -6 18 -10 28 -10 16 0
18 -10 18 -82 0 -108 12 -149 56 -187 29 -26 43 -31 84 -31 61 0 97 16 116 51
27 54 -11 95 -82 87 l-29 -3 0 83 0 82 35 0 c20 0 41 5 48 12 9 9 15 9 24 0 7
-7 20 -12 30 -12 16 0 18 -10 18 -82 0 -108 12 -149 56 -187 29 -26 43 -31 87
-31 57 0 117 28 117 55 0 21 8 19 46 -15 18 -16 50 -32 69 -36 58 -11 143 1
173 23 l28 21 27 -24 c26 -22 37 -24 132 -24 57 0 115 5 129 11 67 31 39 129
-36 129 -28 0 -28 0 -28 69 0 76 16 98 37 49 24 -55 103 -57 124 -2 9 25 5 90
-8 137 -3 11 -20 25 -38 33 -28 11 -41 11 -90 -1 -39 -11 -62 -12 -75 -5 -10
5 -42 10 -70 10 -41 0 -56 -5 -75 -25 -14 -13 -25 -33 -25 -45 0 -26 34 -60
60 -60 18 0 20 -7 20 -80 0 -61 -3 -80 -14 -80 -7 0 -25 -9 -40 -21 -14 -11
-26 -16 -26 -10 0 6 -11 18 -25 27 -21 14 -32 14 -74 4 -50 -12 -91 -7 -91 11
0 5 36 9 79 9 104 0 127 16 124 89 -1 59 -34 133 -68 155 -59 39 -157 37 -215
-4 -52 -37 -86 -146 -71 -225 l7 -40 -48 0 c-57 0 -59 4 -56 98 l3 67 36 0
c42 0 69 24 69 61 0 39 -22 60 -68 66 -39 5 -42 8 -42 38 0 40 -26 65 -68 65
-34 0 -72 -38 -72 -74 0 -13 -11 -27 -29 -37 -24 -14 -32 -14 -52 -3 -13 7
-36 13 -51 14 -25 0 -28 4 -28 33 0 20 -8 41 -18 50 -19 17 -68 22 -88 9 -16
-10 -34 -48 -34 -70 0 -12 -11 -24 -30 -32 -18 -7 -33 -22 -36 -37 l-7 -24
-26 24 c-41 39 -72 50 -131 50 -105 -1 -168 -50 -142 -108 15 -32 54 -48 88
-35 33 13 84 13 84 0 0 -5 -19 -10 -42 -10 -82 -1 -158 -56 -158 -115 0 -13
-7 -15 -34 -10 -20 4 -52 1 -80 -9 -56 -19 -89 -13 -116 21 -16 21 -20 41 -20
104 0 91 10 122 44 145 30 19 76 12 76 -12 0 -22 46 -64 70 -64 32 0 70 44 70
80 0 56 -26 99 -72 120 -52 24 -148 26 -198 4z m185 -29 c53 -22 77 -112 36
-135 -28 -15 -50 -2 -59 34 -11 42 -65 58 -118 33 -48 -23 -66 -69 -66 -169 0
-101 22 -147 77 -166 33 -11 46 -10 91 4 62 19 88 16 92 -12 9 -61 -151 -98
-238 -54 -49 25 -76 63 -95 136 -19 74 -19 115 0 189 18 69 55 122 99 141 41
18 138 18 181 -1z m583 -67 l3 -48 42 0 c53 0 70 -11 65 -41 -3 -21 -9 -24
-55 -27 l-53 -3 0 -89 c0 -49 4 -101 10 -115 9 -24 13 -26 53 -20 48 7 73 -9
61 -39 -14 -37 -111 -49 -153 -20 -38 27 -51 74 -51 184 l0 100 -30 0 c-55 0
-51 62 4 68 23 3 26 8 26 41 0 44 16 63 50 59 22 -3 25 -8 28 -50z m300 0 l3
-48 42 0 c53 0 70 -11 65 -41 -3 -21 -9 -24 -55 -27 l-53 -3 1 -87 c1 -48 4
-98 8 -112 7 -23 11 -25 58 -22 38 2 52 -1 56 -12 15 -39 -23 -66 -91 -66 -83
0 -112 53 -112 200 l0 100 -30 0 c-55 0 -51 62 4 68 23 3 26 8 26 41 0 44 16
63 50 59 22 -3 25 -8 28 -50z m-551 -64 c48 -30 57 -59 61 -199 4 -109 2 -133
-11 -144 -16 -13 -57 -7 -57 9 0 5 -16 2 -35 -6 -79 -33 -166 -5 -183 59 -13
48 -5 80 29 113 26 24 39 29 99 32 68 4 70 5 70 31 0 15 -5 32 -12 39 -13 13
-82 15 -113 3 -42 -17 -75 30 -41 58 36 30 149 33 193 5z m903 16 c11 0 35
-14 54 -31 27 -23 37 -43 46 -84 18 -88 10 -95 -110 -95 -94 0 -100 -1 -100
-20 0 -12 12 -33 26 -47 22 -22 31 -25 72 -20 26 3 54 8 63 12 18 7 52 -21 46
-39 -6 -21 -72 -46 -122 -46 -102 0 -167 69 -168 178 0 73 16 121 52 156 29
28 83 48 109 40 8 -2 22 -4 32 -4z m443 1 c20 -8 25 -18 31 -64 7 -67 1 -87
-28 -87 -30 0 -46 18 -46 52 0 33 2 32 -50 12 l-40 -16 0 -94 0 -94 39 0 c48
0 76 -23 61 -50 -5 -9 -17 -20 -26 -24 -26 -10 -194 -7 -215 4 -39 21 -16 70
33 70 l28 0 0 109 0 110 -37 3 c-41 3 -55 27 -33 53 18 21 116 20 128 -1 8
-14 12 -14 48 0 21 8 48 17 59 19 11 3 21 5 22 6 1 0 13 -3 26 -8z"/>
<path d="M4253 4460 c-17 -7 -23 -18 -23 -39 0 -41 41 -54 95 -29 19 9 25 19
25 45 0 32 -2 33 -37 32 -21 0 -48 -4 -60 -9z m67 -30 c0 -12 -48 -25 -58 -16
-8 9 18 26 41 26 9 0 17 -4 17 -10z"/>
<path d="M5204 4603 c-11 -8 -34 -47 -34 -57 0 -3 32 -6 70 -6 l70 0 -13 33
c-11 26 -19 32 -48 35 -19 1 -39 -1 -45 -5z m49 -30 c-7 -2 -19 -2 -25 0 -7 3
-2 5 12 5 14 0 19 -2 13 -5z"/>
<path d="M3380 4790 c-11 -11 -20 -33 -20 -48 0 -22 -7 -30 -31 -39 -17 -7
-33 -21 -36 -32 -6 -25 -16 -26 -34 -5 -59 71 -208 58 -263 -23 l-24 -34 -6
34 c-12 64 -52 82 -133 61 -43 -11 -64 -12 -81 -5 -32 15 -115 14 -134 -1 -46
-37 -38 -104 13 -115 l29 -5 0 -79 c0 -60 -3 -79 -14 -79 -7 0 -25 -9 -40 -21
l-26 -20 0 108 c0 119 -13 160 -61 195 -56 42 -172 41 -229 -1 -31 -23 -38
-71 -13 -93 23 -21 38 -23 95 -14 26 5 53 4 60 0 8 -6 -9 -11 -48 -15 -70 -7
-112 -31 -138 -81 -17 -33 -17 -32 -13 75 3 97 2 111 -16 134 -17 21 -25 24
-56 19 -51 -8 -52 -8 -94 2 -57 15 -105 -2 -154 -55 l-43 -46 0 31 c0 48 -30
77 -80 75 -23 -1 -57 -7 -75 -13 -24 -8 -40 -8 -54 -1 -11 6 -43 11 -71 11
-41 0 -56 -5 -75 -25 -14 -13 -25 -33 -25 -45 0 -26 34 -60 60 -60 18 0 20 -7
20 -80 0 -61 -3 -80 -14 -80 -7 0 -25 -9 -40 -21 l-26 -20 0 100 c0 115 -16
170 -60 201 -103 73 -300 17 -259 -74 16 -34 50 -47 91 -35 43 12 78 12 78 -1
0 -5 -19 -10 -42 -10 -55 0 -107 -26 -135 -69 -41 -61 -22 -153 39 -191 28
-18 43 -20 98 -16 84 7 80 7 117 0 25 -5 37 -1 56 18 23 23 23 23 39 3 14 -17
29 -20 123 -23 66 -3 117 1 134 8 76 31 50 130 -33 130 -25 0 -26 2 -26 69 0
50 4 70 14 74 10 4 18 -4 25 -24 12 -35 50 -53 85 -39 22 8 24 6 29 -40 7 -60
39 -124 73 -146 l25 -17 -30 -13 c-33 -14 -51 -56 -34 -83 23 -36 62 -54 130
-58 57 -4 75 -1 113 19 60 31 90 88 90 173 l0 60 19 -41 c12 -27 30 -46 54
-57 39 -19 112 -22 151 -7 16 6 27 6 31 0 12 -19 64 -11 82 13 l17 24 17 -21
c16 -19 27 -21 144 -21 121 0 128 1 146 24 10 13 19 32 19 43 0 27 -45 68 -75
68 -26 0 -26 0 -23 72 3 74 21 102 31 50 7 -36 54 -60 85 -43 18 10 20 6 27
-37 12 -83 58 -148 118 -171 44 -17 137 -13 177 7 60 30 72 87 24 119 -20 13
-31 13 -73 3 -50 -12 -91 -7 -91 11 0 5 36 9 80 9 67 0 83 3 100 20 21 21 24
34 21 91 -2 34 -1 36 23 32 26 -5 26 -6 26 -100 0 -149 39 -203 147 -203 41 0
58 5 82 26 60 50 29 122 -49 111 l-40 -5 0 84 0 84 35 0 c40 0 75 28 75 60 0
31 -44 70 -80 70 -24 0 -30 4 -30 21 0 23 -18 60 -34 71 -21 14 -66 8 -86 -12z
m78 -22 c7 -7 12 -29 12 -49 l0 -38 46 -3 c50 -3 72 -22 61 -52 -5 -12 -19
-16 -57 -16 l-50 0 0 -104 c0 -73 4 -107 13 -113 6 -4 32 -8 57 -8 38 0 45 -3
48 -22 4 -29 -33 -53 -85 -53 -33 0 -50 7 -75 29 l-33 29 -3 121 -4 121 -27 0
c-26 0 -51 16 -51 31 0 16 33 39 56 39 22 0 24 4 24 43 0 24 3 47 7 50 11 11
48 8 61 -5z m-2057 -104 c45 -23 57 -66 60 -208 2 -101 -1 -130 -12 -137 -20
-13 -35 -11 -49 6 -11 13 -15 13 -41 0 -15 -8 -49 -15 -75 -15 -39 0 -51 5
-80 34 -27 27 -34 42 -34 73 0 74 54 113 156 113 l57 0 -7 32 c-3 18 -12 36
-19 40 -6 5 -44 6 -83 3 -62 -6 -72 -4 -78 11 -22 57 122 90 205 48z m418 16
c13 -6 21 -26 25 -63 8 -65 1 -87 -30 -87 -25 0 -44 26 -44 59 0 25 1 25 -50
5 l-40 -16 0 -94 0 -94 39 0 c23 0 46 -7 55 -16 20 -19 20 -23 -1 -46 -13 -15
-32 -18 -115 -18 -105 0 -138 9 -138 38 0 26 20 42 52 42 l28 0 0 110 0 110
-34 0 c-26 0 -36 5 -41 20 -11 34 12 50 71 50 37 0 56 -5 62 -15 7 -13 13 -14
38 -4 16 6 45 15 64 19 19 4 36 8 38 9 2 0 11 -3 21 -9z m283 -15 c23 -11 29
-11 39 1 16 19 47 18 56 -3 5 -10 6 -107 3 -215 l-5 -197 -29 -30 c-38 -40
-86 -55 -149 -48 -77 10 -111 39 -88 76 8 12 18 13 64 2 74 -16 126 4 127 49
0 12 -14 15 -69 15 -66 0 -72 2 -104 33 -72 69 -77 213 -11 292 41 48 99 57
166 25z m383 5 c51 -20 59 -43 66 -193 4 -89 3 -147 -3 -154 -14 -18 -45 -16
-56 2 -7 14 -12 14 -41 -1 -49 -25 -128 -15 -158 20 -31 37 -38 70 -22 113 19
48 67 73 141 73 52 0 58 2 58 21 0 42 -18 59 -63 58 -23 0 -51 -4 -62 -8 -42
-17 -75 30 -41 58 32 27 124 32 181 11z m435 0 c17 -17 20 -31 18 -78 -3 -56
-4 -57 -32 -57 -26 0 -31 5 -39 35 -5 19 -10 36 -12 38 -1 2 -19 -5 -39 -14
l-36 -18 0 -93 0 -93 38 0 c41 0 62 -14 62 -42 0 -29 -33 -38 -139 -38 -77 0
-103 4 -115 16 -9 8 -16 19 -16 24 0 17 32 40 56 40 24 0 24 0 24 110 l0 110
-30 0 c-38 0 -58 31 -34 54 21 21 107 22 124 1 8 -10 20 -13 29 -9 18 8 102
32 114 33 4 1 16 -8 27 -19z m297 -6 c47 -30 80 -122 62 -173 -8 -20 -15 -21
-109 -21 -94 0 -100 -1 -100 -20 0 -12 12 -33 26 -47 22 -22 31 -25 72 -20 26
3 54 8 63 12 25 9 51 -22 39 -45 -24 -44 -165 -53 -217 -14 -90 68 -90 267 0
324 48 30 119 32 164 4z m-1160 -390 c-3 -3 -12 -4 -19 -1 -8 3 -5 6 6 6 11 1
17 -2 13 -5z"/>
<path d="M1283 4463 c-14 -3 -25 -14 -29 -29 -13 -49 37 -69 96 -39 23 12 30
22 30 45 0 28 -2 30 -37 29 -21 -1 -48 -4 -60 -6z m53 -38 c-22 -17 -56 -20
-56 -6 0 12 19 19 50 20 24 0 24 0 6 -14z"/>
<path d="M1993 4584 c-11 -18 -17 -47 -17 -92 0 -58 3 -67 28 -88 26 -23 68
-30 100 -18 13 5 16 24 16 100 0 85 -2 94 -22 108 -36 25 -85 21 -105 -10z
m81 -10 c13 -5 16 -22 16 -85 l0 -79 -29 0 c-41 0 -55 23 -55 86 1 72 22 96
68 78z"/>
<path d="M2370 4457 c-30 -15 -36 -39 -15 -61 38 -37 115 -7 115 45 0 27 -3
29 -37 29 -21 0 -49 -6 -63 -13z m70 -27 c0 -13 -46 -24 -61 -14 -9 5 -7 10 7
15 28 11 54 11 54 -1z"/>
<path d="M3090 4590 c-38 -38 -27 -50 45 -50 58 0 65 2 65 19 0 48 -72 69
-110 31z m63 -17 c-7 -2 -19 -2 -25 0 -7 3 -2 5 12 5 14 0 19 -2 13 -5z"/>
<path d="M10087 4792 c-10 -10 -17 -32 -17 -49 0 -24 -5 -32 -25 -37 -14 -4
-32 -18 -41 -32 l-17 -25 -26 25 c-40 37 -100 50 -152 32 -30 -11 -47 -12 -55
-5 -21 17 -66 6 -84 -21 -15 -22 -17 -44 -11 -197 5 -156 8 -174 26 -187 29
-22 63 -19 90 9 24 23 25 30 25 144 0 120 0 121 24 127 14 3 30 3 35 -1 7 -4
11 -53 11 -129 0 -115 1 -124 23 -144 30 -29 62 -28 92 3 24 23 25 29 25 156
0 115 2 130 16 125 9 -3 22 -6 30 -6 11 0 14 -20 14 -95 0 -112 14 -156 62
-185 50 -32 142 -24 175 14 28 32 29 56 6 85 -19 24 -45 29 -80 17 -23 -7 -23
-6 -23 78 l0 86 35 0 c40 0 75 28 75 60 0 31 -44 70 -80 70 -24 0 -30 4 -30
21 0 23 -18 60 -34 71 -21 14 -73 8 -89 -10z m81 -24 c7 -7 12 -29 12 -50 l0
-38 44 0 c49 0 71 -18 61 -50 -5 -17 -15 -20 -56 -20 l-49 0 0 -104 c0 -119
10 -138 59 -119 34 12 61 0 61 -27 0 -42 -86 -65 -143 -39 -45 21 -57 57 -57
178 l0 111 -34 0 c-38 0 -52 20 -36 51 7 12 21 19 40 19 29 0 30 2 30 43 0 24
3 47 7 50 11 11 48 8 61 -5z m-240 -105 c42 -26 53 -72 50 -210 -3 -107 -6
-128 -20 -137 -13 -8 -23 -8 -35 0 -15 9 -19 32 -23 140 -3 71 -9 135 -13 142
-10 15 -58 16 -91 1 -25 -12 -25 -14 -28 -142 -3 -111 -6 -131 -20 -141 -13
-8 -23 -8 -35 0 -16 10 -19 34 -24 175 -3 97 -2 169 4 177 13 17 42 15 57 -3
9 -11 16 -12 26 -4 36 30 107 31 152 2z"/>
<path d="M8158 4706 c-21 -8 -42 -10 -50 -5 -23 15 -64 10 -82 -10 -21 -23
-20 -15 -18 -284 2 -217 2 -218 27 -242 52 -52 115 -15 115 68 l0 47 45 0 c83
0 141 43 169 125 l12 34 13 -37 c28 -80 93 -122 186 -122 100 0 167 47 146
103 -16 40 -44 51 -101 37 -49 -12 -90 -7 -90 11 0 5 34 9 76 9 82 0 110 10
124 43 6 16 9 -1 9 -56 1 -48 7 -89 16 -106 23 -45 67 -54 106 -22 22 18 24
28 29 148 5 120 6 128 25 128 19 0 20 -8 25 -128 5 -120 7 -130 29 -148 30
-25 62 -24 89 1 20 19 22 31 23 128 2 150 1 147 27 150 22 3 22 2 22 -108 0
-129 14 -176 55 -186 36 -9 73 10 86 43 6 16 9 80 7 153 -2 104 -6 131 -23
160 -40 67 -131 93 -201 57 -21 -11 -34 -13 -41 -6 -21 21 -85 28 -124 15 -22
-8 -43 -10 -51 -5 -23 15 -57 10 -78 -11 -16 -16 -20 -34 -21 -87 -1 -38 -3
-59 -6 -48 -20 91 -61 139 -129 153 -97 21 -189 -30 -216 -120 l-12 -41 -9 34
c-25 96 -124 156 -209 125z m122 -45 c47 -33 65 -79 65 -161 0 -87 -20 -130
-76 -168 -28 -20 -44 -23 -91 -20 l-58 4 0 -62 c0 -72 -15 -94 -55 -76 l-24
11 -3 228 c-2 125 1 236 5 246 10 21 40 22 57 2 9 -11 16 -12 26 -4 38 31 110
31 154 0z m357 3 c48 -30 81 -122 62 -171 -8 -22 -13 -23 -109 -23 -94 0 -100
-1 -100 -20 0 -12 12 -33 26 -47 22 -22 31 -25 72 -20 26 3 54 8 63 12 18 7
52 -21 46 -39 -12 -39 -136 -59 -201 -32 -99 41 -124 224 -42 313 46 51 126
62 183 27z m362 -1 c22 -14 27 -14 54 2 42 25 111 24 145 -2 40 -29 51 -74 51
-205 1 -93 -2 -120 -15 -132 -21 -22 -40 -20 -58 6 -12 17 -16 50 -16 138 0
125 -5 140 -50 140 -54 0 -59 -14 -62 -154 -3 -110 -6 -130 -20 -140 -13 -8
-23 -8 -35 0 -15 9 -19 32 -23 140 -3 71 -9 135 -13 142 -10 15 -51 16 -78 2
-17 -10 -19 -22 -19 -135 0 -99 -3 -127 -16 -139 -22 -22 -41 -20 -59 8 -13
19 -15 52 -13 182 l3 159 28 3 c17 2 29 -2 33 -12 5 -12 11 -12 47 4 44 20 75
18 116 -7z"/>
<path d="M8143 4598 c-22 -10 -23 -17 -23 -109 l0 -98 37 -7 c73 -14 118 44
107 136 -8 64 -27 90 -67 89 -17 0 -42 -5 -54 -11z m84 -45 c11 -42 8 -110 -7
-128 -7 -8 -25 -15 -41 -15 l-29 0 0 79 c0 83 3 89 47 90 17 1 25 -7 30 -26z"/>
<path d="M8524 4603 c-11 -8 -34 -47 -34 -57 0 -3 32 -6 70 -6 l70 0 -13 33
c-11 26 -19 32 -48 35 -19 1 -39 -1 -45 -5z m49 -30 c-7 -2 -19 -2 -25 0 -7 3
-2 5 12 5 14 0 19 -2 13 -5z"/>
<path d="M9435 4711 c-103 -25 -152 -110 -142 -244 5 -80 39 -137 97 -168 75
-41 231 -12 246 45 16 64 -29 94 -113 75 -47 -11 -56 -10 -71 4 -15 16 -11 17
70 17 82 0 88 2 107 26 47 59 5 191 -71 227 -45 20 -87 27 -123 18z m107 -43
c53 -20 94 -129 69 -177 -11 -19 -20 -21 -111 -21 -63 0 -100 -4 -100 -10 0
-20 29 -68 45 -74 25 -9 70 -7 100 4 29 11 65 -2 65 -24 0 -7 -9 -21 -21 -32
-31 -28 -163 -27 -201 1 -82 59 -93 239 -19 309 46 43 105 51 173 24z"/>
<path d="M9421 4584 c-12 -15 -21 -31 -21 -35 0 -5 32 -9 71 -9 68 0 70 1 63
23 -11 36 -25 47 -59 47 -24 0 -39 -7 -54 -26z m72 -11 c-7 -2 -21 -2 -30 0
-10 3 -4 5 12 5 17 0 24 -2 18 -5z"/>
<path d="M877 4098 c-33 -26 -47 -96 -24 -120 10 -10 10 -20 0 -48 -8 -23 -12
-28 -12 -15 -2 50 -58 84 -89 53 -8 -8 -15 -8 -26 1 -20 17 -51 6 -64 -23 -9
-20 -16 -120 -13 -188 1 -21 28 -48 47 -48 8 0 23 9 34 20 11 11 20 16 20 11
0 -40 85 -56 99 -19 5 14 10 17 15 10 10 -17 51 -15 66 3 10 12 15 12 36 -2
39 -25 119 -8 215 44 4 2 4 -7 2 -20 -6 -29 20 -57 52 -57 29 0 55 34 55 73 0
16 9 40 20 54 l20 26 0 -51 c0 -56 17 -82 54 -82 13 0 29 7 36 15 11 13 15 13
33 0 12 -8 37 -15 57 -15 42 0 133 50 156 85 21 32 11 73 -20 81 -18 4 -22 11
-19 28 6 29 -28 56 -70 56 -37 0 -89 -23 -116 -51 -16 -17 -21 -19 -21 -7 0
19 -33 49 -56 50 -11 1 -30 -2 -43 -6 -23 -8 -24 -7 -18 36 7 53 -12 88 -47
88 -36 0 -48 -23 -57 -111 -4 -45 -9 -82 -11 -83 -45 -24 -139 -66 -148 -66
-18 0 -1 19 41 46 31 19 39 30 39 54 0 66 -80 62 -140 -7 l-30 -34 0 27 c0 15
-7 36 -16 46 -16 16 -16 21 0 62 18 48 12 78 -20 90 -20 8 -17 8 -37 -6z m36
-52 c-2 -31 -21 -59 -34 -50 -12 7 -11 27 1 59 13 34 36 27 33 -9z m361 -21
c0 -11 -4 -49 -8 -85 l-8 -65 24 22 c13 12 35 26 51 32 23 9 31 7 47 -9 16
-16 20 -34 20 -96 0 -66 -2 -75 -17 -72 -15 3 -19 16 -21 71 -3 80 -17 86 -68
31 -24 -25 -34 -45 -34 -67 0 -41 -14 -62 -34 -54 -13 5 -16 15 -12 39 3 18 8
80 11 138 3 58 9 113 11 123 7 24 39 17 38 -8z m-552 -118 c-4 -18 0 -16 23
11 52 62 72 33 74 -106 1 -74 -1 -83 -16 -80 -15 3 -19 17 -23 83 l-5 80 -21
-40 c-12 -22 -27 -57 -33 -77 -13 -39 -24 -47 -37 -27 -11 18 -4 172 8 186 16
19 37 -2 30 -30z m189 -63 c-1 -49 -5 -91 -7 -93 -2 -2 -11 -1 -20 3 -15 6
-16 17 -11 87 7 86 12 102 30 96 8 -3 11 -32 8 -93z m182 90 c11 -11 -13 -44
-33 -44 -22 0 -63 -62 -58 -87 5 -25 50 -18 117 18 55 29 81 36 81 21 0 -26
-125 -92 -173 -92 -64 0 -86 45 -52 109 27 54 96 97 118 75z m502 -5 c10 -15
-32 -56 -77 -76 -41 -18 -50 -46 -20 -62 22 -12 62 6 103 45 30 29 49 31 49 4
0 -27 -95 -90 -136 -90 -42 0 -78 39 -78 85 0 36 32 80 69 95 29 12 83 12 90
-1z"/>
<path d="M3162 4102 c-34 -11 -54 -100 -28 -124 11 -11 11 -18 0 -45 -8 -18
-14 -66 -14 -106 0 -62 3 -77 21 -92 17 -16 24 -17 51 -7 25 9 35 8 52 -3 26
-19 41 -19 61 1 15 15 17 15 31 -5 16 -22 49 -27 74 -11 12 7 14 28 12 102 -4
115 -16 156 -47 164 -13 3 -31 1 -41 -4 -12 -7 -26 -6 -42 1 -21 10 -27 8 -47
-15 l-23 -26 -11 22 c-10 18 -9 30 4 63 12 31 14 46 6 61 -11 21 -37 32 -59
24z m25 -75 c-26 -62 -51 -35 -27 28 8 22 13 25 25 15 12 -10 12 -17 2 -43z
m111 -106 c3 -22 4 -22 23 4 22 27 41 32 57 13 5 -7 12 -57 14 -110 3 -87 2
-98 -13 -98 -23 0 -29 20 -29 98 -1 75 -6 72 -47 -28 -32 -79 -47 -72 -51 21
-3 80 10 133 31 127 6 -3 13 -15 15 -27z m-107 -71 c-1 -47 -7 -89 -11 -94
-18 -19 -30 9 -30 72 0 85 8 114 29 110 14 -3 15 -16 12 -88z"/>
<path d="M4667 4089 c-14 -19 -17 -20 -40 -5 -22 15 -26 15 -47 -2 -22 -18
-24 -28 -28 -107 -2 -28 -5 -31 -36 -31 -46 0 -103 -45 -128 -101 -19 -43 -19
-45 -1 -80 23 -48 59 -60 117 -41 25 8 52 11 64 7 26 -10 62 15 63 44 1 16 3
14 10 -10 11 -37 44 -52 77 -34 33 17 38 -6 9 -37 -50 -54 -59 -99 -32 -152
46 -89 182 -74 241 25 14 25 28 63 31 86 l6 41 43 -7 c35 -5 47 -2 63 14 25
25 26 31 6 57 -8 10 -15 38 -15 60 0 39 2 41 25 36 23 -4 24 -8 19 -42 -8 -50
17 -100 51 -100 38 0 55 35 55 112 0 68 0 68 28 68 43 0 55 -18 32 -48 -28
-34 -26 -83 4 -111 21 -20 30 -22 81 -16 31 4 63 14 71 22 12 13 14 12 14 -1
0 -9 11 -23 25 -32 23 -15 27 -15 50 0 23 15 25 23 25 89 0 39 5 104 11 142
16 115 15 136 -10 156 -19 15 -27 17 -44 7 -32 -16 -34 -22 -42 -117 -5 -57
-10 -79 -15 -66 -15 38 -50 60 -99 61 -25 1 -60 5 -77 9 -28 6 -32 12 -37 48
-13 93 -97 87 -97 -7 0 -24 -6 -48 -13 -54 -34 -28 -104 -20 -80 10 5 7 15 27
21 45 9 27 8 36 -9 58 -11 14 -26 25 -33 25 -40 0 -73 -102 -42 -132 13 -13
13 -18 2 -27 -7 -6 -16 -8 -20 -4 -8 8 -140 5 -168 -3 -10 -3 -21 -17 -24 -32
-4 -15 -14 -36 -22 -47 -13 -18 -14 -17 -7 18 4 28 2 46 -10 64 -15 22 -15 29
-2 67 11 31 12 48 4 62 -21 39 -49 44 -70 13z m40 -62 c-17 -40 -37 -47 -37
-12 0 41 18 69 35 55 12 -10 12 -17 2 -43z m328 0 c-17 -40 -35 -47 -35 -12 0
40 18 69 35 55 11 -9 11 -16 0 -43z m499 -64 c-7 -48 -13 -120 -13 -159 -1
-75 -5 -86 -27 -77 -17 6 -18 56 -3 212 12 121 24 156 44 128 8 -12 8 -39 -1
-104z m-915 7 c-6 -41 -8 -94 -5 -117 3 -26 2 -43 -4 -43 -6 0 -10 -11 -10
-25 0 -25 -23 -35 -35 -16 -3 6 -25 1 -51 -11 -52 -22 -88 -18 -104 13 -23 42
29 125 90 144 12 4 31 0 45 -9 24 -16 24 -15 30 17 3 17 7 52 8 77 3 58 14 77
33 58 10 -10 11 -28 3 -88z m586 79 c4 -11 4 -36 1 -54 -7 -34 -7 -34 36 -37
61 -4 59 -31 -2 -38 l-45 -5 -3 -83 c-2 -64 -6 -84 -18 -89 -26 -10 -34 18
-28 91 7 65 6 69 -12 62 -34 -14 -49 -12 -49 8 0 13 11 23 35 31 32 10 36 16
44 61 4 27 10 55 12 62 5 19 22 14 29 -9z m-535 -83 c0 -3 -4 -8 -10 -11 -5
-3 -10 -1 -10 4 0 6 5 11 10 11 6 0 10 -2 10 -4z m735 -41 c20 -19 25 -34 25
-74 0 -63 -14 -100 -37 -100 -10 0 -30 -3 -46 -7 -57 -14 -77 46 -31 92 18 19
31 24 50 20 19 -5 24 -2 24 11 0 35 -15 45 -54 38 -39 -8 -47 3 -20 29 23 23
61 19 89 -9z m-693 -75 c-4 -86 -11 -108 -31 -96 -12 8 -15 143 -5 171 4 9 14
15 23 13 14 -3 15 -16 13 -88z m329 -6 c-3 -77 -1 -92 13 -97 9 -4 16 -11 16
-16 0 -14 -39 -24 -53 -13 -7 5 -27 7 -44 5 -30 -5 -33 -8 -33 -42 -1 -82 -71
-171 -135 -171 -49 0 -95 42 -95 86 0 44 54 105 115 131 25 10 45 21 45 25 0
14 -46 19 -74 8 -15 -5 -32 -7 -37 -4 -13 8 -2 62 19 94 10 14 19 34 22 45 5
17 17 21 75 26 67 5 101 -3 89 -22 -3 -5 -19 -9 -35 -9 -26 0 -29 -2 -23 -25
4 -18 1 -32 -11 -45 -17 -19 -17 -20 6 -39 14 -12 39 -20 62 -21 l37 0 0 74
c0 86 6 108 29 104 14 -3 15 -17 12 -94z m-71 -14 c0 -32 -4 -40 -18 -40 -10
0 -21 3 -25 6 -10 11 23 73 41 74 1 0 2 -18 2 -40z"/>
<path d="M4489 3867 c-31 -24 -53 -67 -40 -80 8 -8 22 -6 56 11 47 23 52 31
35 63 -12 22 -28 24 -51 6z m31 -21 c0 -2 -8 -10 -17 -17 -16 -13 -17 -12 -4
4 13 16 21 21 21 13z"/>
<path d="M5334 3805 c-4 -9 -4 -18 -2 -21 9 -8 39 8 35 19 -6 18 -27 20 -33 2z"/>
<path d="M4821 3844 c-26 -33 -27 -45 -3 -37 25 9 52 34 52 50 0 22 -27 15
-49 -13z"/>
<path d="M4845 3696 c-70 -30 -115 -102 -83 -134 38 -38 116 11 135 85 16 63
5 74 -52 49z m20 -48 c-15 -48 -64 -83 -80 -58 -8 14 12 38 50 62 38 23 38 23
30 -4z"/>
<path d="M7079 4092 c-16 -14 -21 -33 -26 -95 -6 -78 -14 -92 -32 -58 -23 42
-103 50 -142 15 -14 -12 -18 -12 -34 6 -19 21 -60 27 -70 10 -4 -7 -13 -6 -26
1 -26 13 -56 3 -64 -22 -7 -22 -23 -25 -31 -4 -8 19 -66 37 -98 29 -50 -12
-77 -72 -43 -95 4 -3 -1 -21 -12 -40 -28 -45 -26 -75 4 -105 23 -23 30 -25 83
-19 31 4 61 13 66 19 7 10 13 9 28 -6 23 -23 43 -23 68 2 11 11 20 16 20 11 0
-29 72 -56 93 -35 3 4 37 8 74 10 55 2 71 7 85 24 l18 22 0 -26 c0 -51 79 -56
95 -5 6 19 8 19 24 5 22 -20 80 -21 108 -1 18 13 26 13 42 3 19 -11 18 -13
-14 -50 -41 -48 -49 -87 -30 -136 29 -72 117 -94 187 -47 43 29 72 73 88 135
14 51 26 63 52 49 25 -13 72 10 76 37 5 33 -32 56 -100 63 -41 4 -63 10 -62
19 1 6 2 21 3 32 0 11 7 20 14 20 8 0 22 9 32 20 15 17 16 24 7 45 -12 27 -13
27 -117 25 -58 -1 -73 -4 -87 -21 -10 -12 -16 -25 -13 -29 3 -5 1 -11 -5 -15
-5 -3 -10 0 -10 8 0 25 -39 65 -69 72 -37 8 -75 -11 -102 -51 l-20 -29 5 30
c14 82 17 144 7 163 -14 27 -47 33 -72 14z m47 -71 c-3 -25 -9 -99 -12 -163
-7 -122 -13 -146 -34 -133 -10 6 -11 42 -6 156 7 163 16 202 42 192 13 -5 15
-15 10 -52z m-497 -97 c16 -20 21 -41 21 -83 0 -81 -7 -89 -89 -94 -40 -2 -57
18 -47 56 9 39 50 63 81 49 27 -13 30 -7 15 32 -10 27 -43 36 -55 16 -5 -8
-11 -7 -21 1 -13 10 -12 14 2 30 25 28 69 24 93 -7z m113 -17 c-4 -18 -1 -16
22 11 53 61 73 35 77 -99 2 -77 0 -84 -17 -84 -17 0 -20 10 -24 80 l-5 80 -19
-35 c-11 -19 -25 -53 -31 -75 -7 -22 -18 -40 -26 -40 -19 0 -26 170 -8 191 16
20 39 0 31 -29z m233 37 c38 -15 54 -85 35 -156 -9 -29 -16 -38 -33 -37 -12 0
-33 -2 -47 -6 -14 -3 -31 -1 -39 4 -21 14 -16 59 9 87 26 26 49 31 68 12 9 -9
12 -8 12 6 0 46 -40 72 -68 44 -9 -9 -13 -7 -18 7 -12 31 38 55 81 39z m312
-30 c22 -22 25 -32 20 -67 -12 -86 -113 -131 -145 -64 -18 37 -7 80 30 123 36
41 60 43 95 8z m242 7 c20 -13 4 -31 -28 -31 -25 0 -27 -3 -23 -33 2 -22 -2
-38 -12 -46 -27 -23 21 -51 86 -51 61 0 101 -20 81 -41 -9 -9 -19 -10 -35 -3
-13 5 -35 8 -49 6 -22 -3 -27 -9 -32 -42 -18 -137 -134 -215 -208 -141 -16 16
-29 37 -29 46 0 54 77 136 141 150 16 4 29 10 29 15 0 16 -39 21 -77 11 -42
-12 -66 0 -45 21 7 7 12 22 12 34 0 12 9 33 20 47 11 14 19 32 18 39 -2 9 16
15 62 19 36 3 67 6 70 7 3 1 11 -2 19 -7z"/>
<path d="M6557 3814 c-14 -14 -7 -35 11 -32 9 2 17 10 17 17 0 16 -18 25 -28
15z"/>
<path d="M6920 3805 c-7 -9 -10 -18 -7 -21 10 -11 37 5 37 21 0 19 -14 19 -30
0z"/>
<path d="M7210 3868 c-23 -39 -26 -66 -6 -74 37 -14 82 49 59 84 -17 27 -32
24 -53 -10z"/>
<path d="M7401 3854 c-23 -29 -27 -44 -10 -44 22 0 49 22 49 40 0 30 -17 32
-39 4z"/>
<path d="M7409 3690 c-40 -21 -89 -74 -89 -95 0 -40 58 -57 98 -29 28 19 62
85 62 119 0 31 -20 32 -71 5z m21 -60 c-22 -43 -40 -56 -65 -46 -22 8 -8 33
34 61 49 34 55 31 31 -15z"/>
<path d="M8466 4091 c-24 -26 -32 -93 -14 -112 11 -11 11 -19 3 -36 l-12 -23
-11 25 c-7 14 -23 30 -37 37 -22 10 -30 8 -54 -10 -29 -21 -29 -21 -46 -1 -22
23 -48 25 -65 4 -7 -8 -21 -15 -30 -15 -10 0 -28 -11 -38 -25 -20 -25 -21 -25
-27 -5 -15 48 -104 62 -147 23 -20 -18 -24 -53 -8 -69 6 -6 2 -24 -11 -52 -18
-35 -26 -42 -51 -42 -28 0 -29 2 -23 33 4 17 11 33 16 35 30 12 51 40 45 60
-9 28 -38 36 -116 33 -84 -3 -98 -7 -105 -34 -4 -12 -15 -40 -26 -62 -31 -67
-34 -101 -11 -116 20 -13 20 -14 -13 -50 -62 -69 -54 -158 16 -195 41 -21 106
-14 147 15 35 24 82 112 82 152 0 32 15 39 52 25 23 -8 33 -6 57 12 17 12 41
22 54 22 12 0 29 6 36 13 10 10 14 9 22 -5 11 -19 63 -25 73 -9 4 5 18 5 35
-2 37 -14 60 -4 74 32 11 29 11 29 22 8 8 -17 21 -22 55 -24 25 -1 57 -5 71
-8 17 -5 31 -2 40 7 11 12 15 12 31 -4 22 -22 51 -23 71 -3 13 12 17 12 32 -5
10 -11 26 -20 36 -20 18 0 18 -2 -1 -32 -46 -76 -9 -172 72 -185 49 -7 80 1
119 34 34 29 79 114 79 150 0 26 17 33 47 20 42 -19 89 32 65 70 -12 18 -59
33 -106 33 -23 0 -45 3 -49 6 -11 11 15 63 34 69 26 9 36 52 16 72 -12 12 -35
15 -98 14 -46 -1 -88 -6 -95 -12 -6 -5 -15 -24 -19 -42 l-7 -32 -12 41 c-6 23
-17 49 -25 58 -15 18 -56 22 -66 6 -4 -7 -13 -6 -26 1 -25 13 -56 3 -64 -21
-6 -18 -7 -18 -26 1 -12 12 -17 25 -12 32 4 7 13 27 19 45 10 28 9 36 -8 57
-23 30 -39 31 -62 6z m39 -64 c-17 -40 -35 -47 -35 -12 0 40 18 69 35 55 11
-9 11 -16 0 -43z m-227 -79 c5 -7 13 -28 17 -46 l7 -33 29 45 c50 80 76 59 80
-64 3 -72 1 -85 -13 -88 -19 -4 -33 44 -24 86 3 15 2 34 -4 42 -7 11 -14 2
-33 -40 -13 -30 -27 -68 -31 -83 -5 -20 -12 -27 -24 -25 -14 3 -18 18 -22 78
l-6 75 -18 -40 c-10 -22 -21 -57 -24 -77 -3 -29 -9 -38 -24 -38 -18 0 -19 6
-16 83 4 88 11 109 31 101 7 -2 22 4 32 16 21 23 29 25 43 8z m-181 -20 c29
-32 35 -68 22 -128 -8 -38 -15 -50 -27 -49 -22 4 -62 -10 -62 -21 0 -14 -40
-23 -53 -12 -7 5 -27 7 -44 5 -31 -5 -33 -8 -33 -45 0 -81 -71 -168 -137 -168
-25 0 -43 8 -64 29 -34 34 -37 64 -9 109 22 35 103 92 132 92 10 0 18 4 18 9
0 16 -55 23 -85 11 -31 -12 -53 0 -39 21 4 7 9 24 10 37 2 13 11 33 21 44 10
11 18 27 18 36 0 14 14 18 70 23 67 5 101 -3 89 -22 -3 -5 -18 -9 -34 -9 -27
0 -29 -3 -24 -27 3 -17 -1 -36 -9 -47 -13 -18 -12 -22 8 -38 29 -23 128 -26
119 -4 -9 23 24 75 51 82 15 4 32 1 40 -6 12 -10 15 -9 15 4 0 45 -40 72 -66
46 -8 -8 -15 -6 -23 4 -10 11 -8 17 11 30 31 22 61 20 85 -6z m517 -22 c-4
-16 1 -13 21 12 51 62 72 35 76 -99 2 -77 0 -84 -17 -84 -17 0 -20 10 -24 80
-5 75 -6 78 -19 55 -8 -13 -22 -47 -32 -75 -28 -78 -43 -66 -47 38 -3 95 8
128 35 106 8 -7 11 -21 7 -33z m-102 24 c2 -5 1 -47 -2 -92 -4 -65 -8 -83 -20
-83 -12 0 -16 16 -18 70 -2 38 0 80 3 92 5 23 30 32 37 13z m433 -21 c0 -8
-12 -15 -28 -17 -24 -3 -28 -7 -23 -26 3 -13 -1 -32 -10 -45 -15 -20 -15 -24
2 -42 13 -15 31 -19 78 -19 34 0 67 -4 75 -9 19 -12 6 -45 -17 -38 -31 9 -37
9 -63 8 -24 -1 -27 -6 -31 -45 -15 -129 -134 -211 -203 -141 -55 54 -9 151 90
192 25 10 45 21 45 25 0 14 -46 19 -74 8 -15 -5 -32 -7 -37 -4 -13 8 -1 61 22
100 10 17 19 38 19 47 0 13 14 17 68 19 84 5 87 4 87 -13z"/>
<path d="M7785 3848 c-18 -21 -23 -34 -15 -36 19 -7 60 20 60 39 0 31 -17 30
-45 -3z"/>
<path d="M8032 3808 c-7 -7 -12 -16 -12 -20 0 -12 28 -10 36 3 10 17 -10 31
-24 17z"/>
<path d="M7792 3685 c-53 -30 -81 -62 -82 -93 0 -28 38 -47 74 -38 33 8 74 70
78 116 4 44 -13 48 -70 15z m21 -63 c-28 -37 -50 -49 -64 -35 -15 15 1 37 46
65 37 22 46 7 18 -30z"/>
<path d="M8806 3845 c-25 -38 -16 -48 22 -25 34 21 38 42 10 48 -8 2 -23 -9
-32 -23z"/>
<path d="M8822 3689 c-69 -35 -102 -95 -70 -127 15 -15 58 -15 79 1 29 22 59
81 59 115 0 38 -10 40 -68 11z m38 -28 c0 -20 -48 -76 -68 -79 -33 -5 -27 21
13 57 35 31 55 39 55 22z"/>
<path d="M3656 4084 c-9 -8 -16 -30 -16 -49 0 -49 -9 -64 -46 -80 -39 -16 -49
-34 -40 -70 5 -18 15 -27 35 -31 27 -6 28 -9 24 -47 -5 -53 14 -91 48 -95 32
-4 53 20 54 62 5 122 3 116 31 116 l27 0 -6 -79 c-4 -67 -2 -82 12 -95 40 -36
91 -3 91 57 0 16 9 40 20 54 l20 26 0 -51 c0 -56 17 -82 54 -82 13 0 29 7 36
15 11 13 15 13 33 0 12 -8 37 -15 57 -15 42 0 133 50 156 85 21 32 11 73 -20
81 -18 4 -22 11 -19 28 6 29 -28 56 -70 56 -37 0 -89 -23 -116 -51 -16 -17
-21 -19 -21 -7 0 30 -37 51 -81 45 l-42 -5 6 42 c7 51 -12 86 -47 86 -29 0
-44 -17 -52 -58 -5 -25 -12 -32 -30 -32 -17 0 -22 4 -18 15 13 34 -20 95 -51
95 -7 0 -21 -7 -29 -16z m49 -35 c4 -11 4 -36 1 -54 -7 -34 -7 -34 36 -37 61
-4 59 -31 -2 -38 l-45 -5 -7 -65 c-4 -36 -5 -73 -2 -83 7 -22 -24 -36 -37 -16
-5 8 -6 45 -3 83 7 65 6 69 -12 62 -34 -14 -49 -12 -49 8 0 13 11 23 35 31 32
10 36 16 44 61 4 27 10 55 12 62 5 19 22 14 29 -9z m149 -24 c0 -11 -4 -49 -8
-85 l-8 -65 24 22 c13 12 35 26 51 32 23 9 31 7 47 -9 16 -16 20 -34 20 -96 0
-66 -2 -75 -17 -72 -15 3 -19 16 -21 71 -3 79 -16 85 -68 33 -25 -25 -34 -43
-34 -67 0 -43 -13 -64 -34 -56 -13 5 -16 15 -12 39 3 18 8 80 11 138 3 58 9
113 11 123 7 24 39 17 38 -8z m321 -96 c10 -15 -32 -56 -77 -76 -41 -18 -50
-46 -20 -62 22 -12 62 6 103 45 30 29 49 31 49 4 0 -27 -95 -90 -136 -90 -42
0 -78 39 -78 85 0 36 32 80 69 95 29 12 83 12 90 -1z"/>
<path d="M6272 4084 c-13 -9 -22 -26 -22 -42 0 -15 -3 -43 -6 -63 -5 -32 -9
-35 -40 -36 -21 -1 -48 -12 -69 -27 -41 -32 -45 -32 -45 -3 0 51 -56 87 -88
55 -9 -9 -15 -9 -24 0 -18 18 -36 14 -60 -13 -21 -25 -22 -25 -42 -6 -46 43
-122 35 -145 -16 -9 -20 -9 -30 3 -48 13 -19 13 -24 0 -37 -8 -8 -17 -30 -20
-49 -5 -28 -1 -41 18 -63 22 -26 26 -27 86 -20 37 4 66 12 69 20 3 9 10 7 24
-7 24 -24 44 -24 68 0 18 18 19 18 29 -4 13 -28 44 -36 75 -20 13 6 37 10 54
8 16 -3 45 2 64 10 21 8 43 11 56 6 25 -9 63 14 63 39 0 9 7 25 15 35 10 14
11 26 3 48 -7 20 -6 56 2 115 8 67 8 89 -1 100 -23 28 -45 34 -67 18z m36
-133 c-9 -69 -9 -98 0 -111 9 -14 8 -21 -3 -30 -8 -7 -15 -21 -15 -31 0 -19
-24 -26 -34 -10 -4 5 -28 0 -56 -12 -40 -17 -54 -19 -75 -9 -20 9 -25 19 -25
48 0 71 74 135 132 115 17 -6 32 -10 34 -9 1 2 4 35 7 74 5 83 13 103 33 82
11 -11 11 -30 2 -107z m-453 -26 c20 -19 25 -34 25 -74 0 -63 -14 -100 -37
-100 -10 0 -30 -3 -46 -7 -56 -13 -77 46 -32 92 20 20 32 24 55 19 27 -6 28
-5 21 22 -7 26 -11 28 -49 25 -46 -3 -50 2 -25 30 23 25 59 23 88 -7z m115
-11 c0 -24 0 -24 28 8 51 56 72 21 72 -125 0 -60 -2 -68 -17 -65 -15 3 -19 17
-23 83 l-5 80 -21 -40 c-12 -22 -27 -57 -33 -77 -13 -39 -24 -47 -38 -25 -11
17 -3 169 9 184 14 18 28 6 28 -23z"/>
<path d="M6168 3853 c-55 -61 -39 -89 31 -53 42 21 52 45 29 68 -18 18 -32 15
-60 -15z m42 -12 c0 -5 -7 -12 -16 -15 -14 -5 -15 -4 -4 9 14 17 20 19 20 6z"/>
<path d="M5787 3814 c-14 -14 -7 -35 11 -32 9 2 17 10 17 17 0 16 -18 25 -28
15z"/>
<path d="M2874 4005 c-30 -12 -104 -87 -104 -105 0 -6 -6 -10 -13 -10 -9 0
-12 9 -9 29 3 23 -1 32 -18 41 -34 18 -105 7 -143 -23 l-33 -25 -11 29 c-6 16
-23 34 -37 40 -23 11 -31 9 -55 -9 -29 -21 -29 -21 -46 -1 -23 24 -47 24 -70
-1 -9 -10 -20 -19 -24 -18 -25 3 -41 -5 -47 -24 -6 -21 -7 -21 -20 4 -16 30
-73 53 -106 43 -49 -15 -75 -64 -48 -91 6 -6 2 -24 -11 -52 -18 -35 -26 -42
-51 -42 -29 0 -30 2 -24 33 4 17 11 33 16 35 30 10 52 39 46 60 -9 28 -38 36
-116 33 -84 -3 -98 -7 -105 -34 -4 -12 -15 -40 -26 -62 -31 -67 -34 -101 -11
-116 20 -13 20 -14 -13 -50 -62 -69 -54 -158 16 -195 41 -21 106 -14 147 15
35 24 82 112 82 152 0 32 15 39 52 25 23 -8 33 -6 57 12 17 12 41 22 54 22 12
0 29 6 36 13 10 10 14 9 22 -5 11 -19 63 -25 73 -9 4 5 18 5 35 -2 37 -14 60
-4 74 32 11 29 11 29 22 8 13 -27 72 -37 81 -13 5 12 9 11 25 -5 32 -32 97
-26 159 16 57 38 99 41 80 5 -16 -30 -12 -48 16 -67 25 -16 28 -16 71 7 90 48
95 106 11 145 l-49 23 28 26 c15 14 36 26 46 26 9 0 23 11 29 25 9 20 8 28 -6
44 -24 26 -48 31 -82 16z m47 -25 c25 -14 24 -30 -2 -30 -24 0 -89 -63 -89
-86 0 -8 20 -24 44 -34 78 -35 82 -62 16 -99 -60 -34 -87 -7 -29 28 l32 20
-34 14 c-82 35 -87 82 -15 154 48 47 49 48 77 33z m-533 -32 c5 -7 13 -28 17
-47 l7 -34 22 38 c51 90 83 70 87 -55 3 -72 1 -85 -13 -88 -19 -4 -33 44 -24
86 3 15 2 33 -3 41 -7 11 -14 5 -29 -25 -11 -22 -25 -58 -32 -82 -8 -32 -16
-42 -28 -40 -14 3 -18 18 -22 78 l-6 75 -18 -40 c-10 -22 -21 -57 -24 -77 -3
-29 -9 -38 -24 -38 -18 0 -19 6 -14 93 2 50 5 93 5 95 1 2 9 1 19 -2 12 -4 26
1 37 14 21 23 29 25 43 8z m-181 -20 c29 -32 35 -68 22 -128 -8 -38 -15 -50
-27 -49 -22 4 -62 -10 -62 -21 0 -14 -40 -23 -53 -12 -7 5 -27 7 -44 5 -31 -5
-33 -8 -33 -45 0 -81 -71 -168 -137 -168 -42 0 -93 45 -93 83 0 51 79 131 143
144 15 3 27 9 27 13 0 15 -56 21 -85 10 -31 -12 -53 0 -39 21 4 7 9 24 10 37
2 13 11 33 21 44 10 11 18 27 18 36 0 14 14 18 70 23 67 5 101 -3 89 -22 -3
-5 -18 -9 -34 -9 -27 0 -29 -3 -24 -27 3 -17 -1 -36 -9 -47 -13 -18 -12 -22 8
-38 29 -22 128 -26 119 -5 -16 44 48 103 87 79 16 -10 19 -9 19 4 0 43 -40 70
-66 44 -8 -8 -15 -6 -23 4 -10 11 -8 17 11 30 31 22 61 20 85 -6z m510 -5 c8
-19 -36 -58 -84 -74 -37 -12 -42 -28 -15 -52 14 -13 21 -14 47 -3 17 8 43 25
58 40 30 28 42 32 52 16 16 -26 -90 -100 -141 -100 -57 0 -93 75 -63 131 26
49 132 80 146 42z"/>
<path d="M1890 3843 c-19 -25 -20 -28 -5 -31 19 -4 55 25 55 45 0 22 -27 15
-50 -14z"/>
<path d="M2142 3808 c-7 -7 -12 -16 -12 -20 0 -12 28 -10 36 3 10 17 -10 31
-24 17z"/>
<path d="M1900 3684 c-71 -40 -99 -91 -68 -122 39 -39 118 12 138 89 18 66 1
74 -70 33z m23 -62 c-28 -37 -50 -49 -64 -35 -15 15 1 37 46 65 37 22 46 7 18
-30z"/>
<path d="M9215 4010 c-31 -13 -81 -63 -100 -100 -22 -42 -13 -92 21 -119 14
-11 20 -22 14 -26 -19 -12 -11 -54 15 -71 23 -15 27 -15 65 4 l40 19 0 -73 c0
-61 4 -78 20 -94 47 -47 80 -7 80 94 0 62 3 72 27 96 l27 28 28 -30 c27 -29
31 -30 86 -23 31 4 63 12 69 17 9 7 22 7 43 -2 40 -17 99 -8 166 25 l54 26 26
-30 c37 -44 89 -43 165 4 68 42 93 39 75 -7 -10 -26 -8 -32 13 -49 31 -25 39
-24 94 11 75 47 72 114 -8 140 -19 6 -35 15 -35 19 0 14 46 51 63 51 10 0 23
11 29 25 10 22 9 29 -9 47 -42 41 -100 20 -158 -60 -33 -45 -50 -54 -42 -21 3
13 -2 28 -14 40 -37 37 -136 16 -179 -38 -17 -22 -148 -93 -171 -93 -18 0 15
39 38 45 49 12 55 89 9 101 -29 7 -60 -8 -102 -48 l-31 -29 -13 31 c-25 60
-113 77 -155 30 -17 -19 -18 -19 -44 -1 -35 24 -68 32 -97 21 -18 -7 -24 -6
-24 5 0 12 -50 47 -62 44 -2 0 -12 -4 -23 -9z m46 -31 c23 -12 16 -29 -11 -29
-20 0 -80 -63 -80 -84 0 -18 19 -33 52 -41 15 -4 34 -15 44 -26 16 -18 16 -20
-2 -40 -24 -27 -72 -52 -84 -44 -18 11 -10 32 15 43 32 15 32 28 0 36 -36 9
-65 41 -65 72 0 19 15 42 49 75 53 53 53 54 82 38z m1006 -22 c-2 -7 -10 -12
-18 -12 -25 0 -58 -25 -74 -55 -8 -16 -15 -32 -15 -35 0 -3 25 -17 56 -31 46
-20 55 -28 52 -46 -5 -39 -108 -83 -108 -46 0 5 13 17 30 26 16 9 30 19 30 22
0 3 -14 10 -32 15 -17 6 -40 21 -50 36 -16 21 -17 30 -8 55 13 35 57 83 85 94
23 9 58 -6 52 -23z m-869 -27 c43 -26 57 -62 37 -99 -15 -29 -70 -81 -85 -81
-5 0 -11 -42 -12 -92 -2 -75 -6 -93 -18 -93 -12 0 -15 18 -15 105 1 272 14
308 93 260z m183 -6 c18 -20 24 -36 24 -72 -1 -68 -12 -104 -33 -101 -9 2 -27
-1 -39 -5 -54 -18 -85 21 -58 73 17 34 57 50 80 31 12 -10 15 -9 15 4 0 46
-40 72 -68 44 -9 -9 -13 -7 -18 7 -5 12 -1 22 11 31 29 21 59 17 86 -12z m187
-6 c-2 -15 -11 -24 -26 -26 -13 -2 -34 -20 -49 -43 -23 -35 -25 -42 -12 -55
13 -13 20 -13 59 1 25 9 60 25 79 36 40 24 72 19 50 -8 -23 -26 -131 -73 -171
-73 -46 0 -73 32 -62 75 17 67 141 154 132 93z m282 12 c13 -9 9 -15 -19 -40
-19 -16 -50 -35 -68 -41 -37 -12 -41 -24 -17 -50 20 -22 51 -12 107 33 28 21
42 27 49 20 15 -15 -4 -37 -61 -74 -58 -36 -102 -37 -130 -2 -23 29 -27 74
-10 105 24 46 111 74 149 49z m-763 -26 c3 -8 2 -28 -3 -43 l-9 -28 -38 17
-37 17 21 26 c23 30 56 35 66 11z"/>
<path d="M9355 3854 c-3 -25 -4 -48 -1 -51 6 -6 56 46 56 58 0 10 -29 39 -40
39 -4 0 -11 -21 -15 -46z"/>
<path d="M9512 3808 c-7 -7 -12 -16 -12 -20 0 -12 28 -10 36 3 10 17 -10 31
-24 17z"/>
<path d="M8485 3046 c-15 -15 -25 -36 -25 -54 0 -27 -2 -29 -37 -28 -21 0 -42
7 -46 14 -13 19 -54 14 -77 -10 -11 -12 -20 -26 -20 -31 0 -6 -5 -5 -12 1 -14
10 -66 22 -113 25 -20 1 -35 11 -46 28 -31 49 -128 78 -196 60 -56 -15 -70
-34 -55 -74 6 -18 12 -61 13 -97 4 -123 28 -141 114 -87 l56 35 29 -29 c32
-32 61 -36 103 -14 24 12 31 12 57 -3 27 -16 30 -16 57 4 l28 21 27 -20 c25
-18 31 -19 69 -8 37 11 43 11 51 -3 9 -16 58 -22 71 -10 4 4 22 8 42 10 l35 3
0 -44 c0 -38 -3 -45 -20 -45 -11 0 -27 -11 -36 -25 -14 -21 -15 -31 -5 -51 6
-14 20 -28 31 -31 18 -5 19 -11 13 -67 -5 -46 -12 -66 -30 -83 -28 -27 -29
-43 -5 -74 17 -20 27 -22 95 -20 43 1 85 2 95 2 9 0 29 -3 44 -6 19 -5 31 -2
47 14 l21 21 20 -20 c27 -27 56 -25 85 5 14 13 25 20 25 15 0 -33 68 -53 92
-26 11 12 17 12 39 1 29 -15 154 -17 183 -3 12 7 22 6 29 -1 19 -19 55 -12 81
15 24 26 24 26 31 5 8 -26 51 -38 77 -22 13 8 24 8 38 1 24 -13 121 -13 154 0
14 5 28 20 32 34 7 28 -11 66 -31 66 -13 0 -24 82 -25 175 0 51 -8 71 -35 83
-18 8 -31 9 -49 1 -26 -12 -50 -54 -40 -71 3 -5 -3 -18 -14 -28 -17 -16 -22
-17 -40 -5 -20 15 -32 16 -130 15 -40 0 -55 -5 -64 -19 -10 -17 -14 -18 -34
-5 -56 37 -140 36 -178 -2 -14 -14 -18 -13 -37 4 -26 25 -62 32 -104 21 -20
-6 -43 -6 -59 1 -15 5 -36 6 -48 1 -34 -12 -98 -2 -92 14 8 21 -14 55 -43 66
-23 8 -24 13 -18 47 10 55 22 65 51 45 21 -13 31 -14 64 -4 29 8 45 9 60 1 12
-7 45 -8 85 -4 82 9 90 21 97 152 5 90 5 93 -20 112 -22 18 -28 19 -46 7 -13
-9 -22 -27 -24 -49 -3 -31 -8 -37 -43 -51 -38 -15 -41 -15 -60 4 -22 22 -51
24 -94 5 -24 -11 -35 -11 -55 0 -15 7 -55 12 -92 11 l-67 -2 -3 39 c-2 27 -10
43 -25 53 -20 14 -24 13 -48 -11z m38 -137 c-7 -97 -11 -114 -25 -117 -14 -3
-18 3 -18 28 l0 31 -46 -27 c-38 -22 -49 -25 -69 -16 -26 12 -41 51 -31 77 11
30 -14 4 -40 -41 -14 -24 -29 -44 -33 -44 -13 0 -31 24 -31 42 0 15 -6 13 -47
-12 -56 -36 -66 -37 -94 -9 -15 15 -20 30 -17 50 l5 29 -26 -23 c-32 -29 -119
-87 -131 -87 -15 0 -21 37 -19 111 2 50 -2 73 -11 79 -22 14 -3 39 34 46 46 8
92 -1 135 -27 29 -17 33 -24 29 -54 l-4 -33 29 14 c37 20 72 15 72 -10 0 -12
-14 -26 -38 -39 -25 -13 -35 -23 -28 -30 6 -6 22 -2 48 14 21 13 41 23 45 21
4 -1 7 8 5 19 -3 35 22 34 37 -1 l13 -32 23 36 c29 48 49 68 62 60 5 -3 7 -15
5 -26 -4 -15 -2 -18 11 -12 81 34 114 -14 35 -51 -25 -12 -32 -20 -24 -28 8
-8 19 -5 41 11 16 12 36 22 43 22 16 0 27 42 27 99 0 39 18 67 33 52 4 -4 4
-59 0 -122z m508 34 c-4 -35 -4 -68 0 -75 11 -17 -17 -53 -44 -55 -12 -1 -36
-5 -53 -9 -25 -5 -35 -2 -46 15 l-15 22 -37 -22 c-31 -18 -41 -20 -62 -10 -13
6 -27 18 -30 26 -5 11 -13 8 -37 -16 -25 -25 -30 -39 -31 -80 -1 -39 -4 -49
-18 -49 -16 0 -18 11 -18 83 -1 66 -3 79 -13 66 -22 -28 -55 -41 -77 -29 -44
24 -12 130 39 130 23 0 48 -28 54 -60 3 -14 5 -8 4 15 -2 36 0 40 25 43 17 2
34 -4 48 -18 20 -20 23 -20 40 -5 24 22 85 31 95 14 9 -14 -37 -59 -61 -59
-17 0 -19 -16 -3 -26 6 -3 24 3 40 15 15 11 33 21 40 21 6 0 25 12 42 26 21
17 37 24 53 20 21 -6 23 -2 30 41 8 60 13 68 30 51 9 -10 11 -29 5 -75z m617
-272 c22 -14 10 -56 -17 -59 -37 -6 -52 26 -25 52 18 18 24 19 42 7z m-913
-36 c0 -13 -8 -21 -22 -23 -22 -3 -23 -8 -23 -97 0 -89 1 -94 23 -97 14 -2 22
-10 22 -23 0 -18 -7 -20 -80 -20 -73 0 -80 2 -80 20 0 13 8 21 21 23 19 3 22
11 27 89 7 94 5 103 -23 103 -23 0 -34 15 -26 36 5 12 22 14 83 12 70 -3 78
-5 78 -23z m180 -59 c16 -12 24 -12 51 2 47 22 90 3 105 -47 15 -53 8 -151
-13 -164 -32 -21 -48 8 -48 90 l0 74 -27 -3 c-28 -3 -28 -4 -31 -81 -2 -57 -7
-79 -18 -84 -31 -12 -44 17 -44 94 l0 74 -27 -3 c-28 -3 -28 -4 -31 -80 -2
-59 -6 -78 -19 -82 -30 -12 -42 15 -43 104 -1 47 -1 91 -1 99 1 10 10 12 34 8
19 -3 40 -1 48 4 20 13 42 11 64 -5z m324 3 c43 -15 51 -35 51 -129 0 -85 -12
-107 -46 -80 -11 10 -18 10 -26 2 -15 -15 -53 -15 -78 -2 -56 30 -44 102 19
120 20 5 44 10 54 10 11 0 17 6 15 13 -3 7 -26 13 -56 15 -44 3 -52 6 -52 22
0 13 10 22 33 29 44 13 49 13 86 0z m239 0 c39 -13 55 -58 50 -143 -3 -66 -23
-91 -52 -67 -12 10 -16 32 -16 88 l0 74 -27 -3 c-27 -3 -28 -5 -33 -77 -4 -55
-9 -77 -22 -85 -29 -18 -36 3 -40 109 l-3 100 47 0 c26 1 50 4 54 8 9 9 5 9
42 -4z m-739 -64 c1 -39 -2 -65 -9 -65 -6 0 -10 27 -10 65 0 36 4 65 9 65 4 0
9 -29 10 -65z m929 -17 c3 -70 5 -77 25 -80 16 -2 22 -10 22 -28 0 -24 -3 -25
-71 -28 -54 -2 -74 1 -84 13 -16 19 2 45 31 45 16 0 19 8 19 55 0 52 -1 55
-25 55 -20 0 -25 5 -25 26 0 24 2 25 53 22 l52 -3 3 -77z m-88 -22 c0 -14 -4
-28 -10 -31 -6 -4 -10 7 -10 24 0 17 5 31 10 31 6 0 10 -11 10 -24z"/>
<path d="M7946 2959 c-3 -17 -6 -49 -6 -71 0 -37 1 -38 23 -27 31 16 87 71 87
85 0 19 -41 44 -71 44 -22 0 -28 -6 -33 -31z m68 -8 c3 -4 -6 -19 -19 -31
l-25 -23 0 25 c0 13 3 28 7 31 9 10 31 9 37 -2z"/>
<path d="M8572 2883 c-5 -10 -7 -24 -5 -31 7 -18 33 5 33 29 0 24 -16 25 -28
2z"/>
<path d="M8688 2877 c-3 -19 -2 -25 4 -19 6 6 8 18 6 28 -3 14 -5 12 -10 -9z"/>
<path d="M8935 2870 c-10 -11 -15 -23 -12 -27 12 -11 56 18 50 33 -7 19 -17
18 -38 -6z"/>
<path d="M9170 2436 c0 -22 17 -28 40 -16 29 16 25 30 -10 30 -19 0 -30 -5
-30 -14z"/>
<path d="M7063 3045 c-43 -18 -98 -70 -117 -109 -20 -43 -20 -79 -1 -121 28
-58 92 -71 162 -31 23 13 43 20 45 15 7 -22 243 -37 323 -21 22 4 54 4 71 -1
24 -7 40 -6 65 7 22 11 35 13 37 6 7 -19 33 -40 50 -40 30 0 81 39 88 66 6 23
1 32 -25 56 -17 15 -27 28 -21 28 13 0 50 37 50 50 0 17 -39 50 -59 50 -11 0
-33 -12 -50 -26 -24 -20 -34 -23 -50 -15 -27 15 -51 14 -83 -3 -16 -8 -28 -10
-28 -5 0 17 -46 32 -66 21 -13 -7 -25 -7 -37 0 -13 7 -28 5 -53 -7 -25 -12
-39 -13 -53 -5 -11 5 -31 10 -44 10 -14 0 -30 7 -37 16 -10 11 -23 14 -53 8
-27 -4 -37 -3 -33 5 10 15 -10 48 -32 53 -11 3 -33 0 -49 -7z m55 -33 c2 -6
-14 -22 -36 -36 -72 -45 -103 -107 -67 -136 20 -16 52 -6 95 29 42 36 36 48
-13 25 -36 -17 -72 -13 -65 8 5 15 138 68 163 65 18 -2 20 -8 17 -59 -2 -32
-1 -58 2 -58 3 0 15 9 26 20 11 11 26 17 35 14 11 -5 13 -2 9 10 -3 8 -15 14
-27 13 -14 -1 -22 4 -22 13 0 19 51 26 71 9 18 -14 19 -103 2 -116 -26 -18
-66 -15 -81 7 -9 13 -17 17 -22 11 -12 -21 -35 -11 -35 15 l0 26 -36 -32 c-65
-57 -120 -65 -153 -24 -47 60 -9 150 84 198 32 17 47 16 53 -2z m640 -59 c2
-7 -8 -17 -22 -22 -13 -6 -29 -19 -35 -30 -9 -16 -6 -22 24 -40 19 -11 35 -25
35 -30 0 -14 -41 -51 -56 -51 -21 0 -29 23 -12 34 14 8 13 12 -5 26 -19 16
-23 15 -69 -13 -41 -26 -52 -29 -73 -19 -14 6 -25 17 -25 24 0 6 -6 4 -13 -7
-20 -27 -37 -10 -38 38 l0 42 -21 -52 c-27 -69 -56 -69 -59 0 0 17 -4 13 -13
-12 -13 -36 -30 -49 -40 -32 -4 5 -3 35 0 65 5 43 11 56 23 56 10 0 23 6 30
13 10 10 16 8 30 -9 17 -21 18 -21 29 -3 18 28 42 23 53 -10 10 -29 11 -29 29
-11 36 36 105 39 98 3 -2 -9 -20 -25 -40 -36 -21 -10 -35 -23 -32 -28 9 -15
25 -10 59 16 18 13 35 21 39 18 3 -4 6 2 6 12 0 46 85 96 98 58z"/>
<path d="M9165 3026 c-10 -14 -18 -59 -22 -118 -5 -88 -4 -97 16 -117 24 -24
49 -27 75 -8 14 11 24 11 42 3 20 -10 24 -19 26 -76 3 -60 5 -65 30 -74 40
-14 66 13 67 67 0 23 4 75 10 115 6 49 6 84 -1 102 -10 30 -39 47 -58 35 -6
-4 -17 -1 -25 5 -9 7 -28 10 -45 6 -28 -5 -30 -3 -30 24 0 19 -8 34 -22 44
-31 22 -45 20 -63 -8z m53 -49 c2 -22 8 -37 16 -37 8 0 19 -7 27 -16 12 -14
14 -13 21 6 7 19 11 20 24 9 9 -7 14 -22 11 -37 l-4 -23 26 25 c15 14 30 26
33 26 14 0 17 -36 7 -113 -6 -45 -11 -98 -13 -117 -1 -27 -6 -35 -21 -35 -14
0 -19 6 -18 20 2 11 6 53 9 94 l7 75 -23 -22 c-28 -26 -44 -24 -48 7 -4 23 -4
23 -36 -8 -23 -22 -38 -30 -51 -25 -16 7 -17 16 -11 102 4 52 9 99 12 104 12
19 29 0 32 -35z"/>
<path d="M9206 2884 c-11 -30 -6 -37 14 -19 11 10 20 22 20 27 0 15 -28 9 -34
-8z"/>
<path d="M7395 2695 c-32 -31 -31 -41 5 -75 28 -26 30 -33 30 -100 0 -39 -4
-69 -8 -66 -5 3 -19 43 -32 90 -12 47 -31 98 -41 114 -22 38 -66 49 -108 28
-31 -17 -38 -33 -96 -238 -18 -62 -12 -88 25 -108 27 -14 68 4 80 35 7 18 17
25 35 25 14 0 25 -6 25 -13 0 -36 25 -48 105 -51 44 -2 102 0 129 4 28 4 62 3
78 -2 20 -7 37 -7 56 1 21 9 36 9 57 1 36 -14 68 -6 95 22 11 12 20 17 20 10
0 -6 13 -18 28 -26 35 -18 164 -15 187 4 8 7 15 29 15 49 l1 36 14 -34 c18
-41 18 -41 0 -41 -8 0 -22 -11 -30 -24 -18 -27 -7 -69 20 -80 59 -22 122 15
151 89 l17 45 22 -24 c46 -49 152 -47 198 4 31 34 34 58 12 100 -12 23 -13 34
-4 48 19 30 3 68 -33 83 -39 17 -112 17 -131 0 -11 -9 -21 -8 -42 3 -38 20
-71 3 -86 -42 l-11 -34 -19 41 c-17 39 -30 46 -69 41 -8 -1 -20 -8 -26 -15 -9
-12 -14 -12 -30 0 -32 22 -86 28 -129 13 -31 -11 -45 -11 -63 -2 -32 16 -60 7
-76 -24 -8 -16 -16 -21 -20 -13 -9 14 -59 14 -73 0 -8 -8 -13 -6 -17 8 -4 11
-18 25 -32 32 -22 9 -31 9 -50 -4 -24 -15 -24 -15 -24 25 0 56 -34 90 -90 90
-30 0 -47 -6 -65 -25z m113 -17 c8 -8 12 -53 12 -134 0 -120 1 -123 23 -126
14 -2 22 -10 22 -23 0 -18 -7 -20 -86 -21 -47 0 -91 -4 -97 -8 -17 -11 -32 2
-48 41 -14 32 -17 34 -57 31 -37 -3 -42 -6 -50 -35 -11 -38 -35 -50 -55 -29
-14 13 -11 30 23 146 38 128 51 150 87 150 33 0 51 -30 82 -140 18 -63 36
-114 40 -112 3 1 17 2 31 2 l25 0 0 105 c0 96 -2 105 -19 105 -28 0 -47 26
-31 45 15 18 81 20 98 3z m110 -96 c7 -5 17 -35 22 -68 6 -32 10 -61 11 -64 0
-3 6 15 13 39 22 84 72 81 91 -5 l12 -49 8 60 c9 68 20 95 39 95 32 0 36 -25
19 -114 -14 -70 -22 -92 -40 -103 -21 -14 -26 -14 -48 1 -15 10 -25 26 -25 41
0 13 -4 27 -10 30 -6 4 -10 -5 -10 -19 0 -25 -31 -66 -49 -66 -5 0 -18 8 -29
18 -28 23 -60 176 -42 198 14 16 20 17 38 6z m391 -7 c34 -17 41 -38 41 -133
0 -76 -13 -98 -44 -72 -11 8 -20 8 -35 1 -32 -17 -60 -13 -86 14 -48 47 -21
101 57 113 38 6 46 10 38 21 -6 10 -23 14 -54 12 -41 -2 -46 1 -46 19 0 37 77
52 129 25z m142 -65 l26 -75 23 72 c25 76 43 94 69 68 13 -13 13 -20 2 -52
-74 -206 -97 -243 -149 -243 -36 0 -52 28 -26 47 10 7 24 13 31 13 19 0 16 18
-21 122 -25 70 -32 98 -24 111 19 35 42 14 69 -63z m278 69 c21 -7 31 -18 31
-31 0 -17 -6 -19 -47 -16 -61 4 -66 -19 -8 -39 91 -31 86 -114 -8 -130 -47 -7
-109 14 -105 35 3 14 14 16 55 14 28 -1 54 2 58 8 3 5 -18 21 -48 34 -76 33
-89 88 -29 121 33 17 59 18 101 4z m-872 -121 c-3 -8 -6 -5 -6 6 -1 11 2 17 5
13 3 -3 4 -12 1 -19z"/>
<path d="M7278 2595 c-3 -6 -8 -23 -12 -40 -4 -16 -9 -38 -12 -47 -4 -14 1
-18 25 -18 17 0 31 3 31 8 -1 24 -27 105 -32 97z"/>
<path d="M7926 2441 c-3 -5 1 -14 8 -21 16 -12 56 2 56 20 0 12 -57 13 -64 1z"/>
<path d="M6718 2689 c-19 -7 -32 -23 -42 -52 -25 -69 -66 -219 -66 -243 0 -31
26 -54 61 -54 23 0 34 7 47 30 20 35 57 41 67 10 10 -32 48 -52 76 -41 15 5
44 5 75 -2 71 -14 121 5 149 56 l20 37 -21 38 c-17 31 -18 40 -7 51 36 34 -2
86 -71 96 -54 8 -114 -16 -132 -54 -12 -23 -12 -23 -19 10 -14 63 -36 106 -61
118 -29 13 -40 13 -76 0z m70 -28 c16 -10 82 -223 82 -264 0 -25 -3 -28 -27
-25 -21 2 -29 10 -35 36 -8 30 -11 32 -53 32 -42 0 -45 -2 -53 -32 -6 -26 -14
-34 -35 -36 -24 -3 -27 0 -27 25 0 41 66 254 82 264 7 5 22 9 33 9 11 0 26 -4
33 -9z m246 -81 c17 -6 26 -17 26 -31 0 -19 -4 -20 -49 -14 -71 10 -74 -10 -7
-39 40 -18 57 -31 61 -49 10 -36 -10 -65 -53 -78 -51 -15 -122 3 -122 31 0 23
17 29 55 19 39 -12 70 -2 55 16 -6 8 -24 16 -39 20 -36 8 -71 40 -71 66 0 11
11 31 25 44 26 27 73 33 119 15z"/>
<path d="M6738 2546 l-15 -56 32 0 33 0 -14 48 c-8 26 -16 51 -17 56 -2 5 -10
-17 -19 -48z"/>
</g>
</svg>
