<?xml version="1.0" standalone="no"?>
<!DOCTYPE svg PUBLIC "-//W3C//DTD SVG 20010904//EN"
 "http://www.w3.org/TR/2001/REC-SVG-20010904/DTD/svg10.dtd">
<svg version="1.0" xmlns="http://www.w3.org/2000/svg"
 width="1080.000000pt" height="720.000000pt" viewBox="0 0 1080.000000 720.000000"
 preserveAspectRatio="xMidYMid meet">

<g transform="translate(0.000000,720.000000) scale(0.100000,-0.100000)"
fill="#000000" stroke="none">
<path d="M2273 4048 c-37 -18 -43 -59 -43 -310 0 -192 3 -245 15 -268 25 -49
98 -50 125 0 5 10 10 75 10 143 0 132 2 137 50 137 25 0 30 -27 30 -162 0
-114 1 -117 26 -137 31 -24 43 -26 79 -9 37 17 48 66 43 204 -5 184 -43 239
-164 239 l-64 0 0 67 c0 60 -3 69 -26 87 -29 23 -48 25 -81 9z m65 -40 c7 -7
12 -44 12 -96 0 -76 2 -83 18 -77 56 24 88 27 124 12 68 -28 79 -61 76 -221
-3 -120 -5 -140 -21 -150 -12 -8 -22 -8 -35 0 -14 9 -18 32 -22 153 -5 151 -9
161 -58 161 -13 0 -36 -7 -52 -15 l-30 -16 0 -125 c0 -129 -8 -164 -38 -164
-40 0 -42 15 -42 271 0 136 3 254 6 263 7 19 45 21 62 4z"/>
<path d="M7031 4014 c-12 -15 -21 -33 -21 -41 0 -10 -6 -7 -19 8 -19 23 -23
24 -184 24 -148 0 -167 -2 -186 -19 -26 -24 -28 -77 -3 -99 10 -10 32 -17 49
-17 65 0 63 7 63 -207 0 -108 4 -202 10 -213 14 -27 62 -41 91 -26 43 21 49
49 49 247 l0 186 47 6 c32 3 53 12 65 27 17 22 18 15 18 -203 0 -204 2 -227
18 -248 25 -30 75 -30 105 0 20 19 22 33 25 151 3 118 5 131 24 141 42 23 48
8 48 -126 0 -139 11 -178 54 -189 32 -8 72 8 86 35 19 35 9 306 -12 346 -26
47 -75 73 -141 73 l-55 0 -4 66 c-3 55 -8 70 -27 85 -34 27 -75 24 -100 -7z
m77 -16 c8 -8 12 -45 12 -100 0 -48 3 -88 8 -88 4 1 18 7 32 15 54 31 137 9
163 -43 23 -45 29 -100 21 -213 -6 -95 -9 -109 -26 -115 -40 -12 -48 11 -48
140 0 141 -10 169 -57 174 -17 2 -46 -4 -62 -13 l-31 -16 0 -132 c0 -137 -5
-157 -42 -157 -33 0 -38 34 -38 284 0 209 2 247 16 260 19 19 36 20 52 4z
m-137 -44 c24 -29 -1 -49 -70 -52 l-61 -3 0 -212 c0 -214 -4 -237 -36 -237 -7
0 -20 7 -28 16 -14 13 -16 48 -16 224 l0 209 -56 3 c-64 3 -88 23 -65 52 11
13 39 16 166 16 127 0 155 -3 166 -16z"/>
<path d="M8673 4030 c-40 -16 -43 -38 -43 -314 0 -253 1 -267 20 -286 25 -25
74 -26 99 -1 15 15 19 39 23 151 5 138 10 153 53 148 19 -3 20 -12 25 -139 4
-116 8 -140 24 -158 25 -28 77 -28 102 0 17 19 19 38 19 173 0 168 -7 195 -67
237 -24 18 -46 23 -89 24 l-57 0 -4 63 c-3 45 -9 68 -23 81 -26 24 -55 32 -82
21z m55 -42 c7 -7 12 -44 12 -96 0 -76 2 -83 18 -77 9 4 42 10 73 12 52 5 59
3 90 -25 l34 -30 3 -155 c3 -148 2 -156 -17 -167 -17 -8 -25 -6 -42 11 -20 20
-21 28 -14 119 8 126 -3 176 -45 185 -18 4 -42 0 -65 -10 l-35 -17 0 -132 c0
-89 -4 -136 -12 -144 -17 -17 -55 -15 -62 4 -3 9 -6 127 -6 263 0 254 3 271
40 271 9 0 21 -5 28 -12z"/>
<path d="M1935 4011 c-76 -34 -116 -107 -101 -185 11 -59 46 -98 128 -141 43
-22 85 -48 95 -58 25 -25 6 -51 -41 -55 -33 -3 -38 0 -51 32 -24 57 -73 72
-116 37 -19 -15 -24 -29 -24 -63 0 -96 44 -136 159 -145 114 -9 190 29 222
112 39 102 -5 184 -136 254 -63 34 -85 52 -85 66 0 16 8 21 36 23 33 3 37 1
42 -27 13 -65 113 -74 135 -12 15 42 -1 111 -32 138 -52 45 -161 56 -231 24z
m144 -22 c59 -12 91 -45 91 -94 0 -65 -56 -71 -72 -8 -6 24 -14 31 -41 36 -49
8 -86 -3 -104 -30 -29 -44 -9 -71 92 -122 106 -54 135 -89 135 -160 0 -98 -63
-146 -186 -139 -100 5 -129 26 -129 94 0 48 1 49 30 49 26 0 30 -4 33 -30 5
-39 16 -45 83 -45 65 0 92 21 92 70 0 41 -14 55 -116 107 -80 41 -92 51 -109
90 -15 35 -17 50 -9 81 13 46 54 87 101 100 47 14 51 14 109 1z"/>
<path d="M3185 3998 l-27 -24 -6 -225 c-7 -316 -5 -319 161 -319 168 0 226 35
257 155 7 25 8 26 9 7 1 -31 34 -92 63 -119 86 -80 287 -57 296 34 2 22 -3 38
-17 52 -24 24 -47 26 -102 9 -29 -8 -45 -8 -64 0 -48 22 -27 32 69 32 87 0 96
2 110 22 22 30 20 113 -3 164 -56 124 -230 136 -314 23 -10 -15 -27 -55 -37
-90 -10 -35 -19 -57 -20 -49 0 8 -9 26 -19 39 -18 24 -18 25 1 69 25 55 20
108 -15 161 -39 58 -84 75 -208 79 -100 3 -108 2 -134 -20z m260 -32 c72 -30
98 -130 51 -198 l-23 -34 28 -32 c41 -46 46 -91 18 -149 -35 -69 -69 -83 -199
-83 -69 0 -110 4 -118 12 -17 17 -17 469 0 486 18 18 200 16 243 -2z m402
-136 c38 -23 61 -64 70 -125 9 -69 -1 -75 -123 -75 -103 0 -104 0 -104 -24 0
-13 10 -36 21 -51 21 -26 24 -27 108 -23 80 3 86 2 86 -17 0 -56 -157 -74
-224 -26 -18 13 -42 42 -52 65 -21 47 -25 136 -8 187 13 38 54 87 84 99 37 16
109 11 142 -10z"/>
<path d="M3270 3835 l0 -75 59 0 c74 0 114 28 114 78 0 54 -26 72 -105 72
l-68 0 0 -75z m134 23 c18 -30 -4 -53 -55 -56 l-44 -3 0 41 0 41 44 -3 c29 -2
48 -9 55 -20z"/>
<path d="M3270 3620 l0 -80 74 0 c69 0 76 2 95 26 24 30 26 52 10 88 -14 31
-56 46 -125 46 l-54 0 0 -80z m138 28 c18 -18 14 -56 -7 -68 -11 -5 -38 -10
-61 -10 -34 0 -41 3 -36 16 3 9 6 29 6 45 0 28 2 29 43 29 24 0 48 -5 55 -12z"/>
<path d="M3744 3780 c-26 -10 -54 -48 -54 -72 0 -16 10 -18 75 -18 l75 0 0 28
c0 46 -52 80 -96 62z m51 -40 c4 -6 -7 -10 -25 -10 -18 0 -29 4 -25 10 3 6 15
10 25 10 10 0 22 -4 25 -10z"/>
<path d="M4195 4001 c-73 -33 -111 -103 -100 -179 9 -60 52 -104 150 -155 89
-47 108 -77 61 -98 -29 -14 -76 -4 -76 15 0 24 -41 66 -65 66 -61 0 -87 -39
-75 -114 9 -62 39 -90 110 -105 93 -20 175 -7 222 36 54 48 73 143 43 208 -23
48 -63 81 -146 123 -55 27 -74 42 -74 57 0 16 8 21 38 23 27 2 37 -1 37 -11 0
-30 40 -67 73 -67 18 0 37 4 43 8 42 28 40 123 -3 167 -47 47 -165 60 -238 26z
m195 -36 c15 -8 30 -22 34 -30 11 -29 6 -82 -8 -94 -21 -18 -54 3 -58 36 -3
24 -9 29 -44 37 -59 12 -98 -8 -102 -52 -4 -44 8 -57 99 -102 123 -63 159
-126 120 -214 -25 -57 -77 -86 -154 -86 -105 0 -157 33 -157 101 0 28 5 41 21
49 24 13 49 -2 49 -31 0 -33 28 -49 85 -49 46 0 56 4 74 26 42 54 15 96 -92
147 -95 45 -127 82 -127 147 0 41 5 55 31 85 17 19 45 39 63 45 39 12 129 4
166 -15z"/>
<path d="M4953 3994 c-22 -22 -25 -32 -20 -71 4 -35 1 -46 -12 -50 -72 -26
-66 -133 7 -133 21 0 22 -4 22 -84 l0 -84 -36 -12 c-45 -15 -62 -48 -44 -90
16 -39 39 -45 171 -45 123 0 149 12 149 70 0 36 -22 60 -62 70 l-28 7 0 131
c0 103 -3 134 -15 147 -14 16 -14 20 1 47 48 84 -64 166 -133 97z m89 -16 c40
-33 19 -88 -33 -88 -41 0 -59 38 -35 75 18 27 43 32 68 13z m16 -150 c8 -8 12
-57 12 -154 l0 -143 36 -3 c44 -4 65 -28 45 -52 -19 -22 -222 -23 -241 -1 -23
28 -8 50 38 53 l42 3 0 119 0 119 -36 3 c-44 4 -65 28 -45 52 16 20 131 22
149 4z"/>
<path d="M5868 3990 c-30 -31 -34 -55 -13 -102 5 -14 2 -18 -14 -18 -12 0 -30
-9 -40 -19 -19 -19 -20 -19 -37 0 -11 12 -30 19 -56 19 -34 0 -38 3 -38 25 0
39 -21 73 -52 84 -52 18 -98 -21 -98 -84 0 -17 -6 -25 -17 -25 -9 0 -24 -7
-33 -15 -15 -14 -18 -14 -30 0 -7 9 -29 15 -51 15 -35 0 -39 3 -39 25 0 67
-54 109 -108 81 -33 -17 -42 -34 -42 -76 0 -23 -5 -29 -30 -34 -64 -12 -66
-102 -2 -121 l32 -9 0 -98 c0 -108 12 -148 53 -187 32 -29 108 -39 161 -21 97
32 69 154 -30 135 l-35 -6 3 88 3 88 37 3 c20 2 42 9 48 17 10 12 14 12 27 0
8 -8 23 -15 34 -15 17 0 19 -8 19 -92 0 -51 5 -109 10 -129 26 -93 148 -132
235 -75 14 9 25 12 25 7 0 -22 62 -33 170 -29 97 3 114 6 126 22 14 19 14 19
34 -2 27 -29 80 -29 106 -1 16 18 19 40 22 152 4 137 7 147 50 147 22 0 22 -2
22 -127 0 -110 3 -133 20 -160 16 -27 26 -33 55 -33 22 0 43 8 55 20 18 18 20
33 20 165 0 195 -20 239 -121 266 -38 10 -53 10 -92 -4 -27 -9 -49 -12 -52 -6
-11 17 -71 10 -90 -11 -15 -17 -17 -38 -16 -171 l2 -151 -23 16 c-12 9 -30 16
-39 16 -15 0 -18 16 -21 134 -2 108 -6 138 -20 152 -14 17 -15 21 -2 38 17 24
18 75 1 97 -35 46 -88 50 -129 9z m103 -32 c22 -42 -22 -90 -66 -70 -33 15
-38 50 -10 77 26 27 60 24 76 -7z m-663 -65 l3 -52 51 -3 c94 -6 91 -68 -3
-68 l-49 0 0 -109 c0 -134 19 -164 81 -130 15 8 24 7 35 -2 49 -40 -42 -95
-113 -68 -65 25 -78 54 -82 190 -3 114 -4 119 -25 119 -32 0 -48 15 -44 41 2
19 10 25 36 27 29 3 32 6 32 38 0 52 16 76 48 72 25 -3 27 -7 30 -55z m320 0
l3 -52 51 -3 c94 -6 91 -68 -3 -68 l-49 0 0 -99 c0 -55 4 -111 10 -126 9 -24
14 -25 62 -23 51 3 53 2 53 -22 0 -20 -8 -28 -41 -39 -47 -16 -82 -10 -119 22
-33 28 -44 78 -45 194 l0 92 -32 3 c-26 2 -34 8 -36 27 -4 28 12 41 51 41 26
0 27 2 27 48 0 56 5 64 40 60 23 -3 25 -8 28 -55z m340 -65 c8 -8 12 -57 12
-154 l0 -143 36 -3 c40 -3 61 -25 51 -52 -9 -23 -228 -24 -248 0 -20 24 1 48
45 52 l36 3 0 120 0 119 -33 0 c-31 0 -57 14 -57 31 0 4 7 15 16 23 19 19 124
22 142 4z m223 -4 c16 -14 20 -14 48 0 72 38 158 10 187 -60 21 -50 19 -277
-2 -298 -18 -19 -20 -19 -45 -6 -17 10 -19 22 -19 143 0 98 -4 138 -14 152
-18 24 -74 25 -110 2 -26 -17 -26 -18 -26 -152 0 -124 -2 -135 -20 -145 -15
-8 -24 -6 -40 10 -18 18 -20 33 -20 183 0 159 5 187 34 187 5 0 17 -7 27 -16z
m-384 -74 c14 -11 33 -20 42 -20 13 0 17 -15 19 -85 3 -81 3 -85 -18 -85 -12
0 -30 -5 -41 -10 -14 -8 -25 -7 -43 5 -17 11 -35 14 -60 9 l-36 -6 0 86 c0 85
0 86 25 86 28 0 75 20 75 32 0 13 10 10 37 -12z"/>
<path d="M2730 3868 c-95 -48 -136 -180 -94 -305 31 -92 91 -133 196 -133 115
1 179 50 149 116 -14 32 -47 43 -89 32 -43 -12 -104 -7 -110 10 -3 9 19 12 86
12 86 0 92 1 111 26 52 66 5 205 -83 245 -55 25 -112 24 -166 -3z m168 -35
c49 -30 84 -131 62 -173 -10 -18 -22 -20 -121 -20 l-111 0 7 -27 c18 -74 56
-93 145 -75 48 11 57 10 67 -4 25 -34 -12 -60 -100 -70 -71 -7 -132 24 -166
85 -43 79 -28 214 29 266 47 43 135 51 188 18z"/>
<path d="M2773 3775 c-11 -8 -26 -28 -31 -45 l-11 -30 80 0 c73 0 79 2 79 20
0 28 -44 70 -72 70 -13 0 -33 -7 -45 -15z m72 -35 c4 -6 -8 -10 -30 -10 -22 0
-34 4 -30 10 3 6 17 10 30 10 13 0 27 -4 30 -10z"/>
<path d="M4513 3854 c-22 -22 -25 -31 -19 -71 3 -25 6 -139 6 -253 0 -187 2
-210 18 -231 23 -27 73 -30 101 -5 13 11 22 38 26 71 l7 52 54 6 c73 8 119 38
151 101 23 43 27 64 27 131 0 105 -34 174 -106 211 -33 17 -108 18 -143 2 -19
-9 -28 -9 -37 0 -20 20 -57 14 -85 -14z m81 -30 c4 -11 13 -10 46 7 56 29 111
22 155 -21 84 -82 71 -264 -25 -328 -30 -20 -45 -23 -97 -20 l-62 4 -3 -70
c-3 -76 -21 -102 -55 -80 -16 10 -18 36 -21 260 -2 220 0 250 14 261 18 13 40
8 48 -13z"/>
<path d="M4638 3764 c-28 -15 -28 -15 -28 -120 0 -117 1 -118 74 -118 30 -1
44 6 63 28 23 27 25 36 21 107 -2 58 -8 82 -22 98 -23 25 -68 27 -108 5z m76
-29 c30 -30 33 -128 5 -162 -6 -7 -27 -13 -47 -13 l-35 0 6 83 c5 60 11 85 24
95 22 16 28 15 47 -3z"/>
<path d="M7515 3856 c-102 -44 -152 -206 -101 -328 44 -105 167 -148 274 -97
148 72 146 347 -2 419 -49 23 -126 26 -171 6z m155 -38 c60 -31 90 -88 90
-175 0 -35 -6 -78 -14 -96 -40 -94 -163 -130 -245 -70 -84 61 -96 226 -22 307
53 58 119 70 191 34z"/>
<path d="M7535 3738 c-25 -30 -27 -37 -23 -106 3 -66 6 -77 31 -98 93 -80 185
70 121 197 -26 51 -89 54 -129 7z m90 -18 c23 -25 30 -107 13 -140 -10 -18
-22 -25 -43 -25 -40 0 -58 34 -51 100 4 35 12 55 27 68 27 22 32 21 54 -3z"/>
<path d="M7853 3858 c-37 -18 -45 -56 -41 -205 2 -117 6 -143 23 -173 31 -52
77 -72 150 -65 77 7 84 7 122 -1 25 -5 37 -1 56 18 24 24 24 24 19 208 -4 162
-6 187 -22 204 -24 24 -74 25 -100 1 -18 -16 -20 -31 -20 -137 0 -135 -7 -158
-50 -158 l-30 0 0 134 c0 113 -3 137 -17 154 -22 26 -61 35 -90 20z m65 -44
c5 -9 7 -56 4 -104 -10 -176 13 -220 101 -189 l42 14 5 139 c4 118 8 141 23
150 12 8 22 8 35 0 15 -10 18 -33 22 -178 3 -92 1 -174 -3 -182 -10 -18 -41
-18 -57 1 -11 13 -16 12 -44 -2 -69 -36 -152 -14 -183 48 -13 25 -19 300 -6
312 12 13 52 7 61 -9z"/>
<path d="M8315 3856 c-91 -40 -138 -185 -100 -312 14 -47 65 -113 89 -115 6
-1 0 -4 -13 -8 -13 -3 -33 -19 -45 -34 -27 -36 -13 -74 37 -103 20 -11 34 -24
30 -28 -4 -4 -6 -34 -5 -68 l3 -62 -25 27 c-13 14 -36 29 -50 33 -14 3 -26 10
-26 15 0 5 -11 16 -25 25 -38 25 -70 0 -79 -62 -3 -26 -2 -52 3 -58 4 -6 11
-33 14 -61 7 -63 33 -88 86 -79 43 7 82 32 98 65 12 23 13 23 13 -11 0 -43 15
-60 50 -60 31 0 50 17 50 44 0 18 2 17 28 -7 54 -52 130 -48 164 9 15 25 23
32 29 23 4 -7 3 -21 -3 -32 -15 -28 -2 -61 37 -96 42 -37 81 -40 119 -10 22
18 26 28 26 75 0 53 0 54 19 35 28 -28 96 -37 128 -16 14 9 28 26 30 36 6 20
33 20 71 0 33 -18 61 -13 87 15 26 28 32 68 15 94 -6 10 -28 15 -67 16 -69 2
-110 -11 -119 -38 -3 -11 -8 -17 -11 -15 -2 3 0 15 7 27 22 41 -21 100 -73
100 -45 0 -97 -57 -97 -107 0 -21 5 -44 12 -51 9 -9 9 -15 1 -23 -7 -7 -14 7
-24 48 -12 51 -19 60 -51 78 -35 18 -38 19 -71 3 -20 -9 -38 -26 -41 -36 -6
-19 -8 -18 -35 8 -50 50 -151 49 -167 -2 -10 -33 -22 -7 -26 58 l-4 60 50 12
c60 14 112 61 126 112 10 41 16 427 6 451 -12 28 -54 41 -85 26 -22 -11 -32
-11 -56 -1 -39 17 -92 17 -130 0z m139 -42 c26 -12 32 -12 47 2 10 9 26 14 36
12 17 -3 18 -18 18 -213 0 -229 -4 -249 -58 -289 -62 -46 -233 -26 -225 26 3
20 8 23 38 21 140 -10 152 -6 166 51 l7 29 -46 -7 c-63 -10 -120 8 -152 46
-37 44 -47 74 -47 144 -1 77 14 123 51 158 48 46 98 52 165 20z m-67 -410 c-3
-3 -12 -4 -19 -1 -8 3 -5 6 6 6 11 1 17 -2 13 -5z m-13 -181 c2 -10 8 -64 11
-119 5 -74 4 -104 -5 -109 -22 -13 -28 9 -35 128 -6 102 -5 117 8 117 9 0 18
-8 21 -17z m-194 -43 c0 -14 7 -20 24 -20 13 0 35 -9 50 -21 21 -17 26 -29 26
-64 0 -39 -3 -46 -31 -60 -17 -9 -42 -15 -57 -13 -23 3 -28 9 -37 53 -5 28
-13 55 -16 60 -3 6 -4 27 -2 48 4 28 10 37 24 37 12 0 19 -7 19 -20z m764 -12
c21 -29 4 -48 -26 -29 -17 11 -22 11 -29 -1 -13 -21 -11 -25 22 -38 51 -22 73
-79 36 -93 -22 -8 -79 5 -84 20 -7 17 16 35 35 28 28 -10 9 6 -23 19 -43 18
-47 55 -10 91 30 31 59 32 79 3z m-402 -28 c62 -18 78 -81 33 -126 -19 -19
-31 -23 -52 -18 -68 16 -97 90 -53 134 23 23 23 23 72 10z m199 -6 c16 -6 49
-124 49 -176 0 -28 -23 -58 -45 -58 -21 0 -75 50 -75 70 0 19 25 34 40 25 5
-3 7 -12 4 -20 -3 -7 4 -18 16 -25 20 -11 21 -10 18 32 -3 42 -4 43 -36 40
-29 -3 -34 0 -47 32 -11 27 -13 42 -5 56 12 23 41 41 55 35 6 -3 17 -8 26 -11z
m340 -34 l23 -21 8 21 c10 26 32 21 36 -7 6 -42 -60 -62 -88 -28 -6 7 -20 11
-30 8 -26 -7 -27 22 -2 36 24 14 26 14 53 -9z"/>
<path d="M8346 3747 c-44 -44 -41 -182 5 -219 21 -18 65 -23 107 -12 21 6 22
11 22 114 l0 108 -34 16 c-47 22 -73 20 -100 -7z m78 -23 c23 -9 23 -169 1
-178 -21 -8 -61 9 -69 29 -10 26 -7 89 5 124 11 31 29 38 63 25z"/>
<path d="M8190 3085 c0 -39 21 -55 45 -35 19 16 19 35 -1 54 -27 27 -44 20
-44 -19z"/>
<path d="M8490 3073 c0 -25 33 -48 56 -39 10 4 14 16 12 33 -3 24 -7 28 -35
28 -27 0 -33 -4 -33 -22z"/>
<path d="M8696 3102 c-7 -12 3 -42 14 -42 16 0 19 17 6 35 -8 11 -15 14 -20 7z"/>
<path d="M7915 3253 c-13 -13 -16 -28 -11 -72 3 -31 3 -49 -1 -41 -11 28 -47
60 -67 60 -12 0 -36 -9 -54 -20 -27 -16 -33 -26 -31 -48 2 -15 -2 -36 -9 -47
-10 -18 -11 -18 -12 -2 0 29 -38 95 -61 108 -17 8 -32 8 -63 -1 -60 -17 -70
-24 -77 -51 -4 -13 -7 -18 -8 -11 -2 21 -64 52 -107 52 -43 0 -60 -12 -86 -64
-9 -17 -18 -24 -22 -18 -3 6 -2 13 4 17 13 8 13 51 0 74 -5 10 -23 24 -39 31
-38 15 -76 -1 -106 -46 l-21 -31 -22 24 c-19 21 -29 24 -65 20 -59 -6 -76 -16
-83 -44 l-7 -25 -13 31 c-13 30 -66 71 -92 71 -32 0 -85 -35 -100 -67 -16 -33
-16 -33 -36 -14 -33 30 -62 41 -104 41 -62 0 -93 -55 -59 -105 8 -11 20 -42
27 -70 15 -59 35 -85 65 -85 23 0 45 17 45 36 0 7 14 26 30 42 l30 30 28 -28
c32 -31 102 -55 138 -46 34 9 55 56 49 108 -4 34 -2 30 9 -15 16 -68 25 -79
62 -79 32 0 57 28 51 59 -2 14 2 23 12 26 9 3 24 8 33 12 13 5 17 0 20 -27 2
-24 10 -36 30 -46 44 -21 95 -18 121 7 l24 21 18 -20 c10 -11 36 -25 57 -30
51 -14 85 2 115 55 21 38 23 38 23 13 0 -62 44 -106 82 -82 7 5 31 9 53 9 31
0 42 5 49 21 9 20 10 20 28 2 23 -23 104 -25 129 -2 16 14 19 14 38 -5 26 -26
53 -27 76 -1 16 18 17 30 8 139 -5 70 -15 126 -22 135 -17 21 -55 20 -76 -1z
m54 -35 c4 -13 11 -66 15 -119 5 -82 4 -98 -9 -103 -9 -3 -18 0 -20 7 -7 19
-22 221 -18 230 8 14 24 7 32 -15z m-684 -49 c4 -5 4 -17 1 -26 -6 -14 -8 -14
-25 1 -17 16 -20 16 -35 1 -17 -18 -13 -35 8 -35 25 0 66 -41 66 -66 0 -28
-30 -39 -75 -26 -38 11 -40 37 -3 37 21 -1 24 2 16 12 -6 7 -19 13 -29 13 -30
0 -42 35 -24 70 25 47 77 57 100 19z m-381 -8 c26 -22 37 -57 27 -83 -6 -16
-4 -26 6 -33 17 -12 8 -42 -16 -54 -23 -13 -91 13 -118 44 -40 46 -23 124 31
144 24 10 43 5 70 -18z m752 1 c34 -22 68 -152 44 -167 -15 -9 -30 12 -30 43
0 12 -7 39 -15 60 -13 29 -18 34 -26 22 -5 -8 -9 -38 -7 -66 3 -91 -24 -96
-42 -9 -6 28 -13 63 -17 79 -5 25 -3 28 14 24 11 -3 28 1 38 8 21 16 26 17 41
6z m203 -6 c14 -16 24 -111 15 -138 -4 -13 -16 -18 -43 -18 -44 0 -61 14 -61
52 0 29 40 65 60 53 5 -3 10 1 10 10 0 13 -6 15 -30 10 -37 -8 -42 16 -7 33
31 15 43 14 56 -2z m-753 -21 c9 -14 13 -32 9 -42 -6 -16 -8 -16 -25 5 -29 36
-43 18 -35 -44 5 -45 4 -54 -9 -54 -16 0 -33 49 -38 109 -3 29 1 36 22 42 44
13 59 9 76 -16z m-420 -4 c17 -11 34 -30 38 -44 9 -36 -9 -77 -34 -77 -15 0
-20 -7 -20 -24 0 -50 -33 -40 -43 13 -4 19 -17 53 -28 77 -12 23 -19 50 -16
58 9 22 65 20 103 -3z m787 -1 c35 -28 41 -52 23 -94 -12 -30 -20 -36 -45 -36
-45 0 -78 19 -92 52 -10 24 -9 35 4 64 14 29 22 34 50 34 19 0 46 -9 60 -20z
m444 -92 c-3 -8 -6 -5 -6 6 -1 11 2 17 5 13 3 -3 4 -12 1 -19z"/>
<path d="M6826 3128 c-21 -29 -20 -37 2 -36 9 1 29 -2 45 -5 22 -6 27 -4 27
11 0 20 -29 52 -48 52 -6 0 -18 -10 -26 -22z"/>
<path d="M6845 3050 c-3 -4 9 -13 27 -19 38 -13 38 -13 38 -2 0 13 -58 32 -65
21z"/>
<path d="M7807 3063 c-14 -13 -6 -33 13 -33 13 0 20 7 20 20 0 19 -20 27 -33
13z"/>
<path d="M6645 3081 c19 -38 33 -47 41 -26 7 18 -22 55 -43 55 -11 0 -11 -5 2
-29z"/>
<path d="M7390 3080 c0 -24 25 -42 52 -38 17 2 23 10 23 28 0 21 -5 24 -37 25
-30 1 -38 -2 -38 -15z"/>
<path d="M1624 3235 c-16 -25 -16 -46 4 -162 11 -67 25 -83 73 -83 48 0 84 16
105 48 l16 24 18 -29 c20 -33 82 -63 130 -63 29 0 63 24 72 51 4 11 11 9 29
-7 49 -44 131 -49 165 -10 21 23 22 24 38 5 11 -14 29 -19 65 -19 54 0 81 17
81 53 1 18 4 15 20 -14 23 -44 57 -59 133 -58 54 0 59 2 78 32 10 18 19 27 19
21 0 -7 21 -17 47 -23 54 -14 98 -1 108 30 6 17 9 16 31 -11 32 -38 114 -64
148 -48 35 15 47 51 40 116 -10 89 -53 142 -115 142 -32 0 -77 -28 -93 -58
-15 -26 -15 -26 -16 -4 0 13 -11 34 -25 47 -67 68 -175 -17 -146 -114 6 -21
11 -45 11 -52 -1 -24 -27 34 -35 76 -12 68 -54 95 -90 59 -14 -14 -17 -15 -28
-2 -22 28 -47 29 -72 4 l-23 -23 -11 23 c-14 32 -55 41 -97 21 -31 -15 -55
-59 -41 -74 12 -12 -13 -41 -31 -36 -14 3 -17 12 -14 37 3 27 -1 37 -23 55
-15 11 -36 21 -46 21 -49 0 -95 -44 -110 -105 -6 -28 -7 -27 -8 13 -1 33 -8
49 -33 76 -18 19 -45 37 -59 40 -34 7 -88 -23 -109 -62 l-17 -31 -13 24 c-7
14 -28 30 -47 37 -18 7 -40 22 -48 35 -21 31 -60 30 -81 -2z m57 -17 c1 -7 1
-16 0 -20 0 -4 17 -12 39 -18 92 -25 95 -137 4 -154 -48 -9 -64 6 -64 60 0 23
-4 46 -10 49 -11 7 -13 54 -4 79 7 19 33 21 35 4z m1093 -24 c18 -17 21 -44 6
-44 -6 0 -19 6 -30 13 -17 10 -22 9 -30 -3 -14 -21 -12 -30 4 -30 8 0 29 -12
46 -26 34 -29 38 -66 7 -72 -32 -6 -87 8 -87 22 0 17 25 27 47 19 10 -4 14 -2
10 5 -4 6 -20 13 -37 17 -36 8 -46 35 -26 74 23 43 62 54 90 25z m-794 -21
c15 -19 20 -39 19 -64 -2 -20 2 -43 9 -51 9 -11 8 -19 -4 -37 -13 -18 -22 -21
-47 -15 -77 16 -127 74 -111 127 20 68 95 90 134 40z m1002 -3 c26 -27 30 -36
25 -70 -3 -25 -1 -40 6 -43 20 -6 -10 -57 -33 -57 -39 0 -101 32 -115 61 -23
43 -18 77 14 110 38 37 65 37 103 -1z m-607 -4 c11 -17 15 -42 13 -83 -3 -57
-3 -58 -35 -61 -44 -4 -73 13 -73 43 0 30 32 65 61 65 12 0 17 4 14 11 -4 6
-19 7 -36 4 -35 -8 -38 7 -7 29 31 22 45 20 63 -8z m-201 1 c10 -7 17 -22 14
-33 -4 -23 -38 -32 -38 -10 0 9 -4 16 -8 16 -15 0 -32 -24 -32 -45 0 -12 5
-26 12 -33 15 -15 65 -16 70 0 2 6 12 9 21 5 28 -11 1 -57 -33 -57 -100 0
-144 77 -81 141 33 32 48 35 75 16z m314 -48 c2 -31 10 -53 23 -65 28 -25 41
-7 43 58 2 81 25 71 48 -21 19 -78 17 -97 -10 -82 -10 6 -23 6 -35 -1 -29 -15
-77 9 -93 48 -8 19 -14 52 -14 74 0 34 3 41 18 38 13 -2 18 -15 20 -49z m332
-1 c0 -18 -2 -20 -9 -8 -6 8 -7 18 -5 22 9 14 14 9 14 -14z"/>
<path d="M1695 3108 c4 -24 9 -45 12 -48 10 -10 38 19 41 44 3 20 -2 28 -23
36 -38 14 -37 14 -30 -32z"/>
<path d="M1894 3145 c-9 -14 -15 -27 -13 -29 2 -2 22 -6 44 -8 35 -3 40 -1 37
17 -3 20 -28 45 -44 45 -4 0 -15 -11 -24 -25z"/>
<path d="M1910 3065 c0 -10 52 -25 63 -18 7 4 3 9 -9 14 -23 9 -54 11 -54 4z"/>
<path d="M2902 3148 c-20 -20 -13 -35 19 -42 45 -9 49 -8 49 12 0 22 -19 42
-40 42 -9 0 -21 -5 -28 -12z"/>
<path d="M2924 3056 c22 -18 52 -21 61 -6 3 6 -2 10 -12 10 -10 0 -29 3 -43 6
-24 5 -24 5 -6 -10z"/>
<path d="M2315 3080 c-8 -14 3 -30 21 -30 8 0 14 9 14 20 0 21 -24 28 -35 10z"/>
<path d="M3637 3233 c-21 -25 -33 -109 -17 -128 19 -23 67 -19 81 7 11 21 13
17 25 -41 16 -75 27 -91 65 -91 30 0 49 23 49 58 0 10 11 24 25 30 21 10 25 9
25 -4 0 -27 64 -82 109 -94 91 -24 128 17 112 121 -12 74 -31 104 -75 126 -44
20 -77 12 -118 -31 l-32 -34 -19 24 c-22 29 -89 33 -125 8 -21 -14 -22 -14
-22 9 0 26 -28 57 -52 57 -8 0 -22 -8 -31 -17z m50 -29 c9 -23 -11 -79 -27
-79 -11 0 -14 10 -12 35 1 19 4 41 7 48 6 17 24 15 32 -4z m361 -37 c18 -17
22 -30 20 -62 -2 -25 2 -44 11 -51 23 -18 -3 -54 -40 -54 -67 0 -119 49 -119
111 0 29 7 43 31 63 35 30 59 28 97 -7z m-193 -27 c14 -28 14 -31 0 -36 -9 -4
-22 1 -30 12 -12 16 -16 17 -24 4 -5 -8 -7 -26 -5 -40 10 -50 9 -65 -6 -65
-16 0 -38 62 -39 112 -1 25 4 32 22 36 54 10 66 7 82 -23z"/>
<path d="M3966 3138 c-19 -27 -20 -41 -3 -35 6 2 25 0 40 -4 35 -10 47 13 22
41 -23 26 -40 25 -59 -2z"/>
<path d="M3980 3062 c0 -12 56 -33 64 -25 10 10 7 20 -6 20 -7 0 -23 3 -35 7
-13 4 -23 3 -23 -2z"/>
<path d="M4231 3241 c-17 -11 -33 -98 -22 -119 5 -10 12 -38 16 -65 10 -66 39
-88 97 -75 45 10 88 42 88 65 0 24 17 5 23 -26 8 -38 37 -54 71 -41 25 9 31
23 27 63 -1 9 1 17 6 17 4 0 18 3 31 6 20 6 22 3 22 -28 0 -39 15 -58 45 -58
40 0 58 33 53 97 -6 67 5 47 22 -40 9 -47 17 -60 37 -70 18 -8 29 -8 42 0 10
6 29 9 43 6 15 -3 34 -1 44 5 14 8 20 4 33 -21 51 -102 180 -93 182 12 0 20 3
30 6 24 7 -20 58 -15 78 7 14 16 17 31 12 77 -6 64 6 45 18 -27 4 -25 13 -55
21 -67 15 -24 53 -30 71 -12 8 8 17 8 30 0 14 -7 27 -6 45 4 24 12 27 11 32
-9 8 -34 59 -76 99 -83 29 -4 40 -1 61 20 31 32 33 69 7 177 -16 68 -21 77
-54 95 -45 24 -82 14 -113 -32 l-21 -31 -16 37 c-22 50 -50 62 -108 47 -24 -6
-50 -15 -57 -19 -7 -5 -12 -5 -11 0 5 26 -4 45 -25 54 -49 23 -85 -29 -87
-126 l0 -40 -13 49 c-15 53 -25 63 -74 72 -38 7 -77 -14 -94 -52 -11 -24 -11
-24 -29 15 -20 45 -51 66 -83 56 -77 -23 -84 -23 -95 1 -16 35 -60 43 -83 14
-10 -12 -18 -34 -18 -48 l0 -25 -26 28 c-23 25 -30 27 -77 22 -37 -4 -56 -12
-66 -26 -13 -21 -13 -21 -43 4 -16 14 -35 25 -42 25 -7 0 -22 11 -34 25 -22
26 -47 31 -71 16z m46 -41 c3 -13 19 -24 43 -30 44 -12 55 -23 64 -66 10 -45
-25 -84 -79 -87 l-39 -2 -7 49 c-4 26 -11 55 -15 65 -7 16 -6 70 3 84 8 14 25
7 30 -13z m384 -23 c-5 -5 -17 -7 -26 -3 -14 5 -15 9 -5 21 10 12 16 13 27 4
9 -8 10 -16 4 -22z m499 7 c0 -14 -21 -19 -33 -7 -9 9 13 34 24 27 5 -3 9 -12
9 -20z m-336 -20 c19 -18 49 -116 44 -142 -6 -33 -32 -18 -39 23 -4 22 -12 53
-19 69 -17 46 -35 17 -32 -53 2 -56 -9 -84 -23 -60 -7 10 -35 135 -35 153 0 4
8 6 18 4 10 -3 27 1 37 8 24 18 30 17 49 -2z m-278 -19 c17 -26 13 -55 -7 -55
-6 0 -13 9 -16 20 -11 43 -28 13 -25 -44 2 -50 0 -57 -15 -54 -12 2 -21 21
-31 62 -15 69 -12 83 20 89 47 9 58 6 74 -18z m796 -17 c23 -48 28 -123 9
-123 -9 0 -19 19 -26 50 -24 106 -50 107 -50 1 0 -75 -19 -86 -33 -19 -27 125
-27 127 -3 120 11 -3 24 -1 27 5 3 5 18 8 32 6 20 -2 32 -13 44 -40z m-689
-23 c9 -56 2 -98 -16 -92 -13 4 -28 112 -20 134 10 27 28 6 36 -42z m351 46
c20 -8 55 -119 56 -176 0 -61 -49 -73 -102 -26 -28 25 -30 31 -19 45 19 23 39
20 43 -6 2 -13 11 -24 21 -26 16 -3 18 2 15 35 -3 33 -6 38 -28 39 -42 1 -46
3 -58 29 -17 36 -15 52 8 75 21 21 33 23 64 11z m499 -2 c19 -9 26 -25 41 -95
18 -89 16 -118 -13 -133 -38 -21 -116 43 -90 75 17 20 39 17 39 -6 0 -10 9
-24 20 -30 18 -10 20 -8 20 19 0 47 -8 58 -38 53 -33 -4 -49 12 -58 55 -5 24
-1 36 15 52 24 24 31 25 64 10z m-351 -54 c4 -28 5 -58 2 -67 -8 -27 -34 -22
-34 6 0 13 -3 45 -6 71 -6 42 -5 47 12 43 14 -2 21 -16 26 -53z m-239 -58 c3
-8 1 -20 -4 -28 -6 -10 -9 -7 -9 14 0 29 5 35 13 14z m502 -6 c3 -5 1 -12 -5
-16 -5 -3 -10 1 -10 9 0 18 6 21 15 7z"/>
<path d="M4290 3108 c0 -48 12 -63 39 -49 27 15 27 46 -1 65 -32 23 -38 20
-38 -16z"/>
<path d="M4960 3111 c0 -17 12 -41 21 -41 5 0 9 11 9 25 0 16 -6 25 -15 25 -8
0 -15 -4 -15 -9z"/>
<path d="M5462 3099 c1 -12 9 -24 16 -27 9 -3 13 3 10 19 -1 12 -9 24 -16 27
-9 3 -13 -3 -10 -19z"/>
<path d="M5700 3232 c-26 -21 -30 -75 -13 -170 13 -73 38 -96 92 -87 23 4 54
17 69 30 l26 22 18 -22 c35 -45 130 -44 150 1 l11 24 15 -21 c18 -26 71 -49
110 -49 34 0 82 34 83 58 0 13 2 13 9 -3 12 -32 37 -48 65 -43 14 3 25 2 25
-2 0 -16 54 -27 77 -17 38 17 38 43 0 99 -34 52 -34 52 -20 95 14 39 13 46 -2
69 -14 21 -23 25 -48 21 -18 -2 -40 0 -50 5 -13 7 -26 5 -44 -7 -23 -15 -25
-22 -20 -64 3 -25 9 -61 13 -80 l7 -34 -26 19 c-17 12 -24 25 -21 36 5 18 -12
58 -30 70 -17 12 -79 9 -96 -5 -9 -7 -23 -22 -32 -35 l-16 -23 -10 30 c-14 38
-52 64 -85 56 -39 -10 -70 -44 -64 -71 2 -12 0 -29 -4 -36 -6 -9 -9 -7 -9 9 0
25 -46 83 -66 83 -7 0 -27 14 -44 30 -36 35 -41 36 -70 12z m47 -41 c3 -12 17
-21 39 -25 40 -8 64 -39 64 -83 0 -46 -30 -73 -79 -73 l-40 0 -6 48 c-3 26
-10 54 -14 62 -13 24 -1 90 16 90 8 0 17 -9 20 -19z m577 -23 c5 -32 9 -39 16
-28 5 8 10 25 10 38 0 12 7 25 16 29 28 10 33 -18 13 -68 -10 -27 -14 -51 -9
-54 16 -10 68 -93 62 -99 -15 -15 -39 -3 -57 30 l-19 36 -9 -26 c-5 -14 -12
-26 -17 -26 -14 0 -32 29 -27 43 3 8 -1 43 -9 78 -18 84 -17 89 5 89 14 0 20
-10 25 -42z m-310 -35 c2 -16 4 -48 3 -73 -2 -45 -2 -45 -40 -48 -43 -4 -67
11 -67 41 0 26 28 57 52 57 10 0 18 7 18 16 0 11 -5 14 -17 9 -31 -11 -38 -10
-38 5 0 8 11 20 24 27 32 15 58 2 65 -34z m175 8 c7 -13 6 -23 -3 -36 -11 -16
-14 -16 -28 -1 -21 21 -25 20 -38 -4 -24 -45 43 -89 81 -54 23 21 33 13 25
-20 -7 -28 -27 -35 -74 -25 -70 15 -94 78 -51 133 25 32 73 36 88 7z"/>
<path d="M5758 3090 c3 -30 8 -40 22 -40 37 0 48 50 16 72 -28 20 -42 8 -38
-32z"/>
<path d="M5947 3073 c-14 -13 -6 -33 13 -33 13 0 20 7 20 20 0 19 -20 27 -33
13z"/>
<path d="M3453 3220 c-12 -5 -32 -23 -44 -39 -20 -27 -25 -29 -38 -17 -10 9
-39 14 -76 14 -33 0 -71 5 -86 10 -30 12 -57 0 -68 -31 -11 -30 35 -164 63
-182 21 -14 93 -14 137 0 12 4 27 22 35 41 l15 35 25 -30 c32 -38 116 -68 150
-53 35 16 59 69 45 99 -6 13 -11 37 -11 54 0 73 -79 126 -147 99z m87 -47 c28
-23 31 -31 28 -69 -2 -29 1 -45 9 -49 10 -3 10 -10 1 -31 -11 -23 -16 -26 -52
-21 -46 7 -86 33 -104 71 -25 49 21 125 75 126 6 0 26 -12 43 -27z m-324 -66
c17 -67 24 -69 24 -8 0 45 3 52 18 49 12 -2 19 -16 23 -46 6 -50 25 -75 35
-48 3 9 4 35 0 57 -6 38 -5 40 16 37 21 -3 23 -8 22 -60 -1 -32 -6 -64 -13
-71 -14 -17 -117 -19 -130 -3 -12 16 -41 106 -41 129 0 12 6 17 17 15 11 -2
21 -21 29 -51z"/>
<path d="M3466 3144 c-23 -23 -20 -31 15 -38 45 -9 49 -8 49 12 0 38 -37 54
-64 26z"/>
<path d="M3480 3061 c0 -14 58 -32 66 -20 8 13 5 15 -33 22 -18 4 -33 3 -33
-2z"/>
</g>
</svg>
